<svg width="198" height="193" viewBox="0 0 198 193" fill="none" xmlns="http://www.w3.org/2000/svg">
<path d="M73.8223 13.7107H70.0484V92.8021H73.8223V13.7107Z" fill="#E0E0E0"/>
<path d="M69.4188 14.3245H15.3608C15.3302 14.3245 15.3054 14.3487 15.3054 14.3785V92.86C15.3054 92.8899 15.3302 92.9141 15.3608 92.9141H69.4188C69.4494 92.9141 69.4742 92.8899 69.4742 92.86V14.3785C69.4742 14.3487 69.4494 14.3245 69.4188 14.3245Z" fill="#F5F5F5"/>
<path d="M70.0484 93.5239H14.7312C14.7241 93.5239 14.7171 93.5225 14.7105 93.5198C14.704 93.517 14.6982 93.5129 14.6933 93.5079C14.6885 93.5028 14.6848 93.4968 14.6824 93.4903C14.6801 93.4837 14.6792 93.4768 14.6797 93.4699V13.7647C14.6792 13.7578 14.6801 13.7509 14.6824 13.7443C14.6848 13.7378 14.6885 13.7318 14.6933 13.7267C14.6982 13.7217 14.704 13.7176 14.7105 13.7148C14.7171 13.7121 14.7241 13.7107 14.7312 13.7107H70.0484C70.0631 13.7107 70.0773 13.7164 70.0876 13.7265C70.098 13.7367 70.1039 13.7504 70.1039 13.7647V93.4699C70.1039 93.4842 70.098 93.4979 70.0876 93.5081C70.0773 93.5182 70.0631 93.5239 70.0484 93.5239ZM15.9865 92.3003H68.7931C68.8078 92.3003 68.8219 92.2946 68.8323 92.2845C68.8427 92.2743 68.8486 92.2606 68.8486 92.2462V14.9884C68.8486 14.974 68.8427 14.9603 68.8323 14.9501C68.8219 14.94 68.8078 14.9343 68.7931 14.9343H15.9865C15.9794 14.9343 15.9724 14.9357 15.9659 14.9385C15.9593 14.9412 15.9535 14.9453 15.9486 14.9503C15.9438 14.9554 15.9401 14.9614 15.9378 14.968C15.9354 14.9745 15.9345 14.9814 15.935 14.9884V92.254C15.936 92.2666 15.9419 92.2784 15.9514 92.287C15.961 92.2956 15.9735 92.3003 15.9865 92.3003Z" fill="#EBEBEB"/>
<path d="M64.0609 19.1726H20.8138C20.7831 19.1726 20.7583 19.1968 20.7583 19.2266V87.9578C20.7583 87.9877 20.7831 88.0118 20.8138 88.0118H64.0609C64.0915 88.0118 64.1164 87.9877 64.1164 87.9578V19.2266C64.1164 19.1968 64.0915 19.1726 64.0609 19.1726Z" fill="white"/>
<path d="M54.5411 38.6887H30.2425C30.2294 38.6887 30.2188 38.6991 30.2188 38.7119V66.4769C30.2188 66.4896 30.2294 66.5 30.2425 66.5H54.5411C54.5542 66.5 54.5648 66.4896 54.5648 66.4769V38.7119C54.5648 38.6991 54.5542 38.6887 54.5411 38.6887Z" fill="#EBEBEB"/>
<path d="M52.6363 63.0956C52.668 63.1844 51.4483 63.6978 49.1792 63.4391C47.7749 63.2591 46.4393 62.7389 45.2945 61.926C43.7371 60.7975 42.6624 59.1479 42.277 57.294C42.0498 56.1341 42.144 54.936 42.5498 53.8234C42.9556 52.7107 43.6583 51.7235 44.5856 50.9636C45.1083 50.5383 45.6998 50.2004 46.336 49.9639C47.0355 49.7135 47.7864 49.6301 48.5258 49.7207C49.338 49.7984 50.1044 50.1239 50.7157 50.651C51.0577 50.9645 51.3153 51.3553 51.4658 51.7888C51.6164 52.2223 51.6552 52.6852 51.579 53.1368C51.4164 53.95 51.0017 54.6951 50.391 55.2714C49.8485 55.7944 49.2309 56.2378 48.5575 56.5876C47.2196 57.3118 45.7298 57.729 44.2015 57.8074C42.5793 57.8929 40.9649 57.5346 39.5406 56.7729C38.0672 55.9735 36.8718 54.764 36.1073 53.2989C35.3164 51.803 35.0988 50.0813 35.4935 48.443C35.8807 46.8595 36.806 45.4501 38.119 44.4441C38.7746 43.948 39.5221 43.5797 40.3207 43.3594C41.1287 43.1487 41.9756 43.1223 42.7957 43.2822C43.6645 43.4438 44.4548 43.8791 45.045 44.5213C45.6141 45.1761 45.9269 46.0061 45.9281 46.8643C45.9364 47.6452 45.7343 48.4145 45.342 49.0954C44.9815 49.7133 44.5108 50.2636 43.952 50.7204C42.9448 51.547 41.7692 52.1561 40.5029 52.5076C39.3261 52.8422 38.0911 52.9355 36.8755 52.7817C35.7398 52.6327 34.6553 52.2283 33.7075 51.6005C32.8932 51.079 32.2027 50.3939 31.6823 49.591C31.1618 48.7882 30.8235 47.8861 30.69 46.9454C30.5301 45.5251 30.9292 44.0986 31.8067 42.9541C32.3315 42.2432 33.0466 41.6864 33.8738 41.3445C34.4441 41.1361 34.7688 41.1399 34.7807 41.194C34.7926 41.248 34.5233 41.3908 34.0639 41.6919C33.4076 42.1308 32.8586 42.7055 32.4562 43.3749C31.8228 44.3981 31.5894 45.6096 31.7988 46.7871C31.9568 47.5444 32.2742 48.2616 32.7309 48.8935C33.1875 49.5253 33.7736 50.058 34.452 50.458C35.2821 50.9316 36.2083 51.2229 37.1658 51.3116C38.1234 51.4003 39.0892 51.2841 39.996 50.9713C41.0198 50.6495 41.9637 50.1237 42.768 49.4273C43.56 48.7325 44.1065 47.837 44.059 46.899C44.0512 46.4526 43.8748 46.0246 43.5636 45.697C43.2523 45.3694 42.8281 45.1652 42.372 45.1234C41.845 45.0316 41.3036 45.0567 40.788 45.1968C40.2416 45.3608 39.7313 45.6226 39.2832 45.9688C38.3348 46.7172 37.6688 47.752 37.3903 48.9101C37.1094 50.1028 37.2751 51.3541 37.8576 52.4381C38.4426 53.5544 39.3534 54.4771 40.4752 55.09C41.575 55.6839 42.8229 55.9673 44.0788 55.9083C45.3253 55.8628 46.5446 55.5393 47.6427 54.9626C48.159 54.707 48.635 54.3807 49.0565 53.9937C49.4083 53.6858 49.6578 53.2826 49.7732 52.8357C49.8089 52.6719 49.8011 52.5018 49.7505 52.3417C49.6999 52.1817 49.6082 52.0368 49.4841 51.9209C49.1522 51.6353 48.7367 51.4584 48.2962 51.4152C47.8338 51.3477 47.3617 51.3874 46.9181 51.531C46.4525 51.6879 46.0174 51.9202 45.6311 52.2181C44.8942 52.7837 44.3233 53.5285 43.9757 54.3776C43.6281 55.2267 43.5161 56.15 43.6511 57.0547C43.9103 58.6171 44.7332 60.0379 45.9716 61.0614C46.9392 61.8463 48.0806 62.4013 49.306 62.6826C51.385 63.1574 52.6205 62.918 52.6363 63.0956Z" fill="#E0E0E0"/>
<path d="M143.748 88.3516C143.799 88.3748 139.788 96.9671 134.783 107.54C129.777 118.112 125.675 126.674 125.631 126.651C125.587 126.627 129.591 118.035 134.596 107.459C139.602 96.8822 143.693 88.3284 143.748 88.3516Z" fill="#E0E0E0"/>
<path d="M190.987 56.464C190.987 56.464 190.987 56.2517 190.959 55.8348C190.959 55.6225 190.959 55.3639 190.931 55.0628C190.904 54.7617 190.931 54.395 190.876 53.9897C190.609 49.9092 189.673 45.8967 188.104 42.1048C187.332 40.2131 186.405 38.3852 185.332 36.639C182.706 32.3739 179.274 28.633 175.218 25.6148C172.865 23.8642 170.315 22.379 167.619 21.1874C164.701 19.8843 161.628 18.9391 158.471 18.3735C153.313 17.4432 148.019 17.5035 142.885 18.551C141.083 18.9306 139.307 19.4231 137.57 20.0256C130.177 22.6532 123.745 27.3536 119.085 33.5356C117.87 35.1457 116.787 36.8468 115.846 38.623C115.616 39.0747 115.359 39.5147 115.153 39.9779L114.511 41.3636C114.115 42.3055 113.719 43.2512 113.414 44.2278C112.741 46.1821 112.234 48.1871 111.898 50.2223C111.566 52.2848 111.392 54.3686 111.379 56.4562C111.39 58.5453 111.563 60.6305 111.898 62.694C112.231 64.7361 112.739 66.7477 113.414 68.7079C113.731 69.6845 114.127 70.6379 114.511 71.572C114.895 72.5061 115.355 73.4248 115.846 74.3126C116.786 76.0893 117.869 77.7905 119.085 79.4001C123.745 85.5841 130.178 90.285 137.574 92.9101C139.312 93.5161 141.089 94.0099 142.893 94.3885C148.026 95.4309 153.319 95.4899 158.475 94.5621C164.562 93.4543 170.298 90.9745 175.226 87.3208C179.28 84.3005 182.708 80.5568 185.328 76.2889C186.404 74.5443 187.332 72.7162 188.1 70.8232C188.756 69.2354 189.302 67.6067 189.735 65.948C190.331 63.6497 190.712 61.3035 190.872 58.9382C190.912 58.5329 190.92 58.1662 190.927 57.869C190.935 57.5718 190.947 57.3016 190.955 57.097C190.955 56.6801 190.983 56.4678 190.983 56.4678C190.983 56.4678 190.983 56.6801 190.983 57.097C190.983 57.3054 190.983 57.5641 190.983 57.869C190.983 58.1739 190.983 58.5368 190.935 58.9421C190.694 63.0307 189.777 67.0545 188.219 70.8579C187.45 72.7584 186.523 74.5942 185.447 76.3468C182.825 80.6327 179.39 84.3925 175.325 87.425C170.385 91.1041 164.629 93.6028 158.519 94.7204C153.34 95.658 148.023 95.6029 142.865 94.5583C141.052 94.1803 139.268 93.6851 137.523 93.0761C130.084 90.4475 123.611 85.7287 118.923 79.5159C117.7 77.8987 116.61 76.1898 115.664 74.4052C115.173 73.5136 114.753 72.5795 114.321 71.6492C113.89 70.7189 113.529 69.7539 113.22 68.7696C112.545 66.8048 112.035 64.7897 111.696 62.7442C111.001 58.5912 111.001 54.356 111.696 50.203C112.034 48.1576 112.543 46.1425 113.216 44.1776C113.537 43.1971 113.933 42.2476 114.321 41.3019C114.535 40.8348 114.753 40.3716 114.967 39.9084C115.181 39.4452 115.434 39.0013 115.664 38.5458C116.611 36.7618 117.701 35.053 118.923 33.4352C123.608 27.223 130.074 22.5008 137.507 19.8634C139.253 19.2574 141.037 18.7635 142.849 18.3851C144.614 18.0231 146.403 17.7806 148.203 17.6594C151.646 17.4104 155.107 17.5998 158.499 18.2229C164.608 19.3435 170.363 21.8404 175.305 25.5145C179.37 28.547 182.806 32.3068 185.427 36.5927C188.66 41.8828 190.54 47.8538 190.908 54.0013C190.947 54.3873 190.951 54.7733 190.955 55.0705C190.959 55.3677 190.955 55.6379 190.955 55.8425C190.987 56.2517 190.987 56.464 190.987 56.464Z" fill="#E0E0E0"/>
<path d="M127.813 126.006C127.845 126.427 127.748 126.848 127.534 127.215C127.32 127.582 127 127.879 126.613 128.069C126.226 128.259 125.79 128.332 125.36 128.281C124.93 128.229 124.526 128.054 124.198 127.778C123.87 127.502 123.634 127.138 123.518 126.731C123.403 126.324 123.414 125.893 123.55 125.492C123.686 125.091 123.941 124.739 124.282 124.479C124.624 124.219 125.037 124.064 125.469 124.033C126.048 123.992 126.62 124.176 127.06 124.546C127.5 124.916 127.77 125.441 127.813 126.006Z" fill="#E0E0E0"/>
<path d="M129.726 137.435V151.513H126.498V153.443H129.726V163.093H190.036V154.292H185.57V152.362H190.036V149.494H192.016V148.224H189.684V137.455L129.726 137.435Z" fill="#F5F5F5"/>
<path d="M174.018 137.478V162.915H190.036V154.13H185.57V152.377L190.036 152.439V149.567L192.06 149.571L192.02 148.089L189.664 148.043V137.435L174.018 137.478Z" fill="#EBEBEB"/>
<path d="M175.345 153.532C175.345 153.651 164.431 153.752 150.975 153.752C137.519 153.752 126.597 153.651 126.597 153.532C126.597 153.412 137.511 153.312 150.975 153.312C164.439 153.312 175.345 153.408 175.345 153.532Z" fill="#E0E0E0"/>
<path d="M175.345 151.513C175.345 151.632 164.431 151.733 150.975 151.733C137.519 151.733 126.597 151.632 126.597 151.513C126.597 151.393 137.511 151.293 150.975 151.293C164.439 151.293 175.345 151.389 175.345 151.513Z" fill="#E0E0E0"/>
<path d="M178.291 142.048C178.291 142.168 167.377 142.268 153.921 142.268C140.465 142.268 129.543 142.168 129.543 142.048C129.543 141.928 140.457 141.828 153.921 141.828C167.385 141.828 178.291 141.913 178.291 142.048Z" fill="#E0E0E0"/>
<path d="M178.596 156.843C178.596 156.963 167.682 157.063 154.226 157.063C140.77 157.063 129.848 156.963 129.848 156.843C129.848 156.724 140.762 156.619 154.226 156.619C167.69 156.619 178.596 156.716 178.596 156.843Z" fill="#E0E0E0"/>
<path d="M192.614 163.074C192.614 163.128 150.524 163.174 98.608 163.174C46.6924 163.174 4.58964 163.128 4.58964 163.074C4.58964 163.019 46.6765 162.973 98.608 162.973C150.539 162.973 192.614 163.016 192.614 163.074Z" fill="#263238"/>
<path d="M145.673 151.698C145.673 151.698 154.305 148.722 162.305 151.698L160.776 154.4L146.476 154.937L145.684 151.725" fill="#C886D3"/>
<path d="M147.11 136.598H147.264C147.388 136.589 147.512 136.604 147.629 136.642C147.746 136.679 147.855 136.74 147.948 136.819C148.042 136.897 148.119 136.994 148.174 137.101C148.229 137.209 148.262 137.327 148.27 137.447L150.318 165.131L148.286 165.274L146.239 137.59C146.229 137.469 146.243 137.347 146.281 137.231C146.32 137.116 146.381 137.009 146.462 136.917C146.543 136.824 146.642 136.749 146.753 136.694C146.865 136.639 146.986 136.607 147.11 136.598Z" fill="#E0E0E0"/>
<path d="M147.11 136.598C146.912 136.624 146.727 136.706 146.575 136.833C146.396 136.99 146.287 137.209 146.271 137.443C146.271 137.717 146.318 138.045 146.342 138.412C146.457 139.886 146.627 142.006 146.833 144.623C147.229 149.892 147.779 157.164 148.389 165.254L148.278 165.162L149.367 165.084L150.31 165.019L150.215 165.127C149.625 156.998 149.094 149.687 148.714 144.391C148.532 141.755 148.385 139.624 148.282 138.138C148.282 137.955 148.27 137.781 148.247 137.617C148.249 137.467 148.226 137.319 148.179 137.177C148.093 136.956 147.92 136.777 147.7 136.679C147.564 136.618 147.414 136.589 147.264 136.594H147.11L147.264 136.571C147.416 136.562 147.568 136.587 147.708 136.644C147.943 136.742 148.13 136.926 148.227 137.157C148.28 137.305 148.308 137.46 148.31 137.617C148.31 137.779 148.338 137.953 148.353 138.138C148.472 139.62 148.639 141.751 148.848 144.383C149.244 149.679 149.799 156.99 150.432 165.115V165.216H150.33L149.387 165.281L148.298 165.359H148.195V165.258C147.609 157.152 147.082 149.888 146.702 144.623C146.52 142.002 146.377 139.883 146.274 138.404C146.255 138.037 146.219 137.717 146.223 137.428C146.246 137.18 146.368 136.951 146.564 136.791C146.678 136.697 146.814 136.63 146.96 136.598C147.009 136.59 147.06 136.59 147.11 136.598Z" fill="#263238"/>
<path d="M147.253 156.565L150.143 156.361L150.828 165.594C150.856 165.968 150.73 166.337 150.478 166.621C150.226 166.905 149.87 167.079 149.486 167.107C149.103 167.133 148.724 167.009 148.434 166.764C148.143 166.519 147.963 166.172 147.934 165.799L147.253 156.565Z" fill="#455A64"/>
<path d="M147.26 164.331L147.821 164.292L146.933 152.307L146.372 152.346L147.26 164.331Z" fill="#455A64"/>
<path d="M150.143 156.361C150.143 156.423 148.955 156.589 147.229 156.77L147.36 156.623C147.411 157.268 147.466 157.967 147.526 158.704C147.629 160.07 147.7 161.306 147.74 162.201C147.794 162.685 147.794 163.173 147.74 163.656C147.615 163.185 147.542 162.703 147.522 162.217C147.427 161.325 147.32 160.09 147.217 158.743C147.169 158.005 147.122 157.303 147.078 156.658V156.523H147.217C148.94 156.361 150.139 156.303 150.143 156.361Z" fill="#263238"/>
<path d="M152.397 137.323H150.361V159.708H152.397V137.323Z" fill="#E0E0E0"/>
<path d="M152.397 159.707C152.397 159.707 152.397 159.665 152.397 159.588C152.397 159.511 152.397 159.391 152.397 159.248C152.397 158.939 152.397 158.507 152.397 157.951C152.397 156.816 152.397 155.195 152.365 153.184C152.365 149.154 152.341 143.577 152.321 137.323L152.424 137.424H150.393C150.595 137.223 150.448 137.374 150.492 137.331V141.017C150.492 142.222 150.492 143.394 150.492 144.534C150.492 146.815 150.492 148.95 150.492 150.887C150.472 154.747 150.456 157.835 150.448 159.707L150.405 159.669L151.906 159.692H152.302H152.44C152.398 159.699 152.355 159.699 152.313 159.692H151.917L150.393 159.715H150.353V159.673C150.353 157.793 150.33 154.713 150.31 150.853C150.31 148.923 150.31 146.78 150.31 144.499C150.31 143.359 150.31 142.187 150.31 140.983C150.31 140.38 150.31 139.771 150.31 139.153V137.296C150.357 137.25 150.207 137.389 150.417 137.188H152.551V137.289C152.551 143.573 152.519 149.174 152.508 153.223C152.508 155.222 152.484 156.836 152.476 157.967C152.476 158.512 152.476 158.937 152.476 159.24V159.569C152.405 159.677 152.401 159.711 152.397 159.707Z" fill="#263238"/>
<path d="M152.789 146.07H149.89V136.806C149.89 136.431 150.043 136.072 150.314 135.807C150.586 135.542 150.955 135.393 151.339 135.393C151.53 135.393 151.718 135.43 151.894 135.501C152.07 135.572 152.23 135.676 152.364 135.807C152.499 135.938 152.606 136.094 152.678 136.265C152.751 136.437 152.789 136.621 152.789 136.806V146.07Z" fill="#455A64"/>
<path d="M153.351 138.323H152.789V150.339H153.351V138.323Z" fill="#455A64"/>
<path d="M149.89 146.07C149.89 146.008 151.078 145.927 152.824 145.866L152.686 146.005C152.686 145.36 152.686 144.657 152.686 143.916C152.686 142.55 152.686 141.311 152.729 140.415C152.713 139.929 152.75 139.442 152.84 138.964C152.93 139.442 152.968 139.929 152.951 140.415C152.979 141.311 152.999 142.55 152.999 143.916C152.999 144.657 152.999 145.36 152.999 146.005V146.143H152.86C151.094 146.159 149.89 146.132 149.89 146.07Z" fill="#263238"/>
<path d="M156.499 142.577H154.464V164.961H156.499V142.577Z" fill="#E0E0E0"/>
<path d="M156.499 164.961C156.496 164.921 156.496 164.881 156.499 164.841C156.499 164.757 156.499 164.645 156.499 164.502C156.499 164.193 156.499 163.757 156.499 163.205C156.499 162.07 156.479 160.449 156.468 158.438C156.468 154.408 156.44 148.83 156.424 142.577L156.527 142.677H154.491C154.697 142.477 154.547 142.627 154.594 142.585V146.271C154.594 147.475 154.594 148.647 154.594 149.787C154.594 152.065 154.594 154.203 154.594 156.141C154.594 160.001 154.559 163.089 154.547 164.961L154.507 164.923L156.004 164.946H156.4H156.543C156.501 164.952 156.458 164.952 156.416 164.946H156.02L154.499 164.969H154.44V164.926C154.44 163.047 154.412 159.966 154.392 156.106C154.392 154.176 154.392 152.03 154.392 149.753C154.392 148.614 154.392 147.437 154.392 146.236V142.55C154.44 142.504 154.29 142.643 154.495 142.442H156.634V142.542C156.634 148.826 156.602 154.427 156.59 158.476C156.59 160.476 156.567 162.089 156.559 163.22C156.559 163.765 156.559 164.189 156.559 164.494V164.822C156.503 164.93 156.499 164.965 156.499 164.961Z" fill="#263238"/>
<path d="M156.891 151.312H153.989V142.048C153.989 141.862 154.026 141.678 154.099 141.506C154.172 141.335 154.279 141.179 154.414 141.048C154.549 140.916 154.71 140.812 154.886 140.742C155.062 140.671 155.251 140.635 155.442 140.635C155.826 140.635 156.195 140.784 156.467 141.049C156.739 141.314 156.891 141.673 156.891 142.048V151.312Z" fill="#455A64"/>
<path d="M157.454 143.577H156.891V155.593H157.454V143.577Z" fill="#455A64"/>
<path d="M153.989 151.312C153.989 151.25 155.177 151.169 156.927 151.107L156.788 151.246C156.788 150.598 156.788 149.899 156.788 149.158C156.788 147.792 156.808 146.553 156.836 145.657C156.819 145.171 156.856 144.684 156.947 144.206C157.037 144.684 157.074 145.171 157.058 145.657C157.085 146.553 157.101 147.792 157.101 149.158C157.101 149.899 157.101 150.598 157.101 151.246V151.385H156.966C155.192 151.412 153.993 151.385 153.989 151.312Z" fill="#263238"/>
<path d="M160.364 136.505H158.329V158.889H160.364V136.505Z" fill="#E0E0E0"/>
<path d="M160.38 158.889C160.38 158.889 160.38 158.847 160.38 158.77C160.38 158.692 160.38 158.569 160.38 158.43C160.38 158.121 160.38 157.685 160.38 157.133C160.38 155.998 160.36 154.373 160.348 152.366C160.348 148.336 160.325 142.758 160.305 136.505L160.408 136.606H158.376L158.475 136.509V140.195C158.475 141.4 158.475 142.577 158.475 143.716C158.475 145.993 158.475 148.128 158.475 150.069C158.455 153.929 158.44 157.017 158.432 158.889L158.388 158.851L159.889 158.874H160.285H160.424C160.381 158.878 160.339 158.878 160.297 158.874H159.901L158.376 158.897H158.337V158.858C158.337 156.975 158.313 153.898 158.293 150.038C158.293 148.108 158.293 145.962 158.293 143.685V140.195C158.293 139.593 158.293 138.983 158.293 138.37V136.509L158.4 136.405H160.534V136.505C160.534 142.785 160.503 148.39 160.491 152.439C160.491 154.439 160.467 156.052 160.459 157.179C160.459 157.724 160.459 158.152 160.459 158.457V158.781C160.438 158.82 160.411 158.857 160.38 158.889Z" fill="#263238"/>
<path d="M160.776 145.248H157.877V135.984C157.877 135.798 157.914 135.614 157.986 135.442C158.059 135.27 158.166 135.114 158.3 134.983C158.435 134.851 158.595 134.747 158.771 134.675C158.947 134.604 159.136 134.567 159.327 134.567C159.517 134.567 159.706 134.604 159.882 134.675C160.058 134.747 160.218 134.851 160.353 134.983C160.488 135.114 160.594 135.27 160.667 135.442C160.739 135.614 160.777 135.798 160.776 135.984V145.248Z" fill="#455A64"/>
<path d="M161.319 137.505H160.756V149.521H161.319V137.505Z" fill="#455A64"/>
<path d="M157.857 145.248C157.857 145.186 159.045 145.109 160.792 145.047L160.653 145.186C160.653 144.538 160.653 143.835 160.653 143.098C160.653 141.728 160.673 140.493 160.701 139.593C160.685 139.107 160.722 138.62 160.812 138.142C160.902 138.62 160.939 139.107 160.923 139.593C160.95 140.493 160.97 141.728 160.97 143.098C160.97 143.835 160.97 144.538 160.97 145.186V145.321H160.831C159.057 145.337 157.857 145.31 157.857 145.248Z" fill="#263238"/>
<path d="M160.435 170.288C156.123 172.272 151.771 172.241 147.391 170.288L145.673 151.698C150.924 153.196 156.495 153.053 162.305 151.698L160.435 170.288Z" fill="#C886D3"/>
<path d="M162.309 151.586C162.109 151.678 161.901 151.752 161.687 151.806C161.291 151.937 160.689 152.1 159.952 152.269C159.216 152.439 158.321 152.601 157.323 152.733C156.24 152.864 155.151 152.936 154.06 152.949C152.97 152.954 151.881 152.901 150.797 152.79C149.911 152.696 149.031 152.557 148.159 152.374C147.419 152.219 146.821 152.069 146.417 151.945C146.204 151.891 145.994 151.821 145.791 151.737C146.01 151.762 146.226 151.806 146.437 151.868C146.833 151.968 147.447 152.096 148.187 152.235C148.928 152.374 149.823 152.505 150.817 152.621C152.973 152.83 155.147 152.811 157.299 152.563C158.293 152.443 159.18 152.3 159.921 152.146C160.661 151.991 161.255 151.856 161.663 151.76C161.873 151.685 162.089 151.627 162.309 151.586Z" fill="#263238"/>
<path d="M91.2305 169.454L58.1011 170.315L91.2305 183.439L126.859 181.385L91.2305 169.454Z" fill="#E0E0E0"/>
<path d="M81.7859 168.153L48.6605 169.01L81.7859 182.134L117.418 180.081L81.7859 168.153Z" fill="#F5F5F5"/>
<path d="M50.8226 164.737L83.948 177.861V180.247L50.8226 166.663V164.737Z" fill="#E0E0E0"/>
<path d="M83.948 180.247L119.576 178.027V175.812L83.948 177.861V180.247Z" fill="#EBEBEB"/>
<path d="M83.948 163.88L50.8226 164.737L83.948 177.861L119.576 175.807L83.948 163.88Z" fill="white"/>
<path d="M83.952 163.88C83.952 163.88 84.0074 163.88 84.1183 163.927L84.6133 164.085L86.53 164.714L93.7926 167.138L119.592 175.727C119.614 175.734 119.633 175.751 119.643 175.771C119.654 175.792 119.655 175.816 119.647 175.838C119.642 175.855 119.632 175.87 119.618 175.88C119.603 175.891 119.586 175.896 119.568 175.896L86.1736 177.826L83.952 177.946C83.9377 177.949 83.9227 177.949 83.9084 177.946L50.791 164.822C50.7693 164.813 50.7518 164.797 50.7422 164.776C50.7326 164.755 50.7316 164.732 50.7395 164.71C50.7471 164.695 50.7584 164.683 50.7722 164.673C50.786 164.664 50.802 164.658 50.8187 164.656L74.8717 164.05L81.58 163.899L83.3461 163.865H83.952L83.3461 163.892L81.576 163.95L74.844 164.147L50.8226 164.822L50.8543 164.66L83.9876 177.784H83.9401L86.1775 177.657L119.592 175.723L119.568 175.893L93.7728 167.223L86.5181 164.768L84.6054 164.116L84.1144 163.942L83.952 163.88Z" fill="#263238"/>
<path d="M83.9243 180.335C83.787 179.528 83.787 178.703 83.9243 177.896C84.0616 178.703 84.0616 179.528 83.9243 180.335Z" fill="#263238"/>
<path d="M106.694 173.314C106.694 173.372 101.293 173.731 94.6282 174.121C87.9635 174.511 82.5502 174.781 82.5462 174.727C82.5422 174.673 87.9437 174.31 94.6163 173.92C101.289 173.53 106.69 173.275 106.694 173.314Z" fill="#263238"/>
<path d="M103.182 172.009C103.182 172.067 97.7803 172.426 91.1117 172.816C84.4431 173.206 79.0377 173.476 79.0337 173.418C79.0297 173.36 84.4312 173.005 91.0998 172.615C97.7685 172.225 103.178 171.955 103.182 172.009Z" fill="#263238"/>
<path d="M99.6692 170.689C99.6692 170.743 94.2678 171.106 87.5992 171.492C80.9305 171.878 75.5212 172.152 75.5172 172.098C75.5132 172.044 80.9186 171.681 87.5873 171.291C94.2559 170.902 99.6653 170.631 99.6692 170.689Z" fill="#263238"/>
<path d="M95.5825 169.369C95.5825 169.423 90.1811 169.782 83.5124 170.172C76.8438 170.562 71.4344 170.832 71.4305 170.778C71.4265 170.724 76.8319 170.361 83.5006 169.971C90.1692 169.581 95.5786 169.311 95.5825 169.369Z" fill="#263238"/>
<path d="M92.0779 168.045C92.0779 168.103 86.6765 168.462 80.0078 168.852C73.3392 169.242 67.9298 169.512 67.9298 169.454C67.9298 169.396 73.3273 169.041 79.996 168.651C86.6646 168.261 92.074 167.991 92.0779 168.045Z" fill="#263238"/>
<path d="M87.7932 166.702C87.7932 166.756 82.3957 167.119 75.7271 167.505C69.0584 167.891 63.6491 168.165 63.6451 168.111C63.6412 168.057 69.0426 167.694 75.7152 167.304C82.3878 166.914 87.7892 166.644 87.7932 166.702Z" fill="#263238"/>
<path d="M83.5124 166.239L81.8572 165.393L82.669 164.679L83.5124 166.239Z" fill="#263238"/>
<path d="M79.6079 164.382L81.5483 162.699L82.6848 164.745L81.8572 165.393L79.6079 164.382Z" fill="white"/>
<path d="M46.9775 107.169L58.0378 103.575L64.1995 98.5032L65.5301 100.557L70.6979 99.4025L85.3222 103.108L87.6823 107.173L100.164 110.504L100.224 127.569L97.9546 158.793L98.2872 163.756H38.5585L37.5725 143.017L37.5289 130.113L46.9775 107.169Z" fill="#C886D3"/>
<path d="M78.5664 154.855L91.476 154.246C91.476 154.246 93.9787 155.635 94.644 159.623C95.3093 163.61 94.644 163.606 94.644 163.606L88.1496 165.745L74.3728 165.436L69.3752 159.318L73.1412 157.152L78.5664 154.855Z" fill="#AE7461"/>
<path d="M33.9649 150.254C33.9649 150.254 46.332 131.248 44.2609 133.996C44.0075 134.336 45.5202 132.907 47.4685 128.248C49.3376 123.771 54.2005 104.98 54.2005 104.98L43.0571 107.864C40.1267 108.636 37.7388 108.867 35.2163 110.504C33.0145 111.928 30.7217 114.723 29.2288 116.846C23.6848 124.755 13.4838 140.156 12.2008 142.125C10.3633 144.935 6.65676 152.188 6.68844 156.519C6.72408 160.29 7.48044 163.652 13.3848 166.655C18.8338 169.427 53.6659 167.497 53.6659 167.497L53.46 153.381L33.9649 150.254Z" fill="#C886D3"/>
<path d="M134.684 146.634C134.173 145.391 114.697 124.4 104.916 114.684C103.446 113.173 101.857 111.775 100.164 110.504L96.9408 130.962C96.9408 130.962 98.0496 135.679 98.7228 139.168C98.8693 139.921 108.983 146.63 108.983 146.63L111.149 147.981L91.377 153.076L92.2046 165.32L127.603 164.436C132.201 162.703 139.519 158.379 134.684 146.634Z" fill="#C886D3"/>
<path d="M127.603 164.436H127.425L126.898 164.455L124.871 164.525L117.366 164.748L92.2086 165.424H92.1175V165.331C92.0383 164.173 91.9591 162.969 91.8759 161.738C91.674 158.75 91.4799 155.84 91.2938 153.087V153.006L91.373 152.987C93.4916 152.562 95.5191 152.03 97.4595 151.516L103.004 150.019C106.516 149.069 109.644 148.262 112.282 147.703C114.338 147.242 116.423 146.912 118.523 146.715C119.259 146.637 119.834 146.637 120.218 146.63H120.808H120.657L120.222 146.653C119.826 146.653 119.263 146.68 118.531 146.769C116.437 146.989 114.359 147.337 112.31 147.811C109.68 148.382 106.556 149.197 103.047 150.158L97.5031 151.671C95.5627 152.188 93.5431 152.725 91.4087 153.157L91.4839 153.057C91.674 155.813 91.8799 158.719 92.07 161.707C92.1531 162.938 92.2363 164.158 92.3115 165.3L92.2125 165.212L117.37 164.598L124.894 164.436L126.922 164.401H127.627L127.603 164.436Z" fill="#263238"/>
<path d="M81.1246 159.943C81.0467 159.78 80.9283 159.638 80.78 159.53L78.6852 157.708L77.4695 161.236C77.7255 161.426 78.0174 161.565 78.3286 161.645C78.6398 161.725 78.9642 161.745 79.2831 161.703C79.602 161.66 79.9092 161.557 80.1872 161.399C80.4651 161.241 80.7083 161.031 80.9028 160.781C81.009 160.67 81.085 160.536 81.1238 160.389C81.1625 160.243 81.1628 160.089 81.1246 159.943Z" fill="#6F4439"/>
<path d="M52.9848 140.268L79.596 164.382L82.1106 165.54L83.5006 166.235L82.8511 165.077L81.5364 162.707L54.5965 138.574C54.3768 138.375 54.0883 138.265 53.7887 138.265C53.4891 138.265 53.2005 138.375 52.9808 138.574C52.8618 138.682 52.7669 138.814 52.7022 138.96C52.6375 139.106 52.6043 139.263 52.6046 139.422C52.605 139.581 52.639 139.738 52.7044 139.884C52.7698 140.029 52.8652 140.16 52.9848 140.268Z" fill="#455A64"/>
<path d="M53.4798 153.825L55.5667 154.188C55.5667 154.188 66.3815 150.297 67.9259 150.1C69.1139 149.949 74.8084 151.258 77.3309 151.852C77.8281 151.963 78.2706 152.238 78.5832 152.63C78.8959 153.023 79.0592 153.509 79.0456 154.006C79.0475 154.022 79.0475 154.037 79.0456 154.053C79.0133 154.455 78.866 154.84 78.6203 155.165C78.3746 155.49 78.0404 155.741 77.6556 155.89C77.6556 155.89 79.7782 156.534 78.8159 158.723C78.107 160.34 75.8657 160.093 75.8657 160.093L72.1235 160.163C72.1235 160.163 73.0778 160.441 74.4995 160.769C76.0439 161.12 76.4557 161.394 76.4557 161.394C76.4557 161.394 78.7129 163.51 76.531 164.393C75.8165 164.709 75.0316 164.841 74.25 164.779C74.25 164.779 74.9034 167.053 73.157 167.447C71.4107 167.84 59.8712 166.984 59.8712 166.984C59.8712 166.984 59.2614 166.652 56.9092 166.455L53.654 166.235L53.4798 153.825Z" fill="#AE7461"/>
<path d="M53.4798 153.825C53.4798 153.825 53.4798 153.902 53.4798 154.049C53.4798 154.195 53.4798 154.435 53.4798 154.693C53.4798 155.264 53.5115 156.091 53.5313 157.16C53.5748 159.298 53.6342 162.394 53.7095 166.235L53.6422 166.169L56.632 166.366C57.1547 166.401 57.6932 166.455 58.2397 166.532C58.8057 166.594 59.3616 166.723 59.895 166.918H59.8633C62.271 167.088 64.8925 167.254 67.6764 167.373C69.0664 167.431 70.4959 167.485 71.9611 167.462C72.3243 167.457 72.6868 167.429 73.0462 167.377C73.3942 167.325 73.7088 167.146 73.9253 166.875C74.1313 166.586 74.2443 166.243 74.25 165.891C74.2685 165.53 74.2311 165.168 74.1391 164.818L74.1074 164.683H74.25C74.7347 164.721 75.2225 164.677 75.6914 164.552C76.1766 164.455 76.6337 164.255 77.0299 163.965C77.2032 163.801 77.3173 163.587 77.3551 163.354C77.393 163.122 77.3525 162.884 77.2398 162.676C77.0327 162.219 76.7384 161.805 76.3726 161.456C75.7974 161.198 75.1943 161.004 74.5747 160.877L72.0522 160.236L71.3592 160.062H72.076L75.8182 159.993C76.3274 160.035 76.8402 159.979 77.3269 159.827C77.81 159.687 78.2294 159.39 78.5149 158.986C78.5822 158.889 78.6298 158.777 78.6892 158.673L78.8159 158.329C78.8515 158.214 78.8713 158.098 78.899 157.982C78.9268 157.866 78.9228 157.743 78.9268 157.627C78.9215 157.394 78.8663 157.165 78.7647 156.954C78.6631 156.743 78.5173 156.556 78.3367 156.403C78.1553 156.246 77.9511 156.116 77.7308 156.017L77.6516 155.982H77.6081H77.5883C77.5883 156.137 77.5685 155.774 77.5883 155.809L77.7506 155.735C77.8554 155.682 77.9561 155.622 78.0516 155.554C78.4338 155.285 78.7126 154.899 78.8436 154.458C78.9669 154.023 78.9348 153.56 78.7525 153.145C78.5698 152.74 78.259 152.402 77.8655 152.18C77.4581 151.991 77.0245 151.861 76.5785 151.794L75.2598 151.486C74.3886 151.289 73.5332 151.1 72.7016 150.926C71.87 150.752 71.0503 150.586 70.2504 150.447C69.8544 150.378 69.4584 150.316 69.0624 150.266C68.6842 150.205 68.301 150.181 67.918 150.192C67.1978 150.34 66.4877 150.531 65.7914 150.764C65.1103 150.972 64.453 151.188 63.8114 151.393L60.3544 152.551L55.5232 154.23L53.959 153.94L53.563 153.867L53.4323 153.84H53.555L53.951 153.902L55.535 154.161C56.6359 153.755 58.2714 153.165 60.3504 152.435C61.3919 152.049 62.5442 151.663 63.8035 151.25C64.4292 151.042 65.0866 150.822 65.7835 150.609C66.4882 150.371 67.2077 150.176 67.9378 150.026C68.335 150.009 68.7331 150.031 69.1258 150.092C69.5218 150.142 69.9178 150.204 70.3138 150.273C71.1058 150.409 71.9334 150.567 72.769 150.744C73.6045 150.922 74.4599 151.103 75.3311 151.3L76.6537 151.601L77.323 151.76C77.5572 151.815 77.7824 151.902 77.9922 152.018C78.4184 152.262 78.7562 152.629 78.9584 153.068C79.1572 153.519 79.1921 154.023 79.0574 154.496C78.9173 154.977 78.6162 155.398 78.2021 155.693C78.0978 155.767 77.988 155.832 77.8734 155.89C77.818 155.921 77.7586 155.944 77.6992 155.971C77.6992 156.009 77.6992 155.647 77.6992 155.801H77.7229H77.7704L77.8576 155.836C78.0939 155.932 78.3142 156.062 78.511 156.222C78.7094 156.392 78.8721 156.597 78.9901 156.828C79.1018 157.064 79.1625 157.32 79.1683 157.58C79.1683 157.708 79.1683 157.839 79.1406 157.966C79.1129 158.094 79.0891 158.217 79.0495 158.352L78.9188 158.715C78.8555 158.831 78.8 158.951 78.7288 159.059C78.4235 159.497 77.9735 159.82 77.4536 159.974C76.9432 160.136 76.4045 160.196 75.8696 160.151L72.1274 160.225L72.1552 160.035L74.6698 160.672C75.3127 160.801 75.9376 161.005 76.531 161.278C76.9184 161.646 77.2291 162.084 77.4457 162.568C77.5544 162.81 77.598 163.076 77.5724 163.34C77.5351 163.616 77.394 163.869 77.1764 164.05C76.7553 164.361 76.2683 164.578 75.7508 164.683C75.2561 164.815 74.7413 164.861 74.2302 164.818L74.3411 164.698C74.4364 165.069 74.4751 165.451 74.4559 165.833C74.4472 166.221 74.3204 166.597 74.0916 166.914C73.8455 167.222 73.4889 167.427 73.0937 167.489C72.7241 167.544 72.3508 167.572 71.977 167.574C70.5038 167.601 69.0703 167.539 67.6764 167.481C64.9044 167.354 62.275 167.18 59.8594 167.007H59.8356C59.3247 166.818 58.7932 166.689 58.2516 166.621C57.7091 166.543 57.1784 166.485 56.6676 166.451L53.6818 166.242H53.6184V166.181C53.5748 162.321 53.5432 159.209 53.5194 157.056C53.5194 155.998 53.5194 155.172 53.5194 154.608C53.5194 154.334 53.5194 154.126 53.5194 153.975C53.5194 153.825 53.4798 153.825 53.4798 153.825Z" fill="#6F4439"/>
<path d="M77.4695 155.89C76.478 155.898 75.4871 155.841 74.5035 155.72C73.513 155.664 72.5275 155.544 71.5533 155.361C72.5447 155.353 73.5356 155.41 74.5193 155.531C75.5095 155.589 76.4949 155.709 77.4695 155.89Z" fill="#6F4439"/>
<path d="M65.7954 166.239C65.7954 166.258 65.6251 166.2 65.443 166.015C65.2015 165.763 65.0609 165.436 65.047 165.092C65.0339 164.75 65.1494 164.415 65.3717 164.15C65.542 163.95 65.6964 163.88 65.7083 163.899C65.7202 163.919 65.6132 164.027 65.4865 164.227C65.3223 164.486 65.2384 164.785 65.245 165.088C65.2602 165.391 65.3662 165.682 65.5499 165.926C65.6885 166.119 65.8112 166.211 65.7954 166.239Z" fill="#6F4439"/>
<path d="M65.6212 162.421C65.6212 162.444 65.4192 162.421 65.1618 162.259C64.9959 162.146 64.8569 161.999 64.7543 161.829C64.6517 161.659 64.5879 161.469 64.5672 161.273C64.5466 161.077 64.5695 160.878 64.6345 160.692C64.6996 160.505 64.8051 160.334 64.944 160.19C65.1578 159.97 65.34 159.916 65.34 159.935C65.34 159.955 65.1974 160.055 65.0311 160.275C64.8137 160.559 64.7108 160.91 64.742 161.263C64.7887 161.614 64.9681 161.934 65.245 162.162C65.4588 162.332 65.633 162.39 65.6212 162.421Z" fill="#6F4439"/>
<path d="M65.5538 157.978C65.5538 157.997 65.3558 157.889 65.1578 157.611C64.9136 157.242 64.819 156.798 64.8925 156.365C64.9719 155.93 65.2166 155.542 65.5776 155.276C65.8508 155.075 66.0607 155.041 66.0686 155.06C66.0766 155.079 65.8944 155.172 65.6726 155.38C65.3669 155.645 65.1615 156.002 65.0897 156.394C65.0178 156.786 65.0837 157.191 65.2766 157.542C65.4311 157.816 65.5776 157.955 65.5538 157.978Z" fill="#6F4439"/>
<path d="M66.924 152.277C66.924 152.277 66.821 152.231 66.7498 152.084C66.6652 151.887 66.6512 151.669 66.7102 151.463C66.7691 151.258 66.8975 151.078 67.0745 150.953C67.217 150.864 67.324 150.857 67.3319 150.876C67.3398 150.895 67.0111 151.1 66.9002 151.517C66.8529 151.769 66.861 152.028 66.924 152.277Z" fill="#6F4439"/>
<path d="M72.4126 160.093C71.8798 160.176 71.3389 160.198 70.8008 160.159C70.2604 160.182 69.7192 160.14 69.1891 160.035C69.7214 159.948 70.2627 159.924 70.8008 159.966C71.3414 159.943 71.8828 159.986 72.4126 160.093Z" fill="#6F4439"/>
<path d="M74.1629 164.783C73.1794 164.68 72.2043 164.511 71.2444 164.278C70.2704 164.106 69.3088 163.874 68.3654 163.583C69.3476 163.687 70.3214 163.855 71.28 164.088C72.2554 164.259 73.2184 164.491 74.1629 164.783Z" fill="#6F4439"/>
<path d="M45.3935 130.545C45.405 130.463 45.4263 130.383 45.4568 130.306C45.5004 130.147 45.5954 129.92 45.6707 129.626C45.9152 128.79 46.0939 127.937 46.2053 127.075C46.3795 125.796 46.4365 124.504 46.3756 123.215C46.3115 121.643 46.0372 120.086 45.5598 118.583C45.0537 117.086 44.2699 115.693 43.2472 114.472C42.4104 113.476 41.411 112.622 40.289 111.944C39.5305 111.488 38.7249 111.111 37.8853 110.82C37.5923 110.705 37.3507 110.651 37.1963 110.597C37.1133 110.574 37.0325 110.544 36.9547 110.508C37.0395 110.515 37.1232 110.532 37.2042 110.558C37.3666 110.6 37.6002 110.647 37.9091 110.751C38.7659 111.015 39.5885 111.375 40.3603 111.824C41.5077 112.496 42.5305 113.352 43.3858 114.356C44.4372 115.588 45.243 117.001 45.7618 118.521C46.2408 120.044 46.5072 121.623 46.5538 123.215C46.6079 124.513 46.5363 125.813 46.3399 127.098C46.2141 127.965 46.0141 128.819 45.742 129.653C45.6509 129.951 45.5479 130.167 45.4925 130.321C45.4651 130.398 45.432 130.473 45.3935 130.545Z" fill="#263238"/>
<path d="M100.188 126.994C100.193 127.076 100.193 127.159 100.188 127.241C100.188 127.422 100.188 127.658 100.16 127.951C100.121 128.588 100.073 129.468 100.01 130.549C99.8633 132.765 99.6653 135.783 99.4435 139.122C99.2218 142.461 98.9802 145.476 98.8178 147.691L98.608 150.285C98.5802 150.575 98.5565 150.81 98.5406 150.992C98.5335 151.073 98.5216 151.154 98.505 151.235C98.4954 151.153 98.4954 151.07 98.505 150.988C98.505 150.806 98.505 150.571 98.5367 150.281C98.5723 149.644 98.6238 148.76 98.6832 147.68C98.8297 145.468 99.0277 142.445 99.2495 139.11C99.4712 135.775 99.7128 132.753 99.8752 130.541L100.085 127.947C100.113 127.654 100.137 127.422 100.152 127.241C100.155 127.158 100.167 127.075 100.188 126.994Z" fill="#263238"/>
<path d="M77.0735 123.153C77.0254 123.124 76.9815 123.089 76.9428 123.049L76.5824 122.725L75.236 121.478L73.165 119.517C72.373 118.745 71.4701 117.896 70.5395 116.904L70.686 116.869C70.2464 118.722 69.7514 120.814 69.2248 123.045L69.1693 123.281L69.0466 123.072C68.4922 122.146 67.9259 121.177 67.3556 120.185C64.7856 115.703 62.572 111.589 60.9127 108.64L58.9327 105.166L58.406 104.22L58.2674 103.973C58.2397 103.915 58.2239 103.888 58.2278 103.884C58.2504 103.908 58.2703 103.934 58.2872 103.961L58.4377 104.201L59.008 105.131C59.499 105.941 60.196 107.123 61.0355 108.605C62.7264 111.538 64.9598 115.642 67.5259 120.123C68.0962 121.115 68.6624 122.08 69.2129 123.006L69.0347 123.033C69.5732 120.802 70.0762 118.714 70.5197 116.857L70.5593 116.703L70.6662 116.823C71.581 117.811 72.4799 118.676 73.26 119.451L75.3034 121.439L76.6181 122.717L76.9586 123.057C76.9996 123.086 77.038 123.118 77.0735 123.153Z" fill="#263238"/>
<path d="M77.8219 122.671C77.8219 122.671 77.9249 122.524 78.1229 122.262L78.9782 121.127C79.7069 120.142 80.7246 118.737 81.9047 117.058L81.972 116.958L82.0472 117.043C82.5729 117.624 83.1671 118.142 83.8174 118.587C84.4945 119.058 85.243 119.494 85.9795 119.996L85.8291 120.054L85.8607 119.919C86.6527 116.722 87.3576 113.831 87.6784 111.704C87.8447 110.643 87.9477 109.774 88.0071 109.18C88.0348 108.894 88.0585 108.667 88.0744 108.489C88.0784 108.408 88.0917 108.328 88.114 108.25C88.1218 108.331 88.1218 108.412 88.114 108.493C88.114 108.651 88.114 108.879 88.0823 109.184C88.0466 109.786 87.9674 110.655 87.817 111.724C87.5318 113.866 86.8428 116.773 86.0508 119.961C86.0426 120.007 86.032 120.052 86.0191 120.096L85.9874 120.235L85.8686 120.154C85.136 119.656 84.3876 119.216 83.7025 118.737C83.0446 118.284 82.4438 117.757 81.9126 117.166H82.0512C80.8632 118.838 79.8178 120.227 79.0654 121.196C78.6892 121.679 78.3842 122.053 78.1704 122.304C78.0635 122.431 77.9764 122.524 77.917 122.59C77.8576 122.655 77.8259 122.675 77.8219 122.671Z" fill="#263238"/>
<path d="M76.6616 151.069C76.6514 150.974 76.6514 150.878 76.6616 150.783C76.6616 150.579 76.6616 150.308 76.6616 149.969C76.6616 149.243 76.7012 148.228 76.725 146.981C76.7765 144.437 76.8398 140.956 76.9151 137.111C76.9903 133.267 76.9903 129.777 77.018 127.241C77.018 125.994 77.0378 124.979 77.0418 124.25C77.0418 123.914 77.0418 123.644 77.0418 123.439C77.0306 123.344 77.0306 123.248 77.0418 123.153C77.0544 123.248 77.061 123.343 77.0616 123.439C77.0616 123.64 77.0616 123.914 77.0853 124.25C77.0853 124.979 77.0853 125.994 77.121 127.241C77.121 129.769 77.121 133.259 77.0774 137.115C77.0339 140.971 76.923 144.449 76.8279 146.985C76.7765 148.232 76.7329 149.247 76.7052 149.973L76.6577 150.787C76.6657 150.881 76.667 150.975 76.6616 151.069Z" fill="#263238"/>
<path d="M53.6659 167.497C53.6535 167.405 53.6469 167.312 53.6461 167.219C53.6461 167.022 53.6461 166.756 53.6184 166.42C53.5986 165.706 53.5748 164.698 53.5471 163.448C53.5036 160.908 53.4442 157.384 53.3768 153.381L53.46 153.473L50.5058 152.995L38.3209 150.98L34.6302 150.347L33.6283 150.154L33.367 150.1L33.2798 150.077C33.3099 150.071 33.3409 150.071 33.3709 150.077L33.6362 150.111L34.6421 150.258L38.3407 150.829L50.5336 152.79L53.4877 153.273H53.5709V153.354C53.6144 157.357 53.6501 160.877 53.6738 163.421C53.6738 164.671 53.6738 165.679 53.6738 166.393C53.6738 166.729 53.6738 166.995 53.6738 167.192C53.6824 167.294 53.6798 167.396 53.6659 167.497Z" fill="#263238"/>
<path d="M33.9649 150.254C33.9649 150.293 33.3036 150.335 32.2621 150.579C31.6597 150.721 31.0682 150.904 30.492 151.127C29.7834 151.409 29.0977 151.743 28.4407 152.126C27.7919 152.523 27.175 152.967 26.5954 153.454C26.126 153.858 25.6867 154.294 25.2806 154.759C24.5876 155.554 24.2431 156.114 24.2114 156.091C24.271 155.955 24.3454 155.825 24.4332 155.705C24.5244 155.55 24.6249 155.4 24.7342 155.257C24.8609 155.087 24.9955 154.871 25.1737 154.686C25.5701 154.204 26.0044 153.754 26.4726 153.338C27.0531 152.834 27.6771 152.38 28.3378 151.98C29.0017 151.587 29.7001 151.252 30.4247 150.98C31.0186 150.761 31.629 150.587 32.2502 150.459C32.5116 150.397 32.7571 150.37 32.967 150.339C33.1492 150.31 33.333 150.29 33.5174 150.281C33.6654 150.258 33.8152 150.249 33.9649 150.254Z" fill="#263238"/>
<path d="M44.249 133.996C44.2299 134.059 44.2005 134.119 44.1619 134.173L43.8768 134.656C43.6075 135.096 43.2472 135.69 42.8036 136.412C41.8889 137.894 40.6098 139.933 39.1921 142.175C37.7744 144.418 36.4756 146.448 35.5291 147.911L34.4005 149.637L34.0877 150.1C34.0529 150.156 34.0117 150.207 33.9649 150.254C33.9649 150.254 33.9887 150.192 34.052 150.08L34.3372 149.594C34.6064 149.158 34.9708 148.563 35.4103 147.838C36.3251 146.359 37.6042 144.321 39.0218 142.075C40.4395 139.828 41.7384 137.806 42.6848 136.343L43.8134 134.617L44.1263 134.154C44.1619 134.098 44.203 134.045 44.249 133.996Z" fill="#263238"/>
<g opacity="0.3">
<path d="M37.8497 148.838C42.071 145.337 44.6332 139.273 44.1857 133.892L37.6477 144.561L37.8497 148.838Z" fill="black"/>
</g>
<g opacity="0.3">
<path d="M60.7702 108.25L68.7021 125.739L71.5532 120.525L75.9053 122.049L70.6028 116.85L69.1297 123.022L60.7702 108.25Z" fill="black"/>
</g>
<g opacity="0.3">
<path d="M110.88 148.012C114.266 146.267 117.45 144.924 121.263 145.259C121.786 145.287 122.302 145.387 122.796 145.557C122.971 145.683 123.117 145.844 123.223 146.03C123.329 146.216 123.393 146.422 123.409 146.634C119.3 146.485 115.191 146.931 111.217 147.958" fill="black"/>
</g>
<g opacity="0.3">
<path d="M100.338 124.828C100.338 125.114 99.3445 139.523 99.3247 139.809C101.827 135.054 102.639 129.696 100.338 124.828Z" fill="black"/>
</g>
<path d="M78.3446 54.1596C78.8717 53.4806 79.6022 52.9781 80.4351 52.7215C81.268 52.465 82.1621 52.4671 82.9937 52.7275C84.1259 52.1313 85.4302 51.9214 86.6989 52.1312C87.9677 52.3411 89.1279 52.9586 89.995 53.8855C90.8171 53.5666 91.7098 53.4595 92.5868 53.5748C93.4637 53.6901 94.2954 54.0238 95.0015 54.5437C95.7076 55.0636 96.2643 55.7522 96.6179 56.5429C96.9715 57.3336 97.11 58.1998 97.02 59.0579C97.9197 59.0508 98.7988 59.32 99.5327 59.8271C100.267 60.3343 100.818 61.0539 101.109 61.8837C101.4 62.7136 101.416 63.6116 101.154 64.4506C100.892 65.2895 100.365 66.0268 99.6494 66.5579C100.563 67.0022 101.274 67.7614 101.646 68.6882C102.018 69.6149 102.023 70.6432 101.661 71.5736C101.299 72.504 100.595 73.2701 99.6866 73.7234C98.7778 74.1768 97.7287 74.2849 96.7428 74.027L78.408 58.9112C77.8935 58.2233 77.611 57.3965 77.5997 56.5453C77.5883 55.694 77.8487 54.8603 78.3446 54.1596Z" fill="#263238"/>
<path d="M82.4155 56.6492L81.5206 56.518C71.7869 55.6534 65.5974 63.2305 64.9796 72.73L61.9344 100.746L77.5883 121.088L82.6333 113.87L84.2173 105.428C84.2173 105.428 93.7213 105.382 95.2142 96.3571C95.9429 91.9991 96.6913 82.9088 97.2734 74.6716C97.5784 70.3962 96.218 66.166 93.4639 62.8253C90.7098 59.4846 86.7645 57.2792 82.4155 56.6492Z" fill="#AE7461"/>
<path d="M84.1817 105.428C84.1817 105.428 78.3011 104.896 72.6581 100.171C72.6581 100.171 74.4916 107.119 83.7817 107.663L84.1817 105.428Z" fill="#6F4439"/>
<path d="M92.664 83.7618C92.6156 84.0988 92.4341 84.404 92.1582 84.6124C91.8823 84.8208 91.5337 84.9159 91.1869 84.8774C91.0161 84.8658 90.8493 84.8209 90.6966 84.7455C90.5438 84.6701 90.408 84.5657 90.2973 84.4383C90.1866 84.311 90.1032 84.1633 90.0519 84.004C90.0007 83.8448 89.9826 83.6771 89.9989 83.5109C90.0519 83.1772 90.2352 82.8764 90.5105 82.6714C90.7858 82.4663 91.1317 82.373 91.476 82.4108C91.6454 82.4225 91.8107 82.4669 91.9623 82.5413C92.114 82.6157 92.249 82.7188 92.3595 82.8444C92.47 82.9701 92.5538 83.1159 92.6061 83.2734C92.6584 83.4309 92.678 83.5969 92.664 83.7618Z" fill="#263238"/>
<path d="M94.6123 79.2651C94.4222 79.4079 93.5312 78.5394 92.1056 78.3348C90.68 78.1302 89.5277 78.6706 89.397 78.4776C89.3336 78.3927 89.5475 78.1109 90.0544 77.8562C90.7345 77.5278 91.5028 77.4145 92.2522 77.5319C92.9986 77.6363 93.6918 77.9688 94.2322 78.4815C94.6044 78.8752 94.7034 79.1994 94.6123 79.2651Z" fill="#263238"/>
<path d="M80.5939 82.2179C80.5456 82.5548 80.3641 82.8601 80.0881 83.0685C79.8122 83.2769 79.4637 83.3719 79.1168 83.3334C78.9462 83.3223 78.7795 83.2779 78.6268 83.2029C78.474 83.1279 78.3382 83.0239 78.2275 82.8968C78.1167 82.7698 78.0332 82.6224 77.9819 82.4633C77.9306 82.3043 77.9126 82.1368 77.9288 81.9708C77.9772 81.6336 78.1586 81.328 78.4344 81.119C78.7102 80.91 79.0587 80.814 79.4059 80.8514C79.5769 80.8625 79.7439 80.907 79.897 80.9822C80.05 81.0575 80.186 81.1619 80.2968 81.2894C80.4076 81.4169 80.491 81.5647 80.5421 81.7242C80.5931 81.8837 80.6107 82.0516 80.5939 82.2179Z" fill="#263238"/>
<path d="M81.0058 77.0763C80.8157 77.2192 79.9247 76.3507 78.4991 76.1461C77.0735 75.9415 75.9211 76.4819 75.7944 76.2889C75.731 76.204 75.9409 75.9222 76.4478 75.6674C77.1279 75.3391 77.8962 75.2257 78.6456 75.3432C79.392 75.4476 80.0853 75.78 80.6256 76.2928C80.9978 76.6865 81.1008 77.0107 81.0058 77.0763Z" fill="#263238"/>
<path d="M84.1144 88.0582C84.1144 87.9772 85.0291 87.9579 86.4904 87.9887C86.8586 88.008 87.215 87.9887 87.314 87.7533C87.4001 87.3906 87.3711 87.011 87.2309 86.6648C87.021 85.7577 86.8032 84.8042 86.5696 83.8084C85.6706 79.7438 85.0727 76.4242 85.243 76.3894C85.4132 76.3547 86.2805 79.6203 87.1794 83.6848C87.3932 84.6884 87.5992 85.6419 87.7932 86.5528C87.8684 86.9774 88.0348 87.4715 87.7655 87.9733C87.6937 88.0908 87.5955 88.1908 87.4781 88.2657C87.3608 88.3406 87.2275 88.3885 87.0883 88.4056C86.8793 88.4312 86.6677 88.4312 86.4587 88.4056C85.0054 88.2628 84.1104 88.1393 84.1144 88.0582Z" fill="#263238"/>
<path d="M81.6354 73.1083C81.4136 73.4441 80.2336 72.9423 78.7406 72.7493C77.2477 72.5563 75.9686 72.676 75.8578 72.2939C75.8182 72.1124 76.1152 71.8191 76.6854 71.5875C77.4177 71.3135 78.2106 71.2297 78.9862 71.3443C79.7545 71.4442 80.4809 71.7442 81.0889 72.2128C81.5522 72.5872 81.7384 72.9539 81.6354 73.1083Z" fill="#263238"/>
<path d="M94.8737 75.4088C94.6004 75.7099 93.6342 75.3123 92.4422 75.2196C91.2503 75.127 90.2286 75.2891 90.0187 74.9417C89.9276 74.7757 90.1098 74.4669 90.5692 74.1929C91.1876 73.8712 91.8902 73.7361 92.5877 73.8048C93.2851 73.8736 93.9458 74.143 94.4856 74.5789C94.8816 74.9224 94.9964 75.2698 94.8737 75.4088Z" fill="#263238"/>
<path d="M97.02 70.3832C97.02 70.3832 95.436 64.3616 92.8501 62.6323C89.7059 60.5363 87.7021 63.9486 84.5896 62.5976C81.477 61.2466 78.4951 59.2355 74.8202 61.1887C70.7929 63.3233 72.1987 65.4347 71.3592 69.4182C67.9496 85.5491 64.1916 89.7025 64.5044 81.913C64.5401 81.06 62.2552 80.0448 62.4452 76.4473C62.6947 71.7805 63.3758 66.1719 64.9282 63.0646C66.2389 60.4437 68.1397 58.78 71.3473 57.1087C76.4122 54.4684 82.6769 55.3099 86.8586 56.3367C91.0404 57.3634 98.4773 63.3503 97.02 70.3832Z" fill="#263238"/>
<path d="M65.1143 81.7546C65.1542 81.4212 65.1243 81.0834 65.0265 80.7615C64.9286 80.4397 64.7647 80.1405 64.5449 79.8822C64.325 79.6238 64.0536 79.4116 63.7472 79.2584C63.4407 79.1052 63.1056 79.0142 62.762 78.9909C61.0078 78.8982 58.9367 79.5737 58.5129 83.0748C57.7645 89.2855 64.3144 88.7374 64.346 88.5598C64.3777 88.3823 64.8252 84.3563 65.1143 81.7546Z" fill="#AE7461"/>
<path d="M63.2412 86.0778C63.2174 86.0547 63.1224 86.1396 62.9244 86.2013C62.6474 86.2814 62.3493 86.2538 62.0928 86.1241C61.4473 85.8076 61.0078 84.6998 61.1107 83.5765C61.1596 83.0423 61.3301 82.5254 61.6097 82.0634C61.6926 81.8764 61.8211 81.7119 61.9839 81.5841C62.1468 81.4563 62.3391 81.3691 62.5442 81.33C62.6776 81.3116 62.8132 81.3404 62.9266 81.4113C63.04 81.4821 63.1235 81.5902 63.162 81.716C63.2293 81.9013 63.162 82.021 63.2056 82.0325C63.2491 82.0441 63.356 81.9438 63.3362 81.6813C63.3167 81.524 63.2443 81.3774 63.1303 81.2644C62.9701 81.1163 62.7571 81.0346 62.5363 81.0367C62.2726 81.0549 62.0177 81.1373 61.795 81.2762C61.5723 81.415 61.3888 81.6061 61.2612 81.8318C60.9253 82.3386 60.7214 82.9176 60.6672 83.5186C60.5563 84.7731 61.0632 86.0199 61.9621 86.3866C62.1271 86.4548 62.3058 86.4857 62.4848 86.477C62.6638 86.4683 62.8384 86.4202 62.9957 86.3364C63.2135 86.2129 63.261 86.0778 63.2412 86.0778Z" fill="#6F4439"/>
<path d="M67.0824 69.8002C67.8229 70.468 68.607 71.1589 69.5851 71.4021C70.5632 71.6453 71.779 71.2516 72.0958 70.3174C72.2383 69.9006 72.2066 69.3833 72.5472 69.0938C72.9432 68.7464 73.5728 68.9664 74.0995 69.0938C75.0149 69.3006 75.9755 69.1935 76.8194 68.7906C77.6633 68.3878 78.339 67.7137 78.7327 66.882C79.097 67.6347 80.2019 67.766 80.982 67.4224C81.7621 67.0789 82.3324 66.415 82.9858 65.8784C83.6392 65.3419 84.5024 64.898 85.3222 65.1373C85.7815 65.2724 86.1815 65.6082 86.6567 65.6353C87.5002 65.6854 88.0546 64.7938 88.304 64.0063C88.5535 63.2189 88.799 62.2925 89.5712 61.9605C90.3434 61.6286 91.0958 62.0069 91.8482 62.2307C92.6006 62.4546 93.6104 62.4237 93.9193 61.7212C93.9821 61.5309 94.0047 61.3302 93.9856 61.1312C93.9665 60.9321 93.9063 60.7389 93.8084 60.5632C93.4083 59.7404 92.7354 59.0731 91.8984 58.669C91.0613 58.2649 90.1089 58.1476 89.195 58.336C89.041 57.2619 88.5637 56.2564 87.8236 55.4467C87.0834 54.6369 86.1136 54.0592 85.0367 53.7865C83.9598 53.5139 82.8242 53.5585 81.7733 53.9148C80.7224 54.2712 79.8035 54.9231 79.1327 55.7884C78.5512 55.0943 77.8063 54.5474 76.9615 54.1941C76.1166 53.8407 75.1968 53.6914 74.2801 53.7589C73.3633 53.8263 72.4769 54.1085 71.696 54.5815C70.9152 55.0545 70.263 55.7042 69.795 56.4755C69.0488 56.1611 68.2242 56.0679 67.424 56.2075C66.6238 56.3472 65.8835 56.7134 65.2955 57.2606C64.7076 57.8078 64.2979 58.5116 64.1178 59.2843C63.9377 60.057 63.995 60.8643 64.2827 61.6054C63.0472 62.0725 61.9067 63.0336 61.681 64.3074C61.4552 65.5812 62.5403 67.048 63.859 66.8936C63.5172 67.3597 63.372 67.9358 63.4535 68.5032C63.5349 69.0705 63.8368 69.5857 64.2967 69.9423C64.7566 70.299 65.3395 70.4699 65.9249 70.4197C66.5104 70.3696 67.0537 70.1022 67.4428 69.6728" fill="#263238"/>
<path d="M80.2494 89.7527C80.14 89.6595 79.9986 89.6099 79.8534 89.6137C79.7899 89.6344 79.7312 89.6673 79.6809 89.7104C79.6306 89.7534 79.5896 89.8059 79.5604 89.8646C79.2728 90.3151 79.1067 90.8291 79.0776 91.3588C79.0485 91.8886 79.1574 92.417 79.394 92.8947C79.394 92.8947 79.394 92.914 79.394 92.9256C80.1148 94.2998 82.1383 94.3422 83.0412 93.0723L83.7184 92.1189L80.2494 89.7527Z" fill="#6F4439"/>
<path d="M82.6135 93.5239C82.661 93.5509 82.0829 94.0874 80.9107 94.0334C80.5877 94.0101 80.2765 93.905 80.0078 93.7285C79.6858 93.5424 79.4206 93.2759 79.2396 92.9565C78.9041 92.2165 78.8222 91.3908 79.006 90.6019C79.0424 90.3949 79.0954 90.1909 79.1644 89.992C79.2004 89.871 79.262 89.7587 79.3452 89.6623C79.4284 89.5659 79.5314 89.4876 79.6475 89.4323C79.7721 89.3961 79.9041 89.3916 80.031 89.4193C80.1579 89.447 80.2753 89.506 80.3722 89.5905L80.8157 89.9109L82.3363 91.038C83.1956 91.6865 83.7065 92.115 83.6748 92.1613C83.6431 92.2076 83.065 91.8641 82.1621 91.2735L80.5781 90.2197C80.293 90.0383 79.9326 89.7141 79.7861 89.8106C79.6396 89.9071 79.4772 90.3085 79.3901 90.6791C79.2258 91.3805 79.2838 92.1141 79.5564 92.7828C79.6999 93.0514 79.9128 93.2789 80.1742 93.4428C80.392 93.6027 80.6484 93.7051 80.9186 93.74C81.4931 93.7952 82.0729 93.7212 82.6135 93.5239Z" fill="#263238"/>
<path d="M63.3956 66.8089C63.3758 66.7896 63.1976 67.3107 63.6095 68.0556C63.8615 68.4954 64.2744 68.8262 64.7658 68.9821C65.0794 69.0789 65.4112 69.1066 65.7372 69.0632C66.0632 69.0198 66.3752 68.9064 66.6508 68.7311L66.3894 68.6539C66.6337 69.28 66.9815 69.8628 67.419 70.3794C67.7073 70.7324 68.0622 71.0285 68.4644 71.2517C68.9879 71.511 69.5808 71.6063 70.162 71.5248C70.7432 71.4433 71.2844 71.1889 71.7116 70.7962C72.0268 70.4426 72.2676 70.0321 72.4205 69.5881C72.4971 69.4336 72.5403 69.2654 72.5472 69.094C72.5195 69.094 72.4403 69.2445 72.2898 69.5302C72.0961 69.9313 71.8366 70.2989 71.5216 70.6187C70.785 71.4177 68.7496 71.5837 67.7002 70.1478C67.2899 69.6587 66.9575 69.1121 66.7141 68.5266L66.631 68.3297L66.4528 68.4494C66.2223 68.5987 65.9617 68.6983 65.6886 68.7415C65.4154 68.7848 65.1359 68.7707 64.8688 68.7003C64.4323 68.5757 64.0568 68.3015 63.8114 67.9283C63.5988 67.5853 63.4575 67.205 63.3956 66.8089Z" fill="#455A64"/>
<path d="M77.5526 54.4491C77.5526 54.4684 77.711 54.5148 77.9764 54.673C78.3554 54.9019 78.6549 55.2369 78.8357 55.6342L78.8911 55.7616L78.998 55.6612C79.9537 54.7303 81.1365 54.0515 82.4353 53.6887C83.2734 53.459 84.1515 53.4024 85.0133 53.5228C85.9634 53.6696 86.853 54.0704 87.5833 54.6808C88.1596 55.1509 88.6266 55.7351 88.9535 56.3946C89.2458 57.0089 89.3816 57.6829 89.3495 58.3593V58.5562L89.5514 58.533C90.4736 58.4323 91.4 58.6826 92.1373 59.2317C92.7152 59.667 93.1389 60.2676 93.3491 60.9494C93.5188 61.5644 93.5565 62.207 93.46 62.8369C93.5475 62.6851 93.6002 62.5165 93.6144 62.3428C93.6988 61.8612 93.6758 61.3676 93.5471 60.8953C93.3546 60.1549 92.9228 59.4945 92.3155 59.0117C91.5264 58.3935 90.5189 58.1036 89.5118 58.2049L89.7019 58.3786C89.7411 57.6441 89.5957 56.9113 89.2782 56.2441C88.9328 55.536 88.4343 54.9092 87.817 54.4067C87.0288 53.7564 86.0676 53.3375 85.045 53.1985C84.1346 53.0751 83.2077 53.1462 82.3284 53.407C80.9867 53.8001 79.7787 54.5389 78.8317 55.5454L78.9941 55.5724C78.785 55.1503 78.4363 54.8091 78.0041 54.6036C77.8708 54.5131 77.7147 54.4597 77.5526 54.4491Z" fill="#455A64"/>
</svg>
