<svg width="194" height="192" viewBox="0 0 194 192" fill="none" xmlns="http://www.w3.org/2000/svg">
<path d="M36.472 68.7054L37.1161 67.3768C42.5481 56.1678 53.6565 48.6529 66.0958 48.2305C67.6981 48.1749 69.3023 48.2365 70.8954 48.4148C82.3724 49.7089 92.9881 57.1739 98.1097 67.5572C101.121 73.6628 102.506 80.8974 107.53 85.4862C114.068 91.4651 124.086 90.7009 132.851 89.5796C141.616 88.4584 151.646 87.7172 158.157 93.723C162.234 97.4824 163.977 103.223 164.229 108.764C164.888 123.437 155.902 137.48 143.475 145.244C131.047 153.009 115.737 155.059 101.152 153.6C80.7195 151.542 60.5784 142.41 47.4485 126.567C34.3186 110.723 29.1349 87.8939 36.472 68.7054Z" fill="#F5F5F5"/>
<path d="M123.822 78.9082C131.625 78.9082 137.95 72.6485 137.95 64.9268C137.95 57.205 131.625 50.9453 123.822 50.9453C116.02 50.9453 109.695 57.205 109.695 64.9268C109.695 72.6485 116.02 78.9082 123.822 78.9082Z" fill="#F5F5F5"/>
<path d="M165.455 140.275C162.413 135.667 162.855 129.089 166.491 124.915C167.616 123.621 169.207 122.5 170.914 122.646C172.621 122.792 174.092 124.289 174.627 125.956C175.163 127.623 174.976 129.412 174.662 131.148C174.224 133.559 173.498 136.024 171.795 137.814C170.091 139.603 167.624 141.443 165.455 140.268" fill="#C886D3"/>
<path d="M167.135 162.432C166.588 161.092 166.482 159.616 166.83 158.213C167.178 156.81 167.964 155.551 169.075 154.614C169.773 154.049 170.689 153.612 171.562 153.846C172.435 154.08 173.052 154.979 173.172 155.885C173.244 156.804 173.088 157.727 172.718 158.573C172.268 159.775 171.663 160.981 170.631 161.753C169.599 162.524 168.148 163.246 167.139 162.448" fill="#C886D3"/>
<path d="M159.798 160.865C160.171 158.808 159.882 156.687 158.972 154.801C158.063 152.914 156.578 151.358 154.727 150.352C153.563 149.756 152.139 149.403 150.971 149.968C149.803 150.532 149.202 152.003 149.295 153.324C149.388 154.645 150.032 155.866 150.738 156.987C151.731 158.561 152.95 160.09 154.641 160.881C156.333 161.672 158.603 162.279 159.798 160.85" fill="#C886D3"/>
<path d="M160.325 149.822C161.784 145.171 159.313 139.53 155.196 136.858C153.92 136.032 152.302 135.452 150.874 135.994C149.446 136.535 148.569 138.156 148.526 139.703C148.484 141.251 149.081 142.744 149.772 144.131C150.738 146.078 151.972 147.998 153.85 149.123C155.728 150.248 158.766 151.354 160.325 149.829" fill="#C886D3"/>
<path d="M163.251 172.566C163.228 172.492 163.213 172.416 163.204 172.339C163.177 172.17 163.146 171.955 163.107 171.69C163.088 171.548 163.065 171.391 163.041 171.222C163.018 171.053 162.972 170.865 162.933 170.669C162.855 170.285 162.778 169.816 162.646 169.325C162.584 169.079 162.522 168.818 162.456 168.557L162.211 167.727C162.052 167.151 161.823 166.552 161.606 165.915C160.58 163.178 159.178 160.593 157.439 158.235C157.024 157.705 156.663 157.183 156.248 156.734L155.685 156.073L155.138 155.486C154.796 155.102 154.459 154.791 154.164 154.506L153.776 154.122L153.415 153.807L152.922 153.37C152.864 153.319 152.809 153.264 152.759 153.205C152.827 153.243 152.891 153.288 152.95 153.339L153.466 153.75L153.854 154.053L154.273 154.437C154.575 154.71 154.921 155.021 155.27 155.397C155.448 155.585 155.635 155.781 155.832 155.977L156.407 156.638C156.814 157.083 157.183 157.601 157.617 158.135C159.379 160.493 160.786 163.09 161.796 165.846C162.009 166.487 162.238 167.09 162.39 167.674C162.471 167.962 162.549 168.242 162.626 168.511C162.704 168.78 162.747 169.045 162.801 169.279C162.925 169.778 162.995 170.235 163.061 170.634C163.096 170.834 163.127 171.018 163.154 171.191C163.181 171.364 163.189 171.521 163.204 171.667C163.228 171.932 163.247 172.151 163.263 172.32C163.269 172.402 163.266 172.485 163.251 172.566Z" fill="#263238"/>
<path d="M163.146 173.403C163.141 173.371 163.141 173.339 163.146 173.307C163.146 173.238 163.146 173.146 163.146 173.038C163.17 172.785 163.201 172.443 163.243 172.005C163.263 171.779 163.29 171.529 163.317 171.26C163.344 170.991 163.344 170.688 163.36 170.369C163.387 169.728 163.449 169.002 163.426 168.196C163.426 167.793 163.426 167.37 163.426 166.932C163.426 166.495 163.379 166.038 163.356 165.565C163.325 164.617 163.197 163.615 163.08 162.559C162.484 157.97 161.146 153.506 159.119 149.338C158.634 148.389 158.188 147.479 157.695 146.669C157.454 146.258 157.237 145.855 157 145.482C156.764 145.11 156.527 144.76 156.31 144.422C155.883 143.735 155.433 143.159 155.06 142.633C154.87 142.376 154.7 142.13 154.533 141.911C154.366 141.692 154.203 141.504 154.059 141.327L153.407 140.513L153.241 140.298L153.19 140.221C153.19 140.221 153.217 140.221 153.256 140.283L153.438 140.486L154.117 141.277L154.606 141.853C154.777 142.068 154.956 142.314 155.15 142.568C155.538 143.086 155.992 143.658 156.426 144.346L157.128 145.405C157.373 145.789 157.594 146.173 157.838 146.584C158.343 147.398 158.793 148.308 159.286 149.272C161.34 153.451 162.684 157.936 163.263 162.547C163.371 163.607 163.495 164.617 163.523 165.569C163.523 166.042 163.581 166.499 163.581 166.94C163.581 167.382 163.581 167.804 163.581 168.207C163.581 169.018 163.523 169.743 163.488 170.385C163.464 170.707 163.453 171.003 163.426 171.279C163.398 171.556 163.364 171.798 163.333 172.024C163.278 172.458 163.232 172.792 163.201 173.053C163.201 173.165 163.173 173.249 163.162 173.322C163.15 173.395 163.146 173.403 163.146 173.403Z" fill="#263238"/>
<path d="M171.065 128.214C171.065 128.214 171.065 128.245 171.026 128.302L170.895 128.544L170.375 129.462C170.266 129.662 170.13 129.88 169.987 130.126C169.843 130.372 169.723 130.645 169.599 130.936L169.129 131.866C168.97 132.2 168.819 132.557 168.652 132.933C168.485 133.31 168.307 133.701 168.136 134.108C167.965 134.515 167.806 134.957 167.631 135.406L167.368 136.09C167.285 136.325 167.203 136.563 167.123 136.804L166.611 138.302C165.967 140.364 165.358 142.664 164.838 145.106C164.318 147.548 163.984 149.902 163.736 152.064C163.488 154.226 163.348 156.154 163.305 157.79C163.263 158.607 163.255 159.345 163.251 159.994C163.247 160.643 163.251 161.203 163.251 161.66C163.251 162.117 163.251 162.455 163.251 162.712V162.989C163.257 163.019 163.257 163.051 163.251 163.081C163.246 163.051 163.246 163.019 163.251 162.989L163.232 162.716C163.232 162.459 163.201 162.106 163.181 161.664C163.162 161.223 163.142 160.647 163.142 159.994C163.142 159.341 163.142 158.604 163.166 157.786C163.193 156.146 163.344 154.199 163.554 152.045C163.763 149.891 164.147 147.533 164.648 145.079C165.148 142.625 165.777 140.314 166.452 138.24C166.63 137.729 166.805 137.23 166.972 136.743L167.22 136.028L167.492 135.345L168.012 134.047C168.182 133.632 168.373 133.244 168.539 132.872C168.706 132.499 168.865 132.138 169.028 131.808C169.191 131.478 169.362 131.171 169.513 130.883L169.936 130.076C170.072 129.83 170.212 129.615 170.324 129.42L170.879 128.517L171.026 128.287C171.037 128.261 171.05 128.237 171.065 128.214Z" fill="#263238"/>
<path d="M170.033 156.48C169.94 156.676 169.831 156.863 169.707 157.041C169.486 157.394 169.18 157.913 168.823 158.577C168.466 159.241 168.07 160.021 167.659 160.915C167.247 161.81 166.883 162.835 166.541 163.907C166.229 164.923 165.97 165.955 165.765 166.998C165.583 167.962 165.455 168.837 165.377 169.575C165.3 170.312 165.257 170.911 165.241 171.326C165.241 171.542 165.223 171.758 165.187 171.971C165.165 171.757 165.157 171.541 165.164 171.326C165.164 170.907 165.164 170.304 165.238 169.563C165.307 168.691 165.421 167.824 165.579 166.963C165.78 165.911 166.039 164.87 166.355 163.845C166.678 162.824 167.058 161.821 167.496 160.842C167.854 160.045 168.253 159.266 168.691 158.508C169.079 157.863 169.393 157.356 169.637 157.01C169.753 156.822 169.886 156.645 170.033 156.48Z" fill="#263238"/>
<path d="M157.276 170.492H170.642L169.024 184.001H158.94L157.276 170.492Z" fill="#455A64"/>
<path d="M157.765 182.546L158.898 184.002H169.024L170.192 182.592L157.765 182.546Z" fill="#263238"/>
<path d="M170.122 174.467C170.122 174.521 167.348 174.563 163.914 174.563C160.481 174.563 157.706 174.521 157.706 174.467C157.706 174.413 160.481 174.367 163.914 174.367C167.348 174.367 170.122 174.413 170.122 174.467Z" fill="#FAFAFA"/>
<path d="M170.122 175.365C170.122 175.419 167.348 175.465 163.914 175.465C160.481 175.465 157.706 175.419 157.706 175.365C157.706 175.311 160.481 175.265 163.914 175.265C167.348 175.265 170.122 175.311 170.122 175.365Z" fill="#FAFAFA"/>
<path d="M169.944 176.256C169.944 176.31 167.267 176.352 163.965 176.352C160.663 176.352 157.986 176.31 157.986 176.256C157.986 176.202 160.663 176.156 163.965 176.156C167.267 176.156 169.944 176.183 169.944 176.256Z" fill="#FAFAFA"/>
<path d="M30.8576 169.525L24.6729 184.04L20.3157 184.002L22.2557 169.513L30.8576 169.525Z" fill="#263238"/>
<path d="M54.5528 169.571L48.4496 184.021L44.0923 183.982L45.9974 169.555L54.5528 169.571Z" fill="#263238"/>
<path d="M20.688 82.4718C23.0819 78.9198 70.2899 78.4014 72.3114 82.0878L89.558 114.532L115.5 113.353C115.5 113.353 118.992 113.188 122.402 116.425C124.086 118.019 124.001 128.068 123.527 131.954C123.209 134.538 119.232 169.697 119.232 169.697L21.4911 169.502C21.4911 169.502 18.2979 86.0162 20.688 82.4718Z" fill="#455A64"/>
<path d="M49.21 170.423C49.21 170.423 49.21 170.32 49.21 170.116C49.21 169.913 49.21 169.601 49.2372 169.21C49.2605 168.407 49.2876 167.236 49.3226 165.754C49.3885 162.739 49.4778 158.396 49.5903 153.082L49.5088 153.159L79.1947 153.37L109.948 153.535L109.87 153.473C110.53 157.393 110.714 161.376 110.417 165.339C110.312 166.748 110.176 167.835 110.079 168.572C110.025 168.937 109.986 169.217 109.959 169.413C109.932 169.609 109.924 169.701 109.924 169.701C110.202 168.262 110.395 166.808 110.502 165.347C110.835 161.374 110.675 157.377 110.025 153.443V153.377H109.959L79.2024 153.159L49.5204 152.997H49.439V153.074C49.3536 158.396 49.2876 162.736 49.2411 165.746C49.2217 167.248 49.21 168.415 49.1984 169.202C49.1984 169.586 49.1984 169.897 49.1984 170.108C49.1984 170.32 49.21 170.423 49.21 170.423Z" fill="#263238"/>
<path d="M52.2054 115.968H51.992C51.7962 115.964 51.6004 115.974 51.4061 115.999C50.6475 116.083 49.9124 116.311 49.2411 116.671C48.1654 117.251 47.2367 118.065 46.5251 119.052C45.5739 120.387 44.9399 121.917 44.6704 123.529C44.3468 125.506 44.2168 127.51 44.2824 129.512C44.2824 131.681 44.36 134.024 44.5075 136.512C44.7985 141.504 45.4193 147.041 46.0905 153.024V153.109H46.172L70.8876 153.278L115.713 153.535H115.783V153.462C115.973 150.511 115.825 147.548 115.345 144.63C114.887 142.073 114.107 139.907 113.017 138.401C112.553 137.725 111.963 137.143 111.278 136.685L111.061 136.535L110.836 136.42L110.413 136.205C110.13 136.109 109.878 136.001 109.637 135.944L109.009 135.809C108.822 135.786 108.667 135.783 108.543 135.771H108.155C108.155 135.771 108.279 135.771 108.543 135.813C108.667 135.813 108.822 135.836 109.005 135.863L109.629 136.001C109.866 136.063 110.114 136.174 110.405 136.274L110.817 136.493L111.038 136.608L111.251 136.758C111.925 137.216 112.505 137.797 112.958 138.471C114.022 139.964 114.786 142.119 115.228 144.672C115.694 147.575 115.831 150.521 115.636 153.454L115.713 153.385L70.8876 153.07L46.172 152.92L46.269 153.005C45.59 147.018 44.9537 141.485 44.6511 136.493C44.4997 134.008 44.4182 131.67 44.4105 129.496C44.3493 127.504 44.4792 125.509 44.7985 123.541C45.0588 121.942 45.6794 120.422 46.6143 119.094C47.3137 118.122 48.223 117.317 49.276 116.736C49.9402 116.375 50.6665 116.139 51.4178 116.041C51.9377 115.968 52.2093 115.995 52.2054 115.968Z" fill="#263238"/>
<path d="M117.797 169.701L119.213 184.001L114.856 183.963L109.4 169.682L117.797 169.701Z" fill="#263238"/>
<path d="M109.657 135.974C109.512 135.975 109.367 135.959 109.226 135.928L108.062 135.736C107.076 135.571 105.734 135.333 104.209 135.172C102.92 135.04 101.625 134.978 100.329 134.988H99.165C99.0208 135.006 98.8747 135.006 98.7305 134.988C98.8712 134.951 99.0157 134.931 99.1611 134.926C99.4405 134.895 99.844 134.872 100.345 134.849C101.648 134.796 102.954 134.837 104.252 134.972C105.773 135.134 107.135 135.395 108.112 135.594C108.601 135.698 108.997 135.786 109.276 135.852C109.408 135.876 109.536 135.918 109.657 135.974Z" fill="#263238"/>
<path d="M116.544 113.422C116.544 113.441 116.229 113.58 115.678 113.883C114.9 114.316 114.177 114.839 113.525 115.442C112.558 116.341 111.729 117.376 111.065 118.514C110.251 119.901 109.637 121.394 109.241 122.949C108.419 126.275 108.465 129.412 108.524 131.643C108.555 132.768 108.601 133.674 108.624 134.3C108.624 134.6 108.644 134.838 108.652 135.026C108.661 135.11 108.661 135.195 108.652 135.279C108.63 135.196 108.619 135.111 108.617 135.026C108.597 134.842 108.578 134.604 108.551 134.308C108.5 133.682 108.434 132.772 108.384 131.651C108.333 130.529 108.302 129.185 108.384 127.695C108.445 126.073 108.667 124.46 109.047 122.88C109.447 121.306 110.073 119.797 110.906 118.399C111.586 117.256 112.437 116.22 113.428 115.327C114.095 114.723 114.839 114.207 115.639 113.791C115.915 113.637 116.156 113.56 116.307 113.487C116.384 113.461 116.463 113.439 116.544 113.422Z" fill="#263238"/>
<g opacity="0.3">
<path d="M65.4478 140.314C68.3928 140.995 71.4148 141.295 74.4378 141.205C74.6621 150.548 75.4785 159.868 76.8822 169.11C77.6154 169.49 78.417 169.723 79.2412 169.797C80.0677 169.82 80.9601 169.448 81.3015 168.703C81.4679 168.243 81.525 167.752 81.4684 167.267C81.0599 157.962 80.0921 148.69 78.57 139.5C78.4575 138.816 78.2984 138.064 77.7203 137.676C77.1422 137.288 76.4399 137.407 75.7803 137.53C72.1357 138.203 68.5286 139.036 64.959 140.03" fill="black"/>
</g>
<g opacity="0.3">
<path d="M61.141 139.534L62.0528 152.314C62.0528 152.314 65.1064 145.402 64.3226 142.756C64.1079 141.998 63.704 141.305 63.148 140.742C62.592 140.179 61.9018 139.764 61.141 139.534Z" fill="black"/>
</g>
<path d="M60.3612 88.704L59.4532 58.4794L58.4677 56.7399C57.5986 55.9719 56.1902 56.1139 55.2512 56.7821C54.3122 57.4503 53.7613 58.5331 53.3849 59.616C51.5691 64.8154 52.9969 70.5293 52.6089 76.0167C52.5274 77.2071 52.3373 78.4435 51.6389 79.4151C50.6883 80.736 48.9229 81.385 48.2012 82.8365C47.8922 83.5032 47.8305 84.2564 48.0271 84.9636C48.2237 85.6709 48.6659 86.2869 49.276 86.7034C48.3875 87.2179 47.4679 87.7555 46.8743 88.5888C46.2806 89.4221 46.1216 90.6471 46.7734 91.4343C47.4834 92.2867 48.7755 92.2983 49.8774 92.2023C53.0226 91.9331 56.1291 91.328 59.1428 90.3975C59.532 90.3164 59.8836 90.1114 60.1439 89.8138C60.333 89.4759 60.409 89.0874 60.3612 88.704Z" fill="#263238"/>
<path d="M53.8816 83.501C54.2033 83.3772 54.4924 83.1829 54.7274 82.9327C55.1852 82.4488 55.5306 81.5119 55.6314 80.333C55.8476 77.2373 55.8333 74.13 55.5888 71.0364C55.4452 69.2239 55.2279 67.5036 54.9796 65.9484C54.7313 64.3932 54.5916 62.9301 54.9292 61.7551C55.1644 60.8185 55.7248 59.9935 56.5122 59.4242C56.7288 59.2804 56.9637 59.1655 57.2106 59.0824C57.2982 59.0553 57.3876 59.0348 57.4783 59.021C56.8641 59.2304 56.3171 59.5974 55.8931 60.0845C55.4691 60.5716 55.1833 61.1613 55.065 61.7935C54.7546 62.9455 54.8942 64.3701 55.162 65.9176C55.4297 67.4652 55.647 69.2008 55.7866 71.021C56.0403 74.125 56.0403 77.2443 55.7866 80.3484C55.6625 81.5426 55.29 82.4988 54.7972 82.9864C54.6132 83.1732 54.3945 83.3231 54.1532 83.428C54.0662 83.464 53.9749 83.4885 53.8816 83.501Z" fill="#455A64"/>
<path d="M60.8266 58.3451C60.7383 58.7675 61.034 57.988 60.8266 58.3451V58.3451Z" fill="#C886D3"/>
<path d="M60.4853 56.6515C60.1361 56.2867 59.589 56.4403 59.1855 56.7283C58.4669 57.2973 57.9283 58.0582 57.6335 58.921C57.3059 59.8436 57.0973 60.8035 57.0127 61.7779C56.9506 62.3424 56.9506 63.0221 57.3192 63.3485C57.4507 63.4529 57.6143 63.5098 57.7829 63.5098C57.9515 63.5098 58.115 63.4529 58.2466 63.3485C58.5352 63.1155 58.7728 62.8267 58.945 62.4998C59.7311 61.1947 60.3663 59.8061 60.8384 58.3603C60.916 57.9187 60.7569 56.9318 60.4853 56.6515Z" fill="#C886D3"/>
<path d="M57.6102 64.2088C58.3862 60.9332 59.783 57.5848 62.5262 55.5918C64.9706 53.8216 68.5363 53.1457 71.5588 53.3684C73.0488 53.476 74.7094 54.2132 75.982 54.9812C77.7319 56.0372 78.4187 58.084 79.218 59.9464C80.8165 63.6827 80.4324 68.6593 79.218 70.0072L63.4108 77.6296C60.6948 76.1243 57.7771 74.0968 57.1485 71.1016C56.7217 69.0433 57.1252 66.244 57.6102 64.2088Z" fill="#263238"/>
<path d="M63.5971 58.3951L73.4717 55.853C76.6339 55.5036 78.7679 59.3474 78.989 62.4924C79.2373 65.9868 79.4003 70.2607 78.989 72.8604C78.1859 78.1097 74.1235 79.3577 74.1235 79.3577C74.1235 79.3577 74.1235 83.9157 74.0963 85.4748L69.4908 99.3602L62.9413 85.4748L61.9403 60.2882C61.9257 59.8244 62.088 59.3721 62.395 59.0213C62.702 58.6705 63.1311 58.447 63.5971 58.3951Z" fill="#FFBE9D"/>
<path d="M77.212 66.7241C77.2142 66.8994 77.1474 67.0688 77.0258 67.1963C76.9042 67.3239 76.7372 67.3996 76.5602 67.4076C76.4736 67.4149 76.3864 67.405 76.3037 67.3785C76.2211 67.352 76.1446 67.3095 76.0788 67.2533C76.013 67.1971 75.9592 67.1285 75.9206 67.0515C75.882 66.9744 75.8594 66.8905 75.854 66.8047C75.8518 66.6293 75.9186 66.46 76.0402 66.3324C76.1618 66.2049 76.3288 66.1291 76.5058 66.1212C76.5923 66.1144 76.6793 66.1246 76.7617 66.1513C76.8442 66.178 76.9204 66.2206 76.9861 66.2767C77.0518 66.3328 77.1056 66.4012 77.1443 66.478C77.1831 66.5548 77.2061 66.6384 77.212 66.7241Z" fill="#263238"/>
<path d="M78.0695 64.7233C77.9841 64.8116 77.4681 64.4391 76.7348 64.443C76.0014 64.4468 75.4699 64.827 75.3923 64.731C75.3147 64.635 75.435 64.5313 75.6678 64.347C75.984 64.128 76.3604 64.01 76.7464 64.0091C77.1257 64.007 77.4961 64.1224 77.8056 64.3393C78.0307 64.5121 78.1083 64.6849 78.0695 64.7233Z" fill="#263238"/>
<path d="M70.5888 66.7241C70.5921 66.8991 70.5262 67.0684 70.4051 67.1961C70.2841 67.3237 70.1176 67.3996 69.9409 67.4076C69.8542 67.4154 69.7668 67.406 69.6839 67.3797C69.601 67.3534 69.5244 67.3108 69.4584 67.2546C69.3925 67.1983 69.3388 67.1294 69.3003 67.0522C69.2619 66.9749 69.2396 66.8907 69.2347 66.8047C69.2325 66.6293 69.2993 66.46 69.4209 66.3324C69.5426 66.2049 69.7095 66.1291 69.8866 66.1212C69.9728 66.1144 70.0596 66.1247 70.1418 66.1514C70.224 66.1781 70.3 66.2208 70.3654 66.2769C70.4308 66.333 70.4842 66.4015 70.5226 66.4782C70.5609 66.555 70.5835 66.6386 70.5888 66.7241Z" fill="#263238"/>
<path d="M70.8798 64.896C70.7984 64.9843 70.2784 64.608 69.549 64.6157C68.8196 64.6234 68.2841 64.9997 68.2026 64.8999C68.1212 64.8 68.2492 64.704 68.482 64.5351C68.7954 64.3134 69.1715 64.1951 69.5568 64.1971C69.9376 64.1927 70.3099 64.3083 70.6199 64.5274C70.8449 64.7079 70.9225 64.8653 70.8798 64.896Z" fill="#263238"/>
<path d="M73.5726 70.2722C73.9496 70.1507 74.3408 70.0771 74.7366 70.0533C74.9267 70.0302 75.1013 69.9918 75.1246 69.8651C75.139 69.6747 75.0943 69.4844 74.9965 69.3198C74.818 68.8744 74.6318 68.4059 74.4339 67.9182C73.6579 65.9176 73.0876 64.2741 73.169 64.2434C73.2505 64.2126 73.945 65.8101 74.721 67.8069C74.9112 68.2984 75.109 68.7707 75.2604 69.22C75.3801 69.4424 75.4158 69.6997 75.3612 69.9458C75.3359 70.0111 75.2953 70.0695 75.2427 70.1163C75.19 70.163 75.1269 70.1967 75.0586 70.2146C74.9553 70.2449 74.8482 70.2604 74.7404 70.2606C74.3532 70.313 73.9608 70.3168 73.5726 70.2722Z" fill="#263238"/>
<path d="M74.1468 79.4075L74.1158 80.7131C68.8157 81.2392 67.0348 77.5835 67.0348 77.5835C69.189 78.8317 71.6512 79.4632 74.1468 79.4075Z" fill="#EB996E"/>
<path d="M71.167 71.6237C71.271 71.4618 71.4142 71.3283 71.5835 71.235C71.7529 71.1418 71.9432 71.092 72.137 71.0899C72.4093 71.0674 72.6828 71.1179 72.9286 71.2362C73.1744 71.3544 73.3834 71.5361 73.5338 71.7619C73.6441 71.9714 73.6677 72.2152 73.5997 72.4416C73.5493 72.5568 73.5997 72.4992 73.4988 72.5799C73.198 72.8906 72.8251 73.1239 72.4124 73.2595C72.1893 73.3139 71.955 73.3017 71.7389 73.2245C71.5228 73.1473 71.3346 73.0085 71.198 72.8256C71.0815 72.6475 71.017 72.4411 71.0115 72.229C71.006 72.0169 71.0598 71.8074 71.167 71.6237Z" fill="#EB996E"/>
<path d="M71.423 70.7713C71.5433 70.7713 71.5472 71.5393 72.2339 72.1038C72.9207 72.6683 73.7588 72.5646 73.7859 72.6721C73.7859 72.722 73.5997 72.8257 73.2427 72.8372C72.7776 72.8505 72.3232 72.6978 71.9623 72.4071C71.6126 72.1308 71.3869 71.7294 71.3338 71.2897C71.2833 70.9633 71.3687 70.7675 71.423 70.7713Z" fill="#263238"/>
<path d="M71.2096 62.5922C71.1359 62.788 70.4065 62.6997 69.549 62.8072C68.6915 62.9147 67.997 63.1528 67.8845 62.9762C67.834 62.8917 67.9543 62.7074 68.2298 62.5154C68.6016 62.2786 69.023 62.1289 69.4621 62.0777C69.9011 62.0264 70.3462 62.075 70.7634 62.2197C71.0777 62.3387 71.2407 62.4923 71.2096 62.5922Z" fill="#263238"/>
<path d="M77.7862 62.2082C77.6582 62.3733 77.1538 62.2082 76.5446 62.2082C75.9355 62.2082 75.4272 62.3272 75.3108 62.1583C75.2565 62.0738 75.338 61.9087 75.5591 61.7512C75.8587 61.5625 76.2083 61.4662 76.5633 61.4744C76.9184 61.4826 77.263 61.595 77.5534 61.7973C77.7707 61.974 77.8405 62.1429 77.7862 62.2082Z" fill="#263238"/>
<path d="M63.3682 66.6586C63.2944 66.6279 60.4155 65.7217 60.4426 68.6516C60.4698 71.5815 63.4341 70.9556 63.438 70.8634C63.4419 70.7713 63.3682 66.6586 63.3682 66.6586Z" fill="#FFBE9D"/>
<path d="M62.5262 69.7613C62.5262 69.7613 62.4719 69.7997 62.3865 69.8381C62.2622 69.8889 62.1227 69.8889 61.9985 69.8381C61.8063 69.7204 61.6493 69.554 61.5436 69.3563C61.4379 69.1586 61.3874 68.9365 61.3971 68.713C61.389 68.4614 61.4367 68.211 61.5368 67.9796C61.5652 67.8892 61.6153 67.8071 61.6829 67.7402C61.7505 67.6733 61.8335 67.6237 61.9248 67.5956C61.9836 67.5806 62.0458 67.5862 62.1009 67.6114C62.1561 67.6366 62.2008 67.6798 62.2274 67.7338C62.2701 67.8145 62.2507 67.8759 62.2662 67.8797C62.2817 67.8836 62.3283 67.8298 62.305 67.7069C62.2893 67.6349 62.248 67.5709 62.1886 67.5265C62.1064 67.4655 62.0032 67.4393 61.9015 67.4535C61.78 67.4789 61.6671 67.5345 61.5734 67.6151C61.4796 67.6958 61.4083 67.7987 61.3661 67.9143C61.2435 68.1694 61.1849 68.45 61.1953 68.7322C61.2186 69.3197 61.529 69.8842 61.9713 69.9879C62.0507 70.0104 62.1341 70.0148 62.2154 70.0008C62.2967 69.9869 62.3738 69.9549 62.4408 69.9073C62.5184 69.8343 62.5339 69.769 62.5262 69.7613Z" fill="#EB996E"/>
<path d="M61.5484 70.7367C61.5484 70.7367 61.4204 70.8634 61.4359 71.1207C61.4393 71.1995 61.4597 71.2766 61.4959 71.3468C61.532 71.417 61.583 71.4788 61.6454 71.5277C61.7311 71.5759 61.8265 71.6046 61.9247 71.6119C62.0229 71.6192 62.1216 71.605 62.2135 71.5701C62.3055 71.5352 62.3886 71.4806 62.4567 71.4102C62.5249 71.3398 62.5764 71.2554 62.6077 71.1629C62.6382 71.0084 62.6092 70.8481 62.5262 70.7137C62.3787 70.4871 62.1925 70.4679 62.1925 70.4833C62.1925 70.4986 62.3322 70.5601 62.4331 70.7636C62.4936 70.8824 62.5074 71.0192 62.4719 71.1476C62.4474 71.2181 62.4066 71.2819 62.3527 71.3339C62.2988 71.3859 62.2333 71.4247 62.1615 71.4471C62.0931 71.4798 62.0182 71.4967 61.9422 71.4967C61.8663 71.4967 61.7914 71.4798 61.723 71.4471C61.6734 71.4097 61.6318 71.363 61.6005 71.3096C61.5692 71.2562 61.5489 71.1972 61.5407 71.1361C61.5266 71.0031 61.5292 70.869 61.5484 70.7367Z" fill="#E0E0E0"/>
<path d="M79.2257 63.3216C78.7779 62.4927 78.081 61.8218 77.2314 61.4016C76.4088 60.937 75.5203 60.599 74.7016 60.1306C72.8091 59.0325 71.3939 57.2804 70.7285 55.2115C71.4687 54.8597 72.281 54.6818 73.1021 54.6918C73.9232 54.7018 74.7309 54.8994 75.4621 55.2691C76.9263 56.0314 78.0821 57.2675 78.7368 58.7712C79.3815 60.2672 79.69 61.8841 79.6409 63.5098" fill="#263238"/>
<path d="M62.6891 57.6002C64.8736 55.5458 69.0097 54.4091 71.8576 55.373C71.4347 57.8383 69.5567 60.6031 67.9039 62.4962C66.251 64.3893 65.2344 67.7301 61.6183 66.5973C61.3699 66.5167 61.0828 66.7432 60.8423 66.5973C60.6648 66.4634 60.5411 66.2716 60.4931 66.0559C60.0403 64.5827 60.0056 63.0146 60.393 61.5232C60.7803 60.0319 61.5747 58.6747 62.6891 57.6002Z" fill="#263238"/>
<path d="M61.4437 57.1354C61.4437 57.1354 61.4437 57.1699 61.5057 57.2352C61.5678 57.3005 61.6144 57.3888 61.7114 57.4963C61.9767 57.8097 62.2774 58.0918 62.6077 58.3373C63.0993 58.7024 63.6451 58.99 64.2256 59.1898C64.9373 59.4387 65.6911 59.5483 66.445 59.5123C67.1987 59.464 67.9362 59.2737 68.6178 58.9517C69.1721 58.6883 69.6824 58.3425 70.131 57.9264C70.4315 57.6471 70.6996 57.3354 70.9303 56.9971C71.0156 56.8781 71.0622 56.7783 71.1049 56.713C71.126 56.6793 71.1429 56.6432 71.1553 56.6055C70.8352 57.0579 70.4686 57.4761 70.0611 57.8535C69.6149 58.254 69.1099 58.5854 68.5635 58.8365C67.219 59.4721 65.6752 59.5563 64.2683 59.0707C63.6958 58.8808 63.1556 58.6063 62.6659 58.2567C62.2206 57.9254 61.8111 57.5497 61.4437 57.1354Z" fill="white"/>
<path d="M60.0236 61.1215C60.0546 61.1573 60.0883 61.1906 60.1245 61.2213C60.2222 61.3137 60.3259 61.3996 60.4349 61.4786C60.8339 61.7763 61.2795 62.0073 61.7541 62.1621C62.4578 62.3978 63.2008 62.4968 63.9424 62.454C64.8517 62.4093 65.7425 62.1833 66.5614 61.7897C67.3704 61.3825 68.1101 60.8525 68.7536 60.2191C69.2763 59.704 69.7468 59.1393 70.1582 58.5333C70.4405 58.1282 70.6995 57.7077 70.9342 57.2738C71.0195 57.1202 71.0777 56.9973 71.1165 56.9167C71.1418 56.8764 71.1601 56.8323 71.1708 56.7861C71.141 56.8218 71.115 56.8604 71.0932 56.9013L70.8876 57.2469C70.713 57.5465 70.4492 57.9727 70.0883 58.4796C69.6676 59.07 69.1936 59.6213 68.6721 60.1269C68.0337 60.7451 67.3036 61.263 66.5071 61.6629C65.7047 62.0494 64.8331 62.2751 63.9424 62.3273C63.2158 62.3709 62.4872 62.2824 61.7929 62.0661C61.3235 61.9216 60.8788 61.708 60.4737 61.4325C60.1788 61.2367 60.0352 61.11 60.0236 61.1215Z" fill="#455A64"/>
<path d="M62.6193 77.138C62.6193 77.138 62.5611 77.138 62.4641 77.0689C62.3671 76.9997 62.2158 76.9383 62.0334 76.8231C61.516 76.5112 61.0243 76.1594 60.5629 75.7709C59.8711 75.1955 59.2581 74.5333 58.7393 73.801C58.1085 72.8979 57.6302 71.8992 57.3231 70.8442C56.7664 68.9239 56.717 66.8944 57.1796 64.9498C57.3202 64.3644 57.5097 63.7916 57.746 63.2372C57.8275 63.0413 57.9051 62.8954 57.9556 62.7956C57.9768 62.7432 58.0056 62.694 58.0409 62.6497C57.9812 62.8604 57.9074 63.0669 57.8198 63.2679C57.6134 63.8267 57.4462 64.399 57.3192 64.9805C56.9039 66.9027 56.9718 68.8965 57.5171 70.7866C57.8173 71.8224 58.2808 72.8047 58.8906 73.6973C59.3966 74.4209 59.9894 75.0811 60.656 75.6634C61.1063 76.0567 61.5806 76.4222 62.0761 76.7578C62.2651 76.8731 62.4465 77.0001 62.6193 77.138Z" fill="#455A64"/>
<path d="M105.703 150.931L110.642 159.817C110.642 159.817 121.037 157.206 122.111 158.757L105.427 169.486L97.1513 155.954L105.703 150.931Z" fill="#C886D3"/>
<g opacity="0.6">
<path d="M104.923 162.209C104.789 162.356 104.715 162.547 104.715 162.745C104.715 162.943 104.789 163.134 104.923 163.281C105.067 163.417 105.259 163.493 105.458 163.493C105.658 163.493 105.85 163.417 105.994 163.281C106.137 163.126 106.217 162.924 106.217 162.714C106.217 162.505 106.137 162.302 105.994 162.148C105.83 162.018 105.622 161.957 105.414 161.976C105.205 161.995 105.013 162.094 104.876 162.252" fill="white"/>
</g>
<g opacity="0.6">
<path d="M105.439 169.486L104.605 168.123L121.056 158.32C121.284 158.298 121.514 158.333 121.724 158.421C121.935 158.51 122.12 158.649 122.263 158.826L105.439 169.486Z" fill="white"/>
</g>
<path d="M110.867 159.567C110.914 159.652 110.522 159.951 110.27 160.443C110.017 160.934 110.014 161.43 109.917 161.441C109.82 161.453 109.657 160.904 109.967 160.289C110.277 159.675 110.84 159.483 110.867 159.567Z" fill="#263238"/>
<path d="M113.102 159.241C113.168 159.31 112.892 159.663 112.819 160.182C112.745 160.7 112.889 161.115 112.819 161.161C112.749 161.207 112.4 160.777 112.501 160.128C112.601 159.479 113.052 159.164 113.102 159.241Z" fill="#263238"/>
<path d="M115.399 160.762C115.333 160.823 114.968 160.478 114.91 159.902C114.852 159.326 115.131 158.911 115.209 158.961C115.286 159.011 115.189 159.391 115.244 159.867C115.298 160.343 115.477 160.704 115.399 160.762Z" fill="#263238"/>
<path d="M109.513 157.667C109.513 157.763 109.075 157.874 108.621 158.185C108.167 158.496 107.891 158.861 107.806 158.815C107.72 158.769 107.895 158.266 108.43 157.908C108.966 157.551 109.517 157.578 109.513 157.667Z" fill="#263238"/>
<g opacity="0.3">
<path d="M106.677 152.694L107.561 154.276L99.1262 159.164L98.2726 157.774L106.677 152.694Z" fill="black"/>
</g>
<path d="M108.485 155.904C108.485 155.939 108.205 156.184 107.627 156.407C107.286 156.534 106.93 156.62 106.568 156.664C106.354 156.681 106.139 156.683 105.924 156.672C105.793 156.677 105.662 156.661 105.536 156.626C105.446 156.6 105.367 156.546 105.312 156.47C105.258 156.395 105.23 156.304 105.233 156.211C105.24 156.129 105.265 156.049 105.308 155.978C105.352 155.908 105.411 155.848 105.482 155.804C105.591 155.741 105.708 155.692 105.831 155.658C106.04 155.596 106.254 155.552 106.471 155.524C106.837 155.483 107.208 155.499 107.569 155.57C108.182 155.701 108.504 155.927 108.485 155.954C108.465 155.981 108.116 155.858 107.53 155.797C107.192 155.762 106.85 155.771 106.514 155.824C106.316 155.855 106.122 155.903 105.932 155.966C105.722 156.023 105.567 156.115 105.571 156.219C105.571 156.261 105.571 156.273 105.645 156.304C105.735 156.329 105.83 156.34 105.924 156.338C106.126 156.35 106.328 156.35 106.529 156.338C106.873 156.31 107.213 156.251 107.546 156.161C107.852 156.054 108.166 155.968 108.485 155.904Z" fill="#263238"/>
<path d="M108.446 156.073C108.427 156.104 108.081 155.908 107.728 155.39C107.402 154.903 107.217 154.337 107.193 153.754C107.171 153.615 107.186 153.473 107.236 153.342C107.287 153.21 107.371 153.094 107.48 153.005C107.557 152.961 107.645 152.939 107.734 152.943C107.822 152.947 107.908 152.977 107.98 153.028C108.083 153.101 108.174 153.187 108.252 153.285C108.636 153.75 108.819 154.346 108.76 154.944C108.694 155.582 108.403 155.885 108.372 155.862C108.44 155.556 108.488 155.245 108.516 154.933C108.515 154.604 108.444 154.279 108.306 153.98C108.226 153.807 108.121 153.645 107.996 153.5C107.86 153.335 107.705 153.231 107.647 153.289C107.593 153.351 107.554 153.423 107.531 153.501C107.508 153.58 107.503 153.662 107.515 153.742C107.518 153.938 107.54 154.134 107.581 154.326C107.649 154.656 107.765 154.974 107.926 155.27C108.209 155.781 108.485 156.035 108.446 156.073Z" fill="#263238"/>
<path d="M90.598 168.192L90.0897 178.322C90.0897 178.322 100.69 181.452 100.519 183.936L80.5721 183.909L80.6691 168.031L90.598 168.192Z" fill="#C886D3"/>
<g opacity="0.6">
<path d="M83.9554 177.373C83.7631 177.428 83.5981 177.552 83.4921 177.72C83.386 177.888 83.3466 178.088 83.3812 178.284C83.4284 178.476 83.5488 178.643 83.7172 178.749C83.8856 178.856 84.0891 178.894 84.2852 178.856C84.4889 178.797 84.6632 178.665 84.7749 178.486C84.8866 178.308 84.9278 178.095 84.8905 177.888C84.8192 177.693 84.6741 177.533 84.4858 177.442C84.2976 177.351 84.0809 177.336 83.8817 177.4" fill="white"/>
</g>
<g opacity="0.6">
<path d="M80.5721 183.898L80.5449 182.243L99.5802 182.45C99.5802 182.45 100.519 183.111 100.519 183.925L80.5721 183.898Z" fill="white"/>
</g>
<path d="M90.404 178.214C90.404 178.31 89.9112 178.349 89.4301 178.652C88.949 178.956 88.689 179.355 88.5998 179.317C88.5106 179.278 88.6619 178.721 89.2516 178.368C89.8414 178.015 90.4389 178.126 90.404 178.214Z" fill="#263238"/>
<path d="M92.4876 179.098C92.5108 179.19 92.0996 179.347 91.7504 179.75C91.4012 180.154 91.3158 180.58 91.2188 180.576C91.1218 180.572 91.0675 180.027 91.4943 179.535C91.9211 179.044 92.4876 179.005 92.4876 179.098Z" fill="#263238"/>
<path d="M93.6399 181.582C93.5507 181.605 93.4226 181.121 93.6787 180.599C93.9348 180.077 94.3926 179.873 94.4314 179.954C94.4702 180.035 94.187 180.311 93.9814 180.745C93.7757 181.179 93.7369 181.575 93.6399 181.582Z" fill="#263238"/>
<path d="M90.2721 175.895C90.2294 175.98 89.7871 175.841 89.2361 175.872C88.6852 175.903 88.2584 176.068 88.2079 175.983C88.1575 175.899 88.5765 175.565 89.2206 175.538C89.8647 175.511 90.3225 175.818 90.2721 175.895Z" fill="#263238"/>
<g opacity="0.3">
<path d="M90.2527 175.354L90.1363 177.37L80.5915 177.124L80.6031 175.496L90.2527 175.354Z" fill="black"/>
</g>
<path d="M90.338 173.849C90.0098 173.93 89.6657 173.923 89.3409 173.829C88.7699 173.718 88.225 173.502 87.7345 173.192C87.6241 173.129 87.5245 173.048 87.4397 172.954C87.3757 172.886 87.3371 172.798 87.33 172.705C87.323 172.612 87.348 172.52 87.4009 172.443C87.4505 172.377 87.5148 172.323 87.5888 172.286C87.6629 172.249 87.7446 172.229 87.8277 172.228C87.9591 172.229 88.0897 172.249 88.2157 172.286C88.4278 172.339 88.6343 172.413 88.8326 172.505C89.1665 172.659 89.4741 172.863 89.7444 173.111C90.1983 173.541 90.3497 173.902 90.3186 173.921C90.2876 173.941 90.0548 173.649 89.5892 173.292C89.3179 173.087 89.0221 172.917 88.7084 172.785C88.5237 172.709 88.3329 172.649 88.1381 172.604C87.9285 172.547 87.7501 172.543 87.6919 172.635C87.6337 172.727 87.6725 172.685 87.7151 172.746C87.7792 172.813 87.8523 172.869 87.9324 172.915C88.1 173.029 88.275 173.132 88.4562 173.223C88.7613 173.38 89.0809 173.509 89.4107 173.607C89.7253 173.665 90.0353 173.746 90.338 173.849Z" fill="#263238"/>
<path d="M90.2061 173.983C90.0237 173.699 89.9368 173.366 89.9578 173.031C89.9468 172.665 89.998 172.3 90.1091 171.952C90.1755 171.744 90.264 171.545 90.3729 171.356C90.4279 171.227 90.5158 171.114 90.628 171.029C90.7402 170.943 90.8729 170.888 91.0132 170.869C91.1015 170.872 91.1871 170.9 91.26 170.95C91.3328 170.999 91.3899 171.068 91.4244 171.149C91.4755 171.264 91.5082 171.385 91.5214 171.51C91.5565 171.73 91.5565 171.954 91.5214 172.174C91.4613 172.543 91.3107 172.891 91.083 173.188C90.695 173.691 90.2798 173.802 90.2721 173.768C90.2643 173.733 90.5825 173.537 90.8851 173.054C91.0617 172.774 91.1743 172.459 91.2149 172.132C91.24 171.942 91.24 171.75 91.2149 171.56C91.1877 171.352 91.1102 171.176 91.0287 171.203C90.9472 171.23 90.7609 171.356 90.6756 171.521C90.405 171.982 90.2481 172.499 90.2178 173.031C90.1634 173.61 90.2604 173.971 90.2061 173.983Z" fill="#263238"/>
<path d="M61.661 81.6847L62.7784 81.2162C62.437 80.6786 65.1064 85.8242 68.7303 85.8588C73.689 85.9049 74.1856 81.0127 74.1856 81.0127L74.4456 81.0473L82.5936 89.4069L83.6683 112.831L82.7837 115.838L65.2771 122.112L59.17 110.082L58.6307 102.666L61.661 81.6847Z" fill="#F5F5F5"/>
<path d="M62.1925 81.4082C62.1925 81.4082 52.2481 83.6469 50.6262 87.8479C49.9123 89.7026 49.6834 119.62 49.6834 119.62C49.6834 119.62 48.4457 122.358 48.5194 128.007C48.597 133.421 52.2132 136.919 56.7295 137.933C56.7295 137.933 57.9168 129.427 62.6775 125.161C67.1861 121.121 67.6012 121.613 67.6012 121.613L66.5148 111.856L65.3858 103.361C64.2567 97.2943 65.5293 90.7125 63.4458 84.8949L62.1925 81.4082Z" fill="#C886D3"/>
<path d="M83.1872 87.3715L89.9694 116.897L82.6789 115.258L80.3509 97.5398L74.368 81.0278C74.368 81.0278 75.3729 81.1584 76.6688 81.3581C78.2387 81.5993 79.6994 82.3015 80.8615 83.3736C82.0237 84.4458 82.8339 85.8385 83.1872 87.3715Z" fill="#C886D3"/>
<g opacity="0.3">
<path d="M49.7532 124.704C49.7503 124.883 49.7933 125.06 49.8781 125.219C49.9629 125.377 50.0868 125.512 50.2382 125.61C50.5434 125.803 50.888 125.926 51.247 125.971C52.9271 126.263 54.6537 125.948 56.291 125.434C58.1388 124.795 59.9373 124.025 61.6726 123.13C64.245 121.87 65.0559 121.298 67.4926 119.781C64.9706 120.803 64.1364 120.933 61.4747 121.532C57.5055 122.435 53.3267 122.88 49.7532 124.777" fill="black"/>
</g>
<path d="M64.3459 113.549L68.7808 112.604C68.7808 112.604 73.8791 109.79 75.0237 109.793C76.0519 109.793 80.122 111.621 80.9213 111.982C81.0106 112.022 81.0843 112.089 81.1308 112.174C81.184 112.261 81.2191 112.358 81.2343 112.459C81.2494 112.559 81.2442 112.662 81.2189 112.76C81.1936 112.859 81.1488 112.952 81.0871 113.033C81.0253 113.114 80.9479 113.183 80.8592 113.234L80.7855 113.276L80.8359 113.38C80.9046 113.513 80.948 113.658 80.964 113.806C80.9742 113.919 80.9476 114.032 80.8882 114.129C80.8287 114.226 80.7396 114.301 80.6337 114.344C80.5278 114.387 80.4109 114.395 80.2999 114.367C80.189 114.34 80.0899 114.278 80.0172 114.19L80.1957 114.413C80.2699 114.501 80.3158 114.61 80.3276 114.724L80.3509 114.947C80.3647 115.068 80.3409 115.191 80.2827 115.298C80.2245 115.406 80.1346 115.494 80.025 115.55C79.9205 115.603 79.803 115.625 79.6862 115.614C79.5693 115.603 79.4581 115.559 79.3654 115.488C78.8183 115.054 77.6427 114.202 76.9443 114.202C76.1931 114.232 75.445 114.314 74.7055 114.448C74.5546 114.474 74.4151 114.545 74.3046 114.65C74.1941 114.755 74.1176 114.891 74.0847 115.039C74.4921 115 77.5457 115.999 78.6282 116.356C78.7951 116.408 78.9469 116.499 79.0705 116.621C79.1942 116.743 79.286 116.894 79.3382 117.059C79.4236 117.358 79.3382 117.708 78.6825 117.665C77.3534 117.497 76.0385 117.232 74.7482 116.874C74.7482 116.874 73.46 116.728 72.7578 117.412C71.7684 118.372 71.3028 118.744 70.2901 118.583C69.6742 118.484 69.0716 118.317 68.4936 118.084L66.8873 118.387L64.3459 113.549Z" fill="#FFBE9D"/>
<path d="M73.6851 112.739C74.0108 112.621 74.3423 112.52 74.6783 112.435C75.4955 112.249 76.3456 112.256 77.1594 112.456C77.9732 112.656 78.7277 113.044 79.3615 113.587C79.8465 114.002 80.0832 114.329 80.0987 114.313C80.053 114.232 79.9983 114.156 79.9357 114.087C79.7759 113.888 79.5994 113.703 79.4081 113.534C78.7748 112.967 78.0093 112.566 77.1804 112.365C76.3514 112.164 75.485 112.169 74.6589 112.382C74.4103 112.442 74.1675 112.525 73.9334 112.627C73.8467 112.655 73.7634 112.693 73.6851 112.739Z" fill="#EB996E"/>
<path d="M74.042 111.36C74.3688 111.201 74.7141 111.082 75.0702 111.007C75.9396 110.862 76.8326 110.963 77.6465 111.299C78.4569 111.645 79.2175 112.095 79.9086 112.639L80.5449 113.123C80.6188 113.187 80.6995 113.244 80.7855 113.292C80.7207 113.219 80.6493 113.152 80.5721 113.092C80.4285 112.969 80.219 112.792 79.9513 112.581C79.2674 112.016 78.5041 111.551 77.6853 111.203C76.8545 110.858 75.9392 110.764 75.0547 110.934C74.7854 110.99 74.5246 111.08 74.2787 111.203C74.1895 111.245 74.1313 111.291 74.0886 111.314C74.0459 111.337 74.0381 111.36 74.042 111.36Z" fill="#EB996E"/>
<path d="M56.648 88.7655L54.4325 112.347H53.8039L63.8493 112.547L67.4809 119.77C67.4809 119.77 54.3122 126.109 48.6862 124.378C42.0126 122.304 43.9177 114.939 43.9681 112.335C43.9681 111.878 47.7201 89.9712 51.3401 86.688C51.3324 86.6727 56.1164 86.9875 56.648 88.7655Z" fill="#C886D3"/>
<path d="M56.9429 95.3474C56.9451 95.5611 56.9269 95.7745 56.8886 95.9849C56.8265 96.4265 56.745 97.0063 56.6519 97.709C56.4268 99.1951 56.1242 101.184 55.7905 103.381C55.4568 105.577 55.1503 107.605 54.9447 109.056C54.8438 109.755 54.7584 110.335 54.6925 110.777C54.6742 110.99 54.6352 111.201 54.5761 111.406C54.5723 111.193 54.5853 110.98 54.6149 110.769C54.6498 110.358 54.7119 109.767 54.7972 109.037C54.968 107.578 55.2434 105.581 55.5732 103.35C55.903 101.119 56.2484 99.126 56.4928 97.686C56.617 96.9909 56.7178 96.4111 56.7954 95.9733C56.8287 95.7613 56.878 95.5521 56.9429 95.3474Z" fill="#263238"/>
<path d="M56.1824 85.1904C56.1824 85.1904 56.2639 85.2711 56.3764 85.4362C56.5366 85.6747 56.678 85.925 56.7993 86.185C56.9869 86.5664 57.1401 86.9635 57.2572 87.3715C57.4006 87.8744 57.5018 88.3882 57.5598 88.9075C57.6568 89.8433 57.6568 90.7865 57.5598 91.7223C57.5434 92.1113 57.4849 92.4976 57.3852 92.8743C57.3658 92.4901 57.3749 92.1051 57.4124 91.7223C57.4593 90.795 57.4347 89.8656 57.3386 88.9421C57.2814 88.437 57.188 87.9365 57.0593 87.4445C56.9543 87.0441 56.8247 86.6504 56.6713 86.2656C56.388 85.5859 56.1514 85.2096 56.1824 85.1904Z" fill="#263238"/>
<path d="M48.6707 124.362C48.7028 124.356 48.7357 124.356 48.7677 124.362L49.051 124.435C49.4164 124.515 49.7873 124.569 50.1606 124.597C51.5362 124.646 52.9124 124.517 54.254 124.213C55.1076 124.032 56.0505 123.829 57.0438 123.61C58.037 123.391 59.0652 122.976 60.1478 122.581C62.3089 121.774 64.6641 120.826 67.1318 119.8L67.4383 119.67L67.384 119.808L63.76 112.581L63.8454 112.635C62.2274 112.635 60.7414 112.531 59.4338 112.493C58.1263 112.454 56.9623 112.416 56.0117 112.424C55.0611 112.431 54.3122 112.47 53.8001 112.524C53.2879 112.577 53.0241 112.623 53.0241 112.608C53.0874 112.587 53.1522 112.572 53.2181 112.562C53.35 112.535 53.544 112.493 53.8001 112.462C54.5353 112.373 55.2749 112.324 56.0156 112.316C56.97 112.293 58.1224 112.316 59.4416 112.339C60.7608 112.362 62.243 112.443 63.8454 112.447H63.9036L63.9308 112.497C65.021 114.659 66.2588 117.105 67.5741 119.716L67.6245 119.812L67.5236 119.854L67.2171 119.985C64.7572 121.014 62.3982 121.958 60.2331 122.753C59.1467 123.137 58.1108 123.521 57.1058 123.771C56.1009 124.021 55.1658 124.178 54.3045 124.351C52.9495 124.652 51.5585 124.763 50.1723 124.681C49.6582 124.652 49.1517 124.544 48.6707 124.362Z" fill="#263238"/>
<path d="M55.5926 112.409C55.5655 112.432 55.3404 112.178 54.8904 111.898C54.2975 111.543 53.6371 111.313 52.9504 111.222C52.2555 111.137 51.5541 111.115 50.8552 111.157C50.5622 111.184 50.2673 111.184 49.9744 111.157C50.2558 111.068 50.5483 111.017 50.8435 111.007C51.5533 110.918 52.2716 110.918 52.9814 111.007C53.7017 111.099 54.3888 111.362 54.9835 111.775C55.2363 111.933 55.4455 112.151 55.5926 112.409Z" fill="#263238"/>
<g opacity="0.3">
<path d="M55.4219 112.378C53.9941 112.165 52.5363 112.268 51.1539 112.681C50.3081 112.938 49.4545 113.342 48.9811 114.083C48.8259 114.321 48.7328 114.663 48.9384 114.851C49.0414 114.92 49.1623 114.959 49.2867 114.962C49.4112 114.965 49.534 114.933 49.6407 114.87C50.1211 114.63 50.5694 114.332 50.9754 113.983C51.6457 113.454 52.3892 113.024 53.1832 112.704C53.9815 112.388 54.8488 112.28 55.7013 112.393" fill="black"/>
</g>
<g opacity="0.3">
<path d="M54.9796 111.871C54.6808 111.041 53.5789 110.266 52.8689 110.028C51.2509 109.482 49.3769 109.279 47.9568 110.197C47.8732 110.236 47.8002 110.295 47.7436 110.368C47.687 110.44 47.6484 110.525 47.6309 110.615C47.6309 110.869 47.9063 111.022 48.1547 111.091C49.1751 111.368 50.2576 111.199 51.313 111.091C52.3683 110.984 53.4974 110.976 54.417 111.51" fill="black"/>
</g>
<g opacity="0.3">
<path d="M54.6459 110.834C56.8344 106.264 57.5911 101.15 56.8187 96.1499L54.6459 110.834Z" fill="black"/>
</g>
<path d="M56.7372 137.948C56.7372 137.948 60.3301 140.306 67.4654 140.306C74.6008 140.306 76.2381 139.818 76.2381 139.818L82.9234 133.809L97.5898 159.23C97.5898 159.23 109.23 152.087 109.303 152.318C109.443 152.456 98.4395 128.237 96.0416 124.047C95.2372 122.677 94.3293 121.369 93.3256 120.134C92.1254 118.599 90.5098 117.433 88.6664 116.77C86.8231 116.107 84.8276 115.976 82.9117 116.39C80.8431 116.818 78.8055 117.381 76.8124 118.076C71.489 119.996 66.9766 121.302 63.1276 124.681C58.6617 128.586 55.9651 136.166 56.7372 137.948Z" fill="#263238"/>
<path d="M81.2549 130.883C81.2549 130.883 75.9782 134.496 76.1217 137.411C76.2381 139.837 79.5012 175.553 79.5012 175.553L92.4875 175.338L93.3799 151.949L81.2549 130.883Z" fill="#263238"/>
<path d="M94.4237 153.742C94.4003 153.715 94.3807 153.686 94.3655 153.654L94.2103 153.393C94.0667 153.147 93.8727 152.805 93.6283 152.375L91.5253 148.608L84.6538 136.143L81.9378 131.151L82.0387 131.201C81.0847 131.324 80.1694 131.652 79.3571 132.163C78.5447 132.673 77.855 133.352 77.3362 134.154C76.8997 134.84 76.6019 135.603 76.4593 136.401C76.3417 137.089 76.2936 137.788 76.3157 138.486C76.3506 139.757 76.4709 140.79 76.502 141.469C76.5214 141.819 76.5291 142.092 76.5291 142.272C76.536 142.364 76.536 142.456 76.5291 142.549C76.5103 142.457 76.5 142.365 76.4981 142.272C76.4981 142.076 76.4632 141.811 76.4399 141.477C76.3856 140.778 76.2498 139.772 76.1954 138.486C76.1614 137.78 76.2017 137.072 76.3157 136.374C76.4555 135.557 76.7547 134.774 77.1965 134.07C77.7236 133.239 78.4289 132.533 79.2623 132.002C80.0958 131.472 81.037 131.129 82.0193 130.998H82.0853L82.1163 131.059C82.9738 132.614 83.8972 134.3 84.8556 136.051L91.6728 148.543C92.5302 150.133 93.2248 151.427 93.7175 152.341L94.2646 153.377L94.4004 153.65C94.412 153.708 94.4276 153.738 94.4237 153.742Z" fill="#455A64"/>
<path d="M83.5713 126.025C82.9395 126.747 82.4672 127.592 82.1845 128.505C81.9019 129.418 81.8152 130.38 81.9301 131.328C81.8162 131.063 81.7556 130.779 81.7516 130.491C81.6476 129.094 82.0752 127.709 82.9505 126.609C83.1174 126.376 83.3282 126.178 83.5713 126.025Z" fill="#455A64"/>
<path d="M80.8398 125.038C80.8747 125.038 80.77 125.422 80.6924 125.994C80.5917 126.761 80.6127 127.538 80.7545 128.298C80.9 129.056 81.1617 129.788 81.5305 130.468C81.8215 130.99 82.0504 131.286 82.0232 131.305C81.7732 131.087 81.5643 130.827 81.4063 130.537C80.5573 129.172 80.2478 127.545 80.5372 125.967C80.5857 125.643 80.6879 125.329 80.8398 125.038Z" fill="#455A64"/>
<path d="M70.7169 108.634C70.6858 108.611 71.1049 108.161 71.5899 107.347C71.884 106.872 72.1434 106.377 72.3659 105.865C72.6323 105.237 72.8465 104.588 73.0061 103.926C73.1579 103.26 73.2552 102.583 73.2971 101.902C73.325 101.345 73.312 100.787 73.2583 100.232C73.169 99.2795 73.0099 98.6958 73.0487 98.6958C73.1065 98.8187 73.1507 98.9475 73.1807 99.0798C73.2284 99.236 73.2659 99.395 73.2932 99.556C73.3281 99.7441 73.3785 99.9592 73.4018 100.201C73.4761 100.762 73.5021 101.329 73.4794 101.895C73.4512 102.587 73.359 103.276 73.2039 103.953C73.0408 104.628 72.8175 105.287 72.5366 105.923C72.3042 106.44 72.0277 106.938 71.7101 107.409C71.59 107.592 71.4605 107.769 71.3221 107.939C71.2262 108.073 71.1212 108.202 71.0079 108.323C70.9259 108.439 70.8279 108.544 70.7169 108.634Z" fill="#263238"/>
<path d="M82.644 85.8242C82.644 85.8242 96.7245 109.763 97.0388 111.602C97.2716 112.969 96.8254 116.867 95.5644 117.362C92.0336 118.775 87.9518 117.136 84.2231 114.582L83.6644 114.198L82.644 85.8242Z" fill="#C886D3"/>
<path d="M20.6882 82.4718C20.6882 82.4718 22.8959 81.2008 23.4042 84.7374C23.9124 88.274 27.5519 114.206 27.5519 114.206L50.0753 113.994C50.0753 113.994 54.836 113.818 58.0642 123.414C60.3223 130.13 62.6271 152.982 62.6271 152.982L62.2003 169.517H21.4603C21.4603 169.517 20.2342 134.846 20.0247 119.424C19.8152 104.003 19.369 87.2104 20.6882 82.4718Z" fill="#455A64"/>
<path d="M22.7213 82.2415C22.7213 82.2415 22.7601 82.2799 22.8454 82.349C22.9647 82.4524 23.075 82.5654 23.1752 82.6869C23.5752 83.1588 23.8154 83.7431 23.862 84.3573C24.0599 85.9701 24.3431 88.301 24.6962 91.1925C25.4218 97.0024 26.4306 105.082 27.5674 114.206V114.298H27.6605L32.3592 114.202C37.4381 114.121 42.2804 114.087 46.6764 114.202C47.7744 114.236 48.8453 114.282 49.8852 114.363L50.6612 114.428C50.9134 114.451 51.1617 114.494 51.4139 114.528C51.9012 114.569 52.3667 114.746 52.7564 115.039C53.5017 115.62 54.1464 116.318 54.6653 117.105C55.169 117.823 55.629 118.571 56.0427 119.344C57.303 121.689 58.3321 124.149 59.1157 126.689C59.3377 127.378 59.5114 128.081 59.6356 128.794C59.6664 128.979 59.6859 129.167 59.6938 129.354C59.6938 129.481 59.6938 129.546 59.6938 129.546C59.7036 129.483 59.71 129.419 59.7132 129.354C59.7121 129.164 59.6979 128.974 59.6705 128.786C59.5633 128.069 59.4024 127.36 59.1894 126.666C58.9256 125.756 58.557 124.662 58.0681 123.41C57.5144 121.997 56.8797 120.616 56.1669 119.274C55.7517 118.495 55.2918 117.74 54.7895 117.013C54.2623 116.208 53.6072 115.494 52.8495 114.897L52.5313 114.693C52.4188 114.632 52.2985 114.586 52.186 114.528C52.0735 114.471 51.9377 114.451 51.798 114.413C51.6583 114.375 51.5458 114.375 51.41 114.355C51.1578 114.321 50.9017 114.275 50.634 114.252L49.858 114.183C48.8182 114.098 47.7434 114.052 46.6454 114.014C42.2416 113.879 37.3993 113.906 32.3165 113.987L27.614 114.087L27.7187 114.179C26.5547 105.055 25.5188 96.9794 24.7777 91.1733C24.3897 88.2818 24.0948 85.9547 23.8814 84.3458C23.826 83.7208 23.572 83.1293 23.1558 82.6562C23.0324 82.4975 22.886 82.3577 22.7213 82.2415Z" fill="#263238"/>
<path d="M52.2054 115.968C52.1567 115.979 52.1075 115.988 52.0579 115.995C51.9609 115.995 51.8174 116.033 51.6273 116.076C51.0782 116.188 50.5424 116.356 50.0287 116.579C49.2082 116.918 48.4494 117.387 47.7822 117.969C47.3596 118.325 46.97 118.718 46.6182 119.144L46.106 119.881L45.9741 120.073L45.8655 120.284L45.6482 120.707C45.5745 120.852 45.4969 120.995 45.4231 121.144C45.3494 121.294 45.3067 121.455 45.2447 121.613C45.1321 121.932 45.0041 122.25 44.8993 122.588C44.7093 123.295 44.5718 124.015 44.4881 124.742C44.4493 125.126 44.3911 125.51 44.3678 125.894C44.3445 126.278 44.3678 126.685 44.3678 127.092C44.3406 127.899 44.4143 128.74 44.4376 129.596C44.5928 133.025 44.8256 136.788 45.1477 140.732C45.5007 145.187 45.8849 149.395 46.2651 153.093L46.1759 153.013L58.0642 153.112L61.4359 153.155L62.3283 153.174H62.5572H62.6348C62.6348 153.174 62.6077 153.174 62.5572 153.174H62.3283H61.4359H58.0642L46.172 153.216H46.0905V153.135C45.7025 149.437 45.3145 145.225 44.9498 140.771C44.6471 136.819 44.3988 133.052 44.2553 129.635C44.232 128.774 44.1621 127.941 44.1932 127.123C44.1932 126.716 44.1932 126.313 44.1932 125.917C44.1932 125.522 44.2785 125.149 44.3173 124.765C44.4051 124.03 44.5491 123.302 44.748 122.588C44.8528 122.246 44.9886 121.924 45.1011 121.601C45.1632 121.44 45.2136 121.279 45.2835 121.125L45.5163 120.687L45.7413 120.257L45.8538 120.046C45.8965 119.981 45.9431 119.916 45.9896 119.854L46.5134 119.109C46.8659 118.681 47.2553 118.284 47.6774 117.923C48.3568 117.343 49.1292 116.88 49.9627 116.552C50.4888 116.322 51.0394 116.152 51.604 116.045C51.7941 116.01 51.9415 115.995 52.0424 115.983C52.0963 115.974 52.1507 115.969 52.2054 115.968Z" fill="#263238"/>
<path d="M51.9571 169.728C51.9028 169.728 51.8562 166.134 51.8562 161.699C51.8562 157.263 51.9028 153.665 51.9571 153.665C52.0114 153.665 52.058 157.26 52.058 161.699C52.058 166.138 52.0153 169.728 51.9571 169.728Z" fill="#263238"/>
<path d="M102.579 99.8055L79.6603 101.856C79.5565 101.865 79.4579 101.905 79.3771 101.97C79.2962 102.035 79.2368 102.122 79.2063 102.221L74.108 118.41C74.0845 118.488 74.0427 118.559 73.986 118.618C73.9294 118.677 73.8595 118.721 73.7821 118.748L64.9784 121.121C64.8481 121.163 64.7394 121.253 64.6753 121.372C64.6112 121.492 64.5969 121.631 64.6354 121.761C64.6739 121.891 64.7621 122.001 64.8813 122.067C65.0005 122.133 65.1411 122.151 65.2732 122.116L74.7443 120.131L96.0455 117.5C96.1403 117.489 96.2303 117.453 96.3061 117.396C96.3819 117.338 96.4406 117.262 96.4762 117.174L103.115 100.516C103.147 100.433 103.158 100.344 103.146 100.256C103.134 100.168 103.1 100.085 103.046 100.014C102.993 99.9426 102.922 99.8862 102.84 99.8498C102.758 99.8134 102.669 99.7981 102.579 99.8055Z" fill="#E0E0E0"/>
<path d="M102.579 99.8056C102.647 99.7904 102.717 99.7904 102.785 99.8056C102.885 99.8339 102.975 99.8903 103.044 99.968C103.113 100.046 103.158 100.141 103.173 100.243C103.179 100.394 103.146 100.543 103.076 100.677C103.018 100.831 102.952 100.996 102.882 101.173L102.397 102.417C101.656 104.291 100.585 107.006 99.2504 110.392L97.0388 115.968L96.7361 116.736L96.5848 117.12C96.5415 117.277 96.4423 117.414 96.3055 117.504C96.2363 117.548 96.158 117.575 96.0765 117.585L95.8631 117.615L95.4363 117.665L94.575 117.773L90.986 118.222L74.7598 120.238L69.84 121.26L67.3219 121.79L66.0453 122.055L65.409 122.189C65.2911 122.225 65.1667 122.236 65.0443 122.22C64.9144 122.196 64.7951 122.133 64.7029 122.039C64.6309 121.964 64.579 121.872 64.5519 121.772C64.5248 121.672 64.5233 121.567 64.5476 121.467C64.5719 121.366 64.6211 121.273 64.6909 121.196C64.7607 121.119 64.8488 121.06 64.9473 121.025L73.7588 118.656C73.8307 118.63 73.8945 118.586 73.9441 118.528C73.9937 118.47 74.0275 118.4 74.042 118.326L74.205 117.807L74.5309 116.778C74.7482 116.095 74.9616 115.416 75.1711 114.743C75.5979 113.399 76.0144 112.081 76.4205 110.788C77.2353 108.2 78.0113 105.728 78.7485 103.373C78.8416 103.081 78.9347 102.789 79.0239 102.501C79.0652 102.348 79.1197 102.199 79.1869 102.056C79.2336 101.982 79.2959 101.918 79.3695 101.87C79.4431 101.821 79.5264 101.789 79.6137 101.775L81.3946 101.618L84.7819 101.322L90.8153 100.792L99.4521 100.051L101.78 99.8593L102.382 99.8171H102.583L102.382 99.844L101.784 99.9092L99.456 100.132L90.8269 100.931L84.7974 101.484L81.4101 101.791L79.6409 101.952C79.5774 101.962 79.5168 101.985 79.4632 102.02C79.4096 102.055 79.3643 102.102 79.3305 102.156C79.2731 102.288 79.2252 102.424 79.1869 102.563L78.9153 103.438C78.1781 105.788 77.4021 108.26 76.5873 110.853C76.1838 112.149 75.7699 113.468 75.3457 114.812C75.1362 115.486 74.9228 116.164 74.7055 116.847C74.6007 117.189 74.4921 117.531 74.3835 117.877L74.2205 118.395C74.1969 118.499 74.1472 118.595 74.076 118.675C74.0047 118.755 73.9143 118.816 73.8131 118.852L65.0133 121.225C64.9465 121.249 64.8868 121.288 64.8394 121.341C64.7921 121.393 64.7586 121.456 64.7421 121.524C64.7255 121.592 64.7264 121.664 64.7446 121.731C64.7628 121.799 64.7978 121.861 64.8464 121.912C64.9087 121.975 64.9884 122.018 65.0753 122.035C65.1706 122.046 65.2672 122.037 65.3586 122.008L65.9988 121.874L67.2714 121.605L69.7934 121.079L74.7249 120.046L90.9549 118.057L94.5439 117.619L95.4053 117.512L95.8321 117.462C95.9665 117.461 96.099 117.431 96.2201 117.374C96.3255 117.308 96.4017 117.205 96.4335 117.086L96.5887 116.702L96.8913 115.934C97.6984 113.925 98.4433 112.063 99.1223 110.369C100.484 106.99 101.571 104.283 102.323 102.413C102.513 101.948 102.68 101.537 102.824 101.176L103.026 100.685C103.096 100.56 103.131 100.418 103.127 100.274C103.115 100.178 103.076 100.086 103.014 100.011C102.952 99.9356 102.87 99.879 102.777 99.8478C102.713 99.8268 102.647 99.8127 102.579 99.8056Z" fill="#263238"/>
<path d="M80.5177 101.779C80.5112 101.844 80.4982 101.909 80.4789 101.971C80.4401 102.117 80.3936 102.298 80.3354 102.513C80.2073 102.985 80.0133 103.665 79.765 104.494C79.2684 106.161 78.5428 108.457 77.728 110.984C76.9132 113.51 76.176 115.772 75.6367 117.454L75.0043 119.424L74.8258 119.954C74.8072 120.018 74.7811 120.08 74.7482 120.138C74.7516 120.072 74.7633 120.006 74.7831 119.943C74.8219 119.797 74.8723 119.62 74.9267 119.401C75.0547 118.933 75.2526 118.249 75.5009 117.423C75.9975 115.753 76.7192 113.461 77.5379 110.93C78.3566 108.399 79.0899 106.142 79.6292 104.46L80.2617 102.497L80.4401 101.967C80.4551 101.901 80.4814 101.837 80.5177 101.779Z" fill="#263238"/>
<path d="M89.3137 108.388C89.1417 108.381 88.9703 108.415 88.8143 108.487C88.6583 108.559 88.5221 108.667 88.4175 108.803C88.2922 108.91 88.2018 109.051 88.1576 109.209C88.1134 109.367 88.1174 109.534 88.1691 109.69C88.2244 109.798 88.3071 109.89 88.409 109.958C88.511 110.025 88.6289 110.065 88.7511 110.074C88.9946 110.085 89.2357 110.022 89.4418 109.893C89.5911 109.82 89.7199 109.712 89.8167 109.578C89.9135 109.444 89.9753 109.289 89.9966 109.125C90 108.939 89.9311 108.759 89.804 108.622C89.6769 108.484 89.5014 108.401 89.3137 108.388Z" fill="white"/>
<path d="M86.524 101.119C86.4477 100.966 86.3866 100.807 86.3416 100.643L85.8993 99.3218C85.5113 98.2082 84.9953 96.6799 84.3473 95.0056C83.6993 93.3314 83.0708 91.8376 82.5974 90.7816L82.0271 89.4722C81.9489 89.3188 81.8865 89.158 81.8408 88.9922C81.9427 89.1308 82.0285 89.2802 82.0969 89.4376C82.2521 89.7295 82.4616 90.1557 82.7138 90.6895C83.2182 91.7531 83.8778 93.2431 84.518 94.9135C85.1582 96.5839 85.682 98.1314 86.0157 99.2565C86.1864 99.821 86.3145 100.278 86.4037 100.597C86.4658 100.765 86.5062 100.941 86.524 101.119Z" fill="#263238"/>
<path d="M181.584 184.001C181.584 184.059 143.89 184.101 97.388 184.101C50.8862 184.101 13.192 184.059 13.192 184.001C13.192 183.944 50.8784 183.901 97.388 183.901C143.898 183.901 181.584 183.936 181.584 184.001Z" fill="#263238"/>
</svg>
