<svg width="40" height="42" viewBox="0 0 40 42" fill="none" xmlns="http://www.w3.org/2000/svg">
<g clip-path="url(#clip0_9_411)">
<path d="M29.12 14.448C28.8 14.28 28.32 14.28 28 14.448L18.08 25.2L13.44 20.16C13.12 19.824 12.64 19.824 12.32 20.16C12 20.496 12 21 12.16 21.336L17.44 26.88H17.6C17.6 26.88 17.76 26.88 17.76 27.048H18.4C18.4 27.048 18.56 27.048 18.56 26.88H18.72L29.28 15.624C29.28 15.288 29.28 14.784 29.12 14.448Z" fill="#EAD1EE" stroke="white" stroke-width="0.78125"/>
<path d="M20 42C8.96 42 0 32.592 0 21C0 9.408 8.96 0 20 0C31.04 0 40 9.408 40 21C40 32.592 31.04 42 20 42ZM20 1.68C9.92 1.68 1.6 10.416 1.6 21C1.6 31.584 9.92 40.32 20 40.32C30.08 40.32 38.4 31.584 38.4 21C38.4 10.416 30.08 1.68 20 1.68Z" fill="#EAD1EE" stroke="white" stroke-width="0.78125"/>
</g>
<defs>
<clipPath id="clip0_9_411">
<rect width="40" height="42" fill="white"/>
</clipPath>
</defs>
</svg>
