<svg width="50" height="40" viewBox="0 0 50 40" fill="none" xmlns="http://www.w3.org/2000/svg">
<path d="M50 24.073L43.5468 16.9409L50 11.0225V24.073Z" fill="#0D47A1"/>
<path d="M6.46094 16.9409L0 24.0813V11.0225L6.46094 16.9409Z" fill="#0D47A1"/>
<path d="M50 30.5572V37.1239C50 38.7117 48.7891 40.0003 47.2969 40.0003H2.70312C1.21084 40.0003 0 38.7118 0 37.1239V30.5572L9.66397 19.8838L20.7031 30C21.8516 31.0476 23.3749 31.6295 25 31.6295C26.6251 31.6295 28.1562 31.0476 29.3047 30L40.3358 19.8838L50 30.5572Z" fill="#0D47A1"/>
<path d="M50 2.86782V5.74394L26.4217 27.3565C25.6639 28.0547 24.3358 28.0547 23.578 27.3565L0 5.74394V2.86782C0 1.28023 1.21074 0 2.70312 0H47.2969C48.7891 0 50 1.28023 50 2.86782Z" fill="#0D47A1"/>
</svg>
