<svg width="60" height="60" viewBox="0 0 60 60" fill="none" xmlns="http://www.w3.org/2000/svg">
<path fill-rule="evenodd" clip-rule="evenodd" d="M28.7325 53.7931H2.97005C2.1826 53.7928 1.4275 53.4798 0.870792 52.9229C0.314084 52.3659 0.00135819 51.6107 0.00135824 50.8233V2.96982C0.00121097 2.57978 0.0779216 2.19353 0.227117 1.83314C0.376313 1.47276 0.595057 1.14532 0.870861 0.86952C1.14666 0.593716 1.47412 0.374955 1.8345 0.225759C2.19488 0.0765636 2.58113 -0.000147058 2.97118 2.11646e-07H50.8258C51.2157 1.8386e-07 51.6018 0.0768226 51.9621 0.226084C52.3223 0.375346 52.6496 0.594124 52.9253 0.869913C53.201 1.1457 53.4197 1.47311 53.5688 1.83342C53.7179 2.19373 53.7946 2.57987 53.7945 2.96982V50.8233C53.7945 51.6107 53.4817 52.3659 52.925 52.9229C52.3683 53.4798 51.6132 53.7928 50.8258 53.7931H37.1175V32.9617H44.1106L45.1573 24.8434H37.1175V19.6603C37.1175 17.3091 37.7708 15.7076 41.1408 15.7076L45.4397 15.7054V8.4444C44.6967 8.34578 42.1449 8.125 39.175 8.125C32.9776 8.125 28.7336 11.9084 28.7336 18.8556V24.8434H21.7237V32.9617H28.7336V53.7931H28.7325Z" fill="#4460A0"/>
</svg>
