<svg width="60" height="60" viewBox="0 0 60 60" fill="none" xmlns="http://www.w3.org/2000/svg">
<path fill-rule="evenodd" clip-rule="evenodd" d="M11.4165 27.2727C11.4165 25.5012 11.7171 23.8029 12.2537 22.2099L2.86173 15.1909C1.03129 18.8281 0 22.9265 0 27.2727C0 31.6153 1.03002 35.7112 2.85793 39.3459L12.2448 32.3132C11.7133 30.7277 11.4165 29.0355 11.4165 27.2727Z" fill="#FBBC05"/>
<path fill-rule="evenodd" clip-rule="evenodd" d="M27.907 11.157C31.8393 11.157 35.3911 12.5207 38.1818 14.7521L46.3002 6.81818C41.3531 2.60331 35.0106 0 27.907 0C16.8786 0 7.40041 6.17231 2.86172 15.1909L12.2537 22.2099C14.4178 15.781 20.5865 11.157 27.907 11.157Z" fill="#EB4335"/>
<path fill-rule="evenodd" clip-rule="evenodd" d="M27.9069 43.3883C20.5864 43.3883 14.4177 38.7644 12.2537 32.3354L2.86169 39.3532C7.40038 48.3731 16.8786 54.5454 27.9069 54.5454C34.7137 54.5454 41.2122 52.1801 46.0896 47.7483L37.1746 41.0032C34.6592 42.554 31.4917 43.3883 27.9069 43.3883Z" fill="#34A853"/>
<path fill-rule="evenodd" clip-rule="evenodd" d="M54.5455 27.2726C54.5455 25.6611 54.2918 23.9255 53.9112 22.314H27.907V32.8512H42.8753C42.1269 36.4437 40.0897 39.2057 37.1747 41.0032L46.0897 47.7483C51.2131 43.0945 54.5455 36.1623 54.5455 27.2726Z" fill="#4285F4"/>
</svg>
