<svg width="627" height="628" viewBox="0 0 627 628" fill="none" xmlns="http://www.w3.org/2000/svg">
<path d="M502.678 250.572C499.613 234.366 495.696 218.334 490.941 202.542C476.645 156.837 448.192 110.591 399.324 95.0414C363.246 83.5742 324.309 91.487 293.825 114.861C246.01 151.511 211.211 201.525 158.894 233.264C115.218 259.778 92.3571 302.608 107.041 363.147C121.726 423.686 170.782 458.955 224.466 454.672C269.083 451.067 315.732 454.923 354.305 476.614C388.778 495.994 449.684 479.126 500.07 426.186C529.426 395.326 526.58 356.089 517.012 319.426C511.093 296.717 507.256 273.557 502.678 250.572Z" fill="#0D47A1"/>
<path opacity="0.7" d="M502.678 250.572C499.614 234.366 495.696 218.334 490.941 202.543C476.645 156.837 448.192 110.591 399.324 95.0414C363.246 83.5742 324.309 91.487 293.825 114.861C246.01 151.511 211.211 201.525 158.894 233.264C115.218 259.778 92.3571 302.608 107.041 363.147C121.726 423.686 170.782 458.955 224.466 454.672C269.083 451.067 315.732 454.923 354.305 476.614C388.778 495.994 449.684 479.126 500.07 426.186C529.426 395.326 526.58 356.089 517.012 319.426C511.093 296.717 507.256 273.557 502.678 250.572Z" fill="white"/>
<path d="M553.528 531.891C553.528 535.809 446.938 539 315.494 539C184.05 539 77.447 535.809 77.447 531.891C77.447 527.972 184.037 524.782 315.494 524.782C446.951 524.782 553.528 527.972 553.528 531.891Z" fill="#0D47A1"/>
<path opacity="0.3" d="M553.528 531.891C553.528 535.809 446.938 539 315.494 539C184.05 539 77.447 535.809 77.447 531.891C77.447 527.972 184.037 524.782 315.494 524.782C446.951 524.782 553.528 527.972 553.528 531.891Z" fill="white"/>
<path d="M507.958 395.025C507.958 395.087 511.181 391.696 511.356 391.458C513.4 388.719 515.745 382.213 513.526 379.086C513.143 378.578 512.658 378.157 512.102 377.849C511.547 377.541 510.932 377.354 510.3 377.299C509.667 377.245 509.03 377.324 508.43 377.533C507.83 377.741 507.28 378.073 506.817 378.508C504.785 380.292 504.309 383.595 504.484 386.145C504.697 389.134 507.958 395.012 507.958 395.025Z" fill="#0D47A1"/>
<path d="M537.251 383.344C534.116 381.146 527.646 383.545 524.924 385.604C524.686 385.793 521.325 389.008 521.388 389.033H521.463C520.435 389.41 519.344 389.812 518.153 390.289C515.971 391.168 513.513 392.198 510.905 393.479C508.089 394.851 505.351 396.377 502.704 398.051C499.737 399.917 496.942 402.044 494.352 404.407C494.32 404.433 494.29 404.462 494.264 404.495C494.816 403.527 496.283 400.727 496.371 400.526C497.625 397.335 498.164 390.478 495.205 388.028C494.698 387.642 494.117 387.366 493.497 387.219C492.877 387.072 492.234 387.058 491.608 387.176C490.983 387.294 490.389 387.543 489.866 387.907C489.342 388.27 488.901 388.739 488.571 389.284C487.091 391.545 487.492 394.848 488.345 397.26C489.298 399.986 493.625 404.482 493.976 404.796C491.393 407.264 488.98 409.903 486.753 412.696C485.499 414.316 484.182 415.987 482.991 417.72C483.442 416.866 483.843 416.087 483.881 415.974C485.135 412.797 485.674 405.926 482.715 403.477C482.21 403.091 481.629 402.815 481.01 402.668C480.392 402.522 479.749 402.507 479.124 402.625C478.5 402.744 477.907 402.993 477.385 403.356C476.863 403.719 476.423 404.188 476.094 404.733C474.601 406.981 475.015 410.297 475.855 412.696C476.696 415.095 480.332 419.064 481.298 420.082L479.831 422.016C477.573 425.168 475.341 428.296 473.046 431.335C472.244 432.403 471.416 433.433 470.538 434.45C470.94 433.684 471.278 433.043 471.316 432.943C472.57 429.753 473.109 422.895 470.15 420.383C469.644 419.994 469.062 419.717 468.443 419.569C467.823 419.421 467.178 419.406 466.552 419.524C465.926 419.643 465.332 419.893 464.809 420.257C464.285 420.621 463.845 421.092 463.516 421.639C462.024 423.9 462.438 427.203 463.29 429.615C464.143 432.026 467.403 435.593 468.545 436.811C467.667 437.841 466.789 438.859 465.886 439.813C465.259 440.454 464.707 441.069 464.03 441.71L462.112 443.518C460.858 444.624 459.604 445.779 458.287 446.834C457.409 447.575 456.569 448.254 455.779 448.944C456.581 447.902 458.136 445.804 458.287 445.616C459.699 442.959 460.408 439.984 460.343 436.975C460.511 436.686 460.653 436.383 460.77 436.07C461.004 435.478 461.112 434.843 461.085 434.207C461.059 433.57 460.899 432.946 460.617 432.375C460.334 431.804 459.935 431.3 459.445 430.893C458.955 430.487 458.385 430.188 457.773 430.016C454.011 429.1 448.869 433.659 447.076 436.573C446.976 436.749 446.023 438.733 445.458 440.002C445.672 439.21 445.91 438.432 446.123 437.615C446.574 435.995 446.976 434.362 447.377 432.591C447.553 431.737 447.741 430.871 447.929 430.004C448.117 429.137 448.23 428.208 448.393 427.304C448.706 425.193 448.932 423.046 449.12 420.873C450.537 421.262 455.591 422.581 458.124 422.129C460.657 421.677 463.754 420.546 465.033 418.172C465.357 417.624 465.562 417.013 465.634 416.38C465.705 415.747 465.643 415.106 465.45 414.498C465.257 413.891 464.938 413.332 464.514 412.857C464.09 412.382 463.57 412.002 462.989 411.742C459.453 410.26 453.647 413.99 451.427 416.59C451.29 416.753 449.91 418.8 449.17 419.943C449.271 418.687 449.371 417.331 449.434 416C449.584 412.232 449.634 408.3 449.697 404.432C449.697 403.251 449.697 402.07 449.772 400.89C450.274 401.028 456.255 402.724 459.089 402.284C461.597 401.907 464.72 400.714 466.011 398.328C466.331 397.777 466.532 397.166 466.601 396.533C466.669 395.901 466.605 395.26 466.411 394.654C466.217 394.048 465.898 393.489 465.475 393.014C465.052 392.539 464.534 392.159 463.955 391.897C460.431 390.427 454.613 394.158 452.393 396.758C452.23 396.946 450.249 399.898 449.772 400.676C449.835 398.076 449.923 395.476 450.111 392.927C450.353 389.48 450.813 386.053 451.49 382.665C451.728 382.665 457.961 384.524 460.87 384.072C463.378 383.695 466.488 382.502 467.78 380.116C468.1 379.566 468.301 378.956 468.371 378.323C468.44 377.691 468.377 377.051 468.184 376.445C467.991 375.839 467.674 375.281 467.252 374.805C466.83 374.329 466.314 373.948 465.736 373.685C462.199 372.215 456.381 375.933 454.174 378.546C454.023 378.709 452.506 380.957 451.816 382.037L451.616 381.962C452.391 378.568 453.469 375.252 454.838 372.052C455.566 370.281 456.356 368.636 457.171 367.028C458.299 367.48 463.441 369.54 466.124 369.389C468.808 369.239 471.893 368.435 473.435 366.212C473.814 365.701 474.081 365.116 474.22 364.494C474.358 363.873 474.365 363.23 474.24 362.606C474.114 361.982 473.86 361.392 473.492 360.873C473.125 360.353 472.652 359.917 472.106 359.593C468.758 357.746 462.563 360.849 460.08 363.147C459.942 363.273 458.713 364.717 457.823 365.785C458.199 365.081 458.575 364.34 458.951 363.662C460.356 361.15 461.785 358.889 463.077 356.917C463.817 355.812 464.507 354.82 465.171 353.89C466.501 353.765 471.893 353.149 474.162 351.856C476.432 350.562 478.84 348.351 479.178 345.664C479.282 345.035 479.251 344.392 479.089 343.777C478.927 343.161 478.637 342.587 478.238 342.091C477.84 341.596 477.341 341.19 476.774 340.901C476.208 340.612 475.587 340.446 474.952 340.413C471.128 340.313 467.052 345.877 465.924 349.105C465.823 349.394 464.795 353.928 464.858 353.915H464.946C464.293 354.753 463.604 355.707 462.876 356.779C461.535 358.726 460.042 360.936 458.588 363.448C456.987 366.143 455.543 368.927 454.261 371.788C452.817 374.988 451.655 378.308 450.788 381.711C450.795 381.752 450.795 381.795 450.788 381.836C450.788 380.719 450.412 377.591 450.362 377.352C449.659 374.011 446.311 367.958 442.512 367.581C441.877 367.533 441.24 367.619 440.642 367.834C440.043 368.049 439.497 368.388 439.037 368.829C438.578 369.27 438.217 369.803 437.978 370.393C437.738 370.983 437.625 371.616 437.646 372.253C437.646 374.953 439.815 377.491 441.847 379.023C444.142 380.769 450.224 382.138 450.713 382.238C449.926 385.727 449.369 389.264 449.045 392.826C448.857 394.899 448.719 396.984 448.606 399.106C448.518 398.139 448.43 397.273 448.405 397.16C447.691 393.806 444.342 387.765 440.543 387.375C439.909 387.327 439.272 387.414 438.673 387.629C438.074 387.844 437.528 388.183 437.069 388.624C436.61 389.064 436.248 389.597 436.009 390.187C435.769 390.777 435.656 391.411 435.677 392.048C435.677 394.748 437.847 397.285 439.878 398.83C441.91 400.375 447.114 401.656 448.481 401.983C448.481 402.786 448.405 403.59 448.38 404.394C448.23 408.263 448.104 412.131 447.866 415.912C447.778 417.243 447.64 418.562 447.515 419.868C447.44 419.014 447.352 418.285 447.339 418.185C446.625 414.831 443.276 408.79 439.477 408.401C438.843 408.353 438.206 408.439 437.607 408.654C437.008 408.869 436.462 409.208 436.003 409.649C435.544 410.09 435.183 410.623 434.943 411.213C434.703 411.803 434.59 412.436 434.611 413.073C434.611 415.786 436.781 418.311 438.812 419.855C440.844 421.4 445.546 422.568 447.164 422.945C447.001 424.289 446.825 425.633 446.6 426.914C446.424 427.793 446.324 428.66 446.098 429.527L445.496 432.039C445.045 433.659 444.606 435.342 444.129 436.912C443.803 438.005 443.477 439.047 443.151 440.102C443.251 438.771 443.389 436.171 443.377 435.945C443.189 432.541 440.794 426.048 437.107 425.093C436.488 424.951 435.846 424.941 435.223 425.064C434.6 425.186 434.01 425.439 433.491 425.805C432.972 426.171 432.535 426.642 432.21 427.188C431.884 427.734 431.677 428.343 431.602 428.974C431.188 431.649 432.944 434.475 434.724 436.309C436.505 438.143 442.248 440.542 442.95 440.818C442.399 442.551 441.859 444.222 441.32 445.842C439.452 451.306 437.696 455.79 436.43 458.904C436.43 459.018 436.342 459.118 436.292 459.218L438.574 460.474C438.649 460.274 438.737 460.073 438.812 459.859C440.066 456.681 441.709 452.11 443.465 446.545C444.029 444.787 444.593 442.903 445.157 440.956C447.071 441.196 448.997 441.322 450.926 441.333C451.616 444.134 454.813 448.731 455.227 449.321C453.823 450.464 452.443 451.569 451.126 452.587C446.562 456.116 442.624 458.867 439.84 460.776L439.514 461.002L442.022 462.384C444.731 460.437 448.292 457.736 452.518 454.37C453.948 453.215 455.465 451.946 456.995 450.602C457.56 451.08 462.137 454.973 464.845 455.752C467.291 456.455 470.614 456.681 472.771 455.061C473.292 454.697 473.73 454.228 474.058 453.683C474.387 453.138 474.596 452.53 474.674 451.899C474.752 451.267 474.697 450.626 474.512 450.018C474.326 449.409 474.015 448.847 473.598 448.367C471.015 445.541 464.181 446.483 461.058 447.914C460.883 448.002 459.002 449.17 457.823 449.874C458.45 449.334 459.077 448.819 459.691 448.254C460.945 447.161 462.199 446.018 463.529 444.787L465.41 442.941C466.049 442.325 466.664 441.609 467.291 440.944C468.72 439.361 470.087 437.691 471.429 435.982C472.407 437.088 475.906 441.006 478.225 442.062C480.545 443.117 483.793 443.845 486.176 442.576C486.745 442.294 487.248 441.896 487.654 441.407C488.06 440.918 488.359 440.349 488.531 439.737C488.704 439.125 488.746 438.484 488.656 437.854C488.565 437.225 488.344 436.621 488.007 436.083C485.875 432.905 478.978 432.792 475.692 433.734C475.479 433.797 473.184 434.739 471.93 435.279C472.72 434.249 473.535 433.219 474.3 432.139C476.545 429.037 478.714 425.859 480.896 422.644L482.915 419.73C483.254 420.119 487.317 424.842 489.925 426.01C492.233 427.077 495.48 427.806 497.863 426.525C498.435 426.246 498.941 425.849 499.349 425.36C499.757 424.871 500.058 424.302 500.23 423.689C500.403 423.076 500.445 422.433 500.352 421.803C500.26 421.172 500.036 420.569 499.694 420.031C497.562 416.854 490.665 416.741 487.38 417.695C487.141 417.758 483.856 419.127 483.041 419.516C484.521 417.381 486.025 415.258 487.593 413.236C489.683 410.488 491.953 407.882 494.389 405.437C494.553 405.625 498.766 410.561 501.424 411.792C503.744 412.872 506.992 413.588 509.375 412.319C509.945 412.039 510.45 411.641 510.857 411.152C511.264 410.663 511.563 410.094 511.736 409.482C511.909 408.869 511.951 408.227 511.859 407.597C511.768 406.967 511.545 406.364 511.206 405.826C509.074 402.636 502.177 402.535 498.891 403.477C498.678 403.54 496.183 404.582 495.004 405.097L494.879 404.909C497.395 402.516 500.119 400.352 503.017 398.441C504.61 397.361 506.177 396.418 507.732 395.552C508.422 396.544 511.619 401.078 513.902 402.46C516.184 403.841 519.231 404.859 521.739 403.854C522.338 403.636 522.885 403.294 523.343 402.849C523.801 402.405 524.16 401.869 524.397 401.276C524.633 400.683 524.743 400.047 524.717 399.409C524.691 398.771 524.531 398.146 524.247 397.574C522.479 394.17 515.632 393.316 512.272 393.894C512.083 393.894 510.253 394.447 508.936 394.848L511.043 393.693C513.613 392.362 516.059 391.281 518.203 390.352C519.457 389.837 520.56 389.385 521.614 388.983C522.805 389.611 527.62 392.085 530.229 392.249C532.837 392.412 536.072 391.909 537.828 389.862C538.23 389.402 538.534 388.865 538.723 388.283C538.912 387.702 538.981 387.089 538.927 386.48C538.873 385.871 538.697 385.279 538.409 384.74C538.121 384.201 537.727 383.726 537.251 383.344Z" fill="#0D47A1"/>
<path d="M449.17 360.924C450.988 363.311 456.945 366.413 456.958 366.413C456.97 366.413 457.81 361.866 457.823 361.565C458.023 358.149 456.393 351.441 452.807 350.06C452.208 349.847 451.57 349.763 450.937 349.813C450.303 349.863 449.687 350.046 449.128 350.351C448.57 350.655 448.082 351.074 447.696 351.58C447.31 352.086 447.034 352.668 446.888 353.288C446.186 355.888 447.678 358.902 449.17 360.924Z" fill="#0D47A1"/>
<g opacity="0.5">
<path d="M507.958 395.025C507.958 395.087 511.181 391.696 511.356 391.458C513.4 388.719 515.745 382.213 513.526 379.086C513.143 378.578 512.658 378.157 512.102 377.849C511.547 377.541 510.932 377.354 510.3 377.299C509.667 377.245 509.03 377.324 508.43 377.533C507.83 377.741 507.28 378.073 506.817 378.508C504.785 380.292 504.309 383.595 504.484 386.145C504.697 389.134 507.958 395.012 507.958 395.025Z" fill="white"/>
<path d="M537.251 383.344C534.116 381.146 527.646 383.545 524.924 385.604C524.686 385.793 521.325 389.008 521.388 389.033H521.463C520.435 389.41 519.344 389.812 518.153 390.289C515.971 391.168 513.513 392.198 510.905 393.479C508.089 394.851 505.351 396.377 502.704 398.051C499.737 399.917 496.942 402.044 494.352 404.407C494.32 404.433 494.29 404.462 494.264 404.495C494.816 403.527 496.283 400.727 496.371 400.526C497.625 397.335 498.164 390.478 495.205 388.028C494.698 387.642 494.117 387.366 493.497 387.219C492.877 387.072 492.234 387.058 491.608 387.176C490.983 387.294 490.389 387.543 489.866 387.907C489.342 388.27 488.901 388.739 488.571 389.284C487.091 391.545 487.492 394.848 488.345 397.26C489.298 399.986 493.625 404.482 493.976 404.796C491.393 407.264 488.98 409.903 486.753 412.696C485.499 414.316 484.182 415.987 482.991 417.72C483.442 416.866 483.843 416.087 483.881 415.974C485.135 412.797 485.674 405.926 482.715 403.477C482.21 403.091 481.629 402.815 481.01 402.668C480.392 402.522 479.749 402.507 479.124 402.625C478.5 402.744 477.907 402.993 477.385 403.356C476.863 403.719 476.423 404.188 476.094 404.733C474.601 406.981 475.015 410.297 475.855 412.696C476.696 415.095 480.332 419.064 481.298 420.082L479.831 422.016C477.573 425.168 475.341 428.296 473.046 431.335C472.244 432.403 471.416 433.433 470.538 434.45C470.94 433.684 471.278 433.043 471.316 432.943C472.57 429.753 473.109 422.895 470.15 420.383C469.644 419.994 469.062 419.717 468.443 419.569C467.823 419.421 467.178 419.406 466.552 419.524C465.926 419.643 465.332 419.893 464.809 420.257C464.285 420.621 463.845 421.092 463.516 421.639C462.024 423.9 462.438 427.203 463.29 429.615C464.143 432.026 467.403 435.593 468.545 436.811C467.667 437.841 466.789 438.859 465.886 439.813C465.259 440.454 464.707 441.069 464.03 441.71L462.112 443.518C460.858 444.624 459.604 445.779 458.287 446.834C457.409 447.575 456.569 448.254 455.779 448.944C456.581 447.902 458.136 445.804 458.287 445.616C459.699 442.959 460.408 439.984 460.343 436.975C460.511 436.686 460.653 436.383 460.77 436.07C461.004 435.478 461.112 434.843 461.085 434.207C461.059 433.57 460.899 432.946 460.617 432.375C460.334 431.804 459.935 431.3 459.445 430.893C458.955 430.487 458.385 430.188 457.773 430.016C454.011 429.1 448.869 433.659 447.076 436.573C446.976 436.749 446.023 438.733 445.458 440.002C445.672 439.21 445.91 438.432 446.123 437.615C446.574 435.995 446.976 434.362 447.377 432.591C447.553 431.737 447.741 430.871 447.929 430.004C448.117 429.137 448.23 428.208 448.393 427.304C448.706 425.193 448.932 423.046 449.12 420.873C450.537 421.262 455.591 422.581 458.124 422.129C460.657 421.677 463.754 420.546 465.033 418.172C465.357 417.624 465.562 417.013 465.634 416.38C465.705 415.747 465.643 415.106 465.45 414.498C465.257 413.891 464.938 413.332 464.514 412.857C464.09 412.382 463.57 412.002 462.989 411.742C459.453 410.26 453.647 413.99 451.427 416.59C451.29 416.753 449.91 418.8 449.17 419.943C449.271 418.687 449.371 417.331 449.434 416C449.584 412.232 449.634 408.3 449.697 404.432C449.697 403.251 449.697 402.07 449.772 400.89C450.274 401.028 456.255 402.724 459.089 402.284C461.597 401.907 464.72 400.714 466.011 398.328C466.331 397.777 466.532 397.166 466.601 396.533C466.669 395.901 466.605 395.26 466.411 394.654C466.217 394.048 465.898 393.489 465.475 393.014C465.052 392.539 464.534 392.159 463.955 391.897C460.431 390.427 454.613 394.158 452.393 396.758C452.23 396.946 450.249 399.898 449.772 400.676C449.835 398.076 449.923 395.476 450.111 392.927C450.353 389.48 450.813 386.053 451.49 382.665C451.728 382.665 457.961 384.524 460.87 384.072C463.378 383.695 466.488 382.502 467.78 380.116C468.1 379.566 468.301 378.956 468.371 378.323C468.44 377.691 468.377 377.051 468.184 376.445C467.991 375.839 467.674 375.281 467.252 374.805C466.83 374.329 466.314 373.948 465.736 373.685C462.199 372.215 456.381 375.933 454.174 378.546C454.023 378.709 452.506 380.957 451.816 382.037L451.616 381.962C452.391 378.568 453.469 375.252 454.838 372.052C455.566 370.281 456.356 368.636 457.171 367.028C458.299 367.48 463.441 369.54 466.124 369.389C468.808 369.239 471.893 368.435 473.435 366.212C473.814 365.701 474.081 365.116 474.22 364.494C474.358 363.873 474.365 363.23 474.24 362.606C474.114 361.982 473.86 361.392 473.492 360.873C473.125 360.353 472.652 359.917 472.106 359.593C468.758 357.746 462.563 360.849 460.08 363.147C459.942 363.273 458.713 364.717 457.823 365.785C458.199 365.081 458.575 364.34 458.951 363.662C460.356 361.15 461.785 358.889 463.077 356.917C463.817 355.812 464.507 354.82 465.171 353.89C466.501 353.765 471.893 353.149 474.162 351.856C476.432 350.562 478.84 348.351 479.178 345.664C479.282 345.035 479.251 344.392 479.089 343.777C478.927 343.161 478.637 342.587 478.238 342.091C477.84 341.596 477.341 341.19 476.774 340.901C476.208 340.612 475.587 340.446 474.952 340.413C471.128 340.313 467.052 345.877 465.924 349.105C465.823 349.394 464.795 353.928 464.858 353.915H464.946C464.293 354.753 463.604 355.707 462.876 356.779C461.535 358.726 460.042 360.936 458.588 363.448C456.987 366.143 455.543 368.927 454.261 371.788C452.817 374.988 451.655 378.308 450.788 381.711C450.795 381.752 450.795 381.795 450.788 381.836C450.788 380.719 450.412 377.591 450.362 377.352C449.659 374.011 446.311 367.958 442.512 367.581C441.877 367.533 441.24 367.619 440.642 367.834C440.043 368.049 439.497 368.388 439.037 368.829C438.578 369.27 438.217 369.803 437.978 370.393C437.738 370.983 437.625 371.616 437.646 372.253C437.646 374.953 439.815 377.491 441.847 379.023C444.142 380.769 450.224 382.138 450.713 382.238C449.926 385.727 449.369 389.264 449.045 392.826C448.857 394.899 448.719 396.984 448.606 399.106C448.518 398.139 448.43 397.273 448.405 397.16C447.691 393.806 444.342 387.765 440.543 387.375C439.909 387.327 439.272 387.414 438.673 387.629C438.074 387.844 437.528 388.183 437.069 388.624C436.61 389.064 436.248 389.597 436.009 390.187C435.769 390.777 435.656 391.411 435.677 392.048C435.677 394.748 437.847 397.285 439.878 398.83C441.91 400.375 447.114 401.656 448.481 401.983C448.481 402.786 448.405 403.59 448.38 404.394C448.23 408.263 448.104 412.131 447.866 415.912C447.778 417.243 447.64 418.562 447.515 419.868C447.44 419.014 447.352 418.285 447.339 418.185C446.625 414.831 443.276 408.79 439.477 408.401C438.843 408.353 438.206 408.439 437.607 408.654C437.008 408.869 436.462 409.208 436.003 409.649C435.544 410.09 435.183 410.623 434.943 411.213C434.703 411.803 434.59 412.436 434.611 413.073C434.611 415.786 436.781 418.311 438.812 419.855C440.844 421.4 445.546 422.568 447.164 422.945C447.001 424.289 446.825 425.633 446.6 426.914C446.424 427.793 446.324 428.66 446.098 429.527L445.496 432.039C445.045 433.659 444.606 435.342 444.129 436.912C443.803 438.005 443.477 439.047 443.151 440.102C443.251 438.771 443.389 436.171 443.377 435.945C443.189 432.541 440.794 426.048 437.107 425.093C436.488 424.951 435.846 424.941 435.223 425.064C434.6 425.186 434.01 425.439 433.491 425.805C432.972 426.171 432.535 426.642 432.21 427.188C431.884 427.734 431.677 428.343 431.602 428.974C431.188 431.649 432.944 434.475 434.724 436.309C436.505 438.143 442.248 440.542 442.95 440.818C442.399 442.551 441.859 444.222 441.32 445.842C439.452 451.306 437.696 455.79 436.43 458.904C436.43 459.018 436.342 459.118 436.292 459.218L438.574 460.474C438.649 460.274 438.737 460.073 438.812 459.859C440.066 456.681 441.709 452.11 443.465 446.545C444.029 444.787 444.593 442.903 445.157 440.956C447.071 441.196 448.997 441.322 450.926 441.333C451.616 444.134 454.813 448.731 455.227 449.321C453.823 450.464 452.443 451.569 451.126 452.587C446.562 456.116 442.624 458.867 439.84 460.776L439.514 461.002L442.022 462.384C444.731 460.437 448.292 457.736 452.518 454.37C453.948 453.215 455.465 451.946 456.995 450.602C457.56 451.08 462.137 454.973 464.845 455.752C467.291 456.455 470.614 456.681 472.771 455.061C473.292 454.697 473.73 454.228 474.058 453.683C474.387 453.138 474.596 452.53 474.674 451.899C474.752 451.267 474.697 450.626 474.512 450.018C474.326 449.409 474.015 448.847 473.598 448.367C471.015 445.541 464.181 446.483 461.058 447.914C460.883 448.002 459.002 449.17 457.823 449.874C458.45 449.334 459.077 448.819 459.691 448.254C460.945 447.161 462.199 446.018 463.529 444.787L465.41 442.941C466.049 442.325 466.664 441.609 467.291 440.944C468.72 439.361 470.087 437.691 471.429 435.982C472.407 437.088 475.906 441.006 478.225 442.062C480.545 443.117 483.793 443.845 486.176 442.576C486.745 442.294 487.248 441.896 487.654 441.407C488.06 440.918 488.359 440.349 488.531 439.737C488.704 439.125 488.746 438.484 488.656 437.854C488.565 437.225 488.344 436.621 488.007 436.083C485.875 432.905 478.978 432.792 475.692 433.734C475.479 433.797 473.184 434.739 471.93 435.279C472.72 434.249 473.535 433.219 474.3 432.139C476.545 429.037 478.714 425.859 480.896 422.644L482.915 419.73C483.254 420.119 487.317 424.842 489.925 426.01C492.233 427.077 495.48 427.806 497.863 426.525C498.435 426.246 498.941 425.849 499.349 425.36C499.757 424.871 500.058 424.302 500.23 423.689C500.403 423.076 500.445 422.433 500.352 421.803C500.26 421.172 500.036 420.569 499.694 420.031C497.562 416.854 490.665 416.741 487.38 417.695C487.141 417.758 483.856 419.127 483.041 419.516C484.521 417.381 486.025 415.258 487.593 413.236C489.683 410.488 491.953 407.882 494.389 405.437C494.553 405.625 498.766 410.561 501.424 411.792C503.744 412.872 506.992 413.588 509.375 412.319C509.945 412.039 510.45 411.641 510.857 411.152C511.264 410.663 511.563 410.094 511.736 409.482C511.909 408.869 511.951 408.227 511.859 407.597C511.768 406.967 511.545 406.364 511.206 405.826C509.074 402.636 502.177 402.535 498.891 403.477C498.678 403.54 496.183 404.582 495.004 405.097L494.879 404.909C497.395 402.516 500.119 400.352 503.017 398.441C504.61 397.361 506.177 396.418 507.732 395.552C508.422 396.544 511.619 401.078 513.902 402.46C516.184 403.841 519.231 404.859 521.739 403.854C522.338 403.636 522.885 403.294 523.343 402.849C523.801 402.405 524.16 401.869 524.397 401.276C524.633 400.683 524.743 400.047 524.717 399.409C524.691 398.771 524.531 398.146 524.247 397.574C522.479 394.17 515.632 393.316 512.272 393.894C512.083 393.894 510.253 394.447 508.936 394.848L511.043 393.693C513.613 392.362 516.059 391.281 518.203 390.352C519.457 389.837 520.56 389.385 521.614 388.983C522.805 389.611 527.62 392.085 530.229 392.249C532.837 392.412 536.072 391.909 537.828 389.862C538.23 389.402 538.534 388.865 538.723 388.283C538.912 387.702 538.981 387.089 538.927 386.48C538.873 385.871 538.697 385.279 538.409 384.74C538.121 384.201 537.727 383.726 537.251 383.344Z" fill="white"/>
<path d="M449.17 360.924C450.989 363.31 456.945 366.413 456.958 366.413C456.97 366.413 457.81 361.866 457.823 361.564C458.023 358.148 456.393 351.441 452.807 350.059C452.208 349.846 451.57 349.762 450.937 349.812C450.303 349.863 449.687 350.046 449.128 350.35C448.57 350.655 448.082 351.074 447.696 351.58C447.31 352.086 447.034 352.668 446.888 353.287C446.186 355.887 447.678 358.902 449.17 360.924Z" fill="white"/>
</g>
<path d="M204.402 297.421C204.477 297.421 203.424 292.158 203.311 291.844C202.057 288.076 197.543 281.532 193.128 281.545C192.395 281.568 191.675 281.745 191.015 282.065C190.355 282.385 189.769 282.841 189.296 283.402C188.823 283.964 188.473 284.618 188.269 285.324C188.065 286.03 188.012 286.771 188.112 287.498C188.439 290.601 191.222 293.251 193.743 294.771C196.677 296.567 204.402 297.421 204.402 297.421Z" fill="#0D47A1"/>
<path d="M212.942 261.989C208.778 263.484 206.672 271.196 206.847 275.139C206.847 275.478 207.637 280.791 207.713 280.754H207.8C207.462 282.01 207.123 283.266 206.772 284.71C206.145 287.36 205.518 290.362 204.941 293.678C204.346 297.249 203.952 300.851 203.762 304.467C203.542 308.511 203.681 312.567 204.176 316.587C204.182 316.637 204.182 316.688 204.176 316.738C203.637 315.557 202.007 312.33 201.844 312.091C199.687 308.788 193.567 303.676 189.304 304.856C188.603 305.074 187.956 305.436 187.404 305.919C186.852 306.403 186.407 306.997 186.098 307.663C185.79 308.33 185.624 309.054 185.613 309.788C185.601 310.523 185.744 311.252 186.031 311.928C187.159 314.829 190.545 316.65 193.379 317.454C196.577 318.371 203.7 317.291 204.264 317.203C204.866 321.285 205.742 325.321 206.885 329.286C207.537 331.597 208.264 333.908 209.029 336.219C208.528 335.214 208.064 334.322 207.988 334.209C205.819 330.906 199.712 325.794 195.448 326.974C194.747 327.189 194.099 327.548 193.545 328.03C192.992 328.512 192.547 329.106 192.238 329.772C191.929 330.438 191.764 331.162 191.753 331.896C191.742 332.63 191.886 333.358 192.175 334.033C193.304 336.947 196.69 338.768 199.524 339.572C202.358 340.376 208.477 339.572 210.095 339.359C210.396 340.238 210.684 341.13 210.985 342.009C212.44 346.229 213.92 350.449 215.237 354.569C215.701 356.038 216.102 357.508 216.491 358.965C216.039 358.073 215.663 357.332 215.588 357.232C213.431 353.928 207.311 348.816 203.048 349.997C202.346 350.211 201.698 350.571 201.145 351.053C200.592 351.535 200.146 352.128 199.837 352.794C199.528 353.46 199.363 354.184 199.352 354.918C199.342 355.653 199.486 356.381 199.775 357.056C200.903 359.97 204.289 361.791 207.123 362.595C209.957 363.399 215.487 362.695 217.406 362.419C217.782 363.939 218.158 365.446 218.447 366.928C218.635 367.945 218.873 368.912 218.999 369.955C219.124 370.997 219.274 371.977 219.425 372.969C219.626 374.903 219.839 376.9 219.989 378.797C220.102 380.053 220.177 381.309 220.265 382.565C219.826 381.096 218.886 378.232 218.785 378.006C217.224 374.901 214.898 372.247 212.026 370.294C211.866 369.942 211.673 369.605 211.449 369.289C211.052 368.671 210.53 368.143 209.916 367.739C209.302 367.336 208.61 367.066 207.885 366.948C207.16 366.829 206.419 366.865 205.709 367.052C204.998 367.239 204.335 367.573 203.762 368.033C200.427 370.934 201.254 378.86 202.797 382.502C202.885 382.716 204.139 384.926 204.941 386.27C204.339 385.529 203.775 384.801 203.148 384.035C201.894 382.54 200.64 381.07 199.286 379.488L197.217 377.24C196.539 376.473 195.737 375.758 194.984 375.004C193.229 373.296 191.348 371.65 189.429 369.98C190.683 368.9 195.348 364.956 196.677 362.356C198.007 359.756 198.935 355.988 197.555 353.187C197.253 352.517 196.814 351.919 196.266 351.431C195.718 350.943 195.073 350.576 194.374 350.354C193.674 350.132 192.936 350.061 192.207 350.144C191.478 350.228 190.775 350.464 190.144 350.838C186.382 353.187 186.031 361.15 186.996 364.981C187.059 365.22 188.062 367.882 188.639 369.339C187.473 368.385 186.319 367.418 185.115 366.476C181.617 363.775 178.005 361.15 174.406 358.513C173.303 357.709 172.212 356.88 171.121 356.076C171.597 355.687 177.178 351.178 178.645 348.213C179.962 345.576 180.915 341.846 179.535 339.045C179.234 338.375 178.794 337.776 178.246 337.288C177.698 336.8 177.053 336.433 176.354 336.211C175.654 335.99 174.916 335.918 174.187 336.002C173.458 336.085 172.755 336.322 172.124 336.696C168.362 339.045 167.998 347.008 168.976 350.838C168.976 351.127 170.494 354.971 170.908 355.925C168.5 354.129 166.13 352.321 163.848 350.437C160.751 347.914 157.819 345.196 155.07 342.298C155.295 342.122 161.139 337.437 162.594 334.397C163.91 331.76 164.863 328.03 163.484 325.229C163.182 324.559 162.743 323.96 162.195 323.472C161.647 322.984 161.002 322.617 160.302 322.395C159.603 322.174 158.865 322.102 158.136 322.186C157.407 322.269 156.704 322.506 156.073 322.88C152.311 325.229 151.947 333.192 152.925 337.022C152.925 337.274 154.091 340.2 154.643 341.582L154.43 341.707C151.755 338.714 149.354 335.486 147.257 332.061C146.078 330.202 145.063 328.293 144.11 326.522C145.276 325.756 150.63 322.227 152.298 319.639C153.966 317.052 155.245 313.56 154.179 310.634C153.953 309.935 153.582 309.291 153.091 308.745C152.6 308.199 151.999 307.762 151.329 307.463C150.658 307.165 149.932 307.011 149.198 307.012C148.464 307.013 147.739 307.169 147.069 307.469C143.094 309.403 141.852 317.278 142.392 321.184C142.392 321.398 142.956 323.533 143.37 325.078C142.956 324.249 142.517 323.395 142.116 322.566C140.661 319.552 139.52 316.713 138.517 314.176C137.965 312.731 137.501 311.425 137.075 310.182C137.84 308.838 140.837 303.349 141.138 300.347C141.439 297.345 140.975 293.59 138.63 291.48C138.107 290.965 137.482 290.566 136.795 290.308C136.108 290.051 135.374 289.941 134.642 289.986C133.91 290.031 133.196 290.23 132.546 290.57C131.895 290.909 131.323 291.382 130.867 291.957C128.234 295.499 130.755 303.073 133.037 306.288C133.225 306.564 136.799 310.571 136.799 310.496V310.408C137.188 311.664 137.614 312.92 138.053 314.276C138.993 316.788 140.084 319.715 141.476 322.767C142.936 326.077 144.59 329.298 146.43 332.413C148.478 335.911 150.828 339.223 153.452 342.31L153.552 342.411C152.449 341.732 149.314 339.899 149.05 339.823C145.426 338.266 137.514 337.387 134.604 340.715C134.139 341.284 133.798 341.944 133.603 342.653C133.408 343.362 133.365 344.104 133.474 344.831C133.584 345.558 133.846 346.254 134.241 346.873C134.637 347.493 135.158 348.022 135.771 348.427C138.279 350.223 142.141 349.871 144.937 348.98C148.11 347.975 153.452 343.139 153.878 342.7C156.611 345.767 159.543 348.65 162.656 351.328C164.475 352.898 166.356 354.431 168.262 355.925L166.293 354.82C162.669 353.263 154.756 352.383 151.847 355.724C151.381 356.291 151.039 356.949 150.844 357.657C150.648 358.365 150.603 359.105 150.712 359.831C150.821 360.557 151.081 361.252 151.475 361.871C151.869 362.49 152.389 363.019 153.001 363.424C155.509 365.232 159.371 364.868 162.18 363.976C164.989 363.085 169.704 359.053 170.883 357.96L173.09 359.681C176.638 362.394 180.187 365.094 183.586 367.845C184.777 368.812 185.918 369.817 187.072 370.809C186.206 370.319 185.479 369.905 185.354 369.854C181.742 368.297 173.817 367.418 170.92 370.746C170.454 371.314 170.112 371.973 169.916 372.682C169.721 373.39 169.676 374.132 169.785 374.859C169.893 375.586 170.153 376.282 170.548 376.902C170.942 377.522 171.462 378.052 172.074 378.458C174.582 380.254 178.444 379.902 181.253 379.011C184.062 378.119 188.288 374.464 189.73 373.183C190.884 374.238 192.025 375.293 193.091 376.373C193.806 377.114 194.533 377.792 195.21 378.584L197.229 380.869C198.483 382.377 199.737 383.922 200.903 385.416C201.718 386.446 202.483 387.451 203.248 388.456C202.07 387.476 199.712 385.605 199.486 385.479C196.138 383.381 188.451 381.309 185.078 384.223C184.531 384.713 184.094 385.313 183.794 385.984C183.495 386.655 183.34 387.382 183.34 388.117C183.34 388.852 183.495 389.578 183.794 390.249C184.094 390.92 184.531 391.52 185.078 392.01C187.322 394.183 191.16 394.409 194.069 393.957C197.267 393.455 203.073 389.661 203.787 389.184C205.041 390.855 206.296 392.487 207.386 394.057C211.299 399.458 214.346 404.105 216.428 407.384L216.641 407.723L219.337 406.404L218.911 405.763C216.729 402.498 213.556 397.863 209.493 392.5C208.239 390.792 206.822 389.008 205.368 387.187C206.86 385.534 208.259 383.798 209.556 381.987C212.653 383.243 219.124 383.243 219.952 383.243C220.089 385.341 220.202 387.376 220.278 389.297C220.553 395.954 220.541 401.518 220.466 405.412V405.864L223.425 404.419C223.425 400.551 223.287 395.339 222.886 389.159C222.761 387.036 222.585 384.763 222.372 382.439C223.199 382.238 229.896 380.505 232.404 378.483C234.699 376.637 237.119 373.647 237.044 370.533C237.049 369.797 236.9 369.069 236.605 368.395C236.311 367.721 235.878 367.116 235.335 366.621C234.792 366.126 234.151 365.751 233.454 365.52C232.757 365.289 232.018 365.208 231.288 365.282C226.911 365.848 223.237 372.919 222.51 376.813C222.51 377.039 222.284 379.576 222.184 381.171C222.096 380.229 222.021 379.299 221.92 378.32C221.72 376.398 221.469 374.464 221.206 372.404L220.716 369.377C220.579 368.372 220.303 367.33 220.089 366.287C219.563 363.876 218.911 361.477 218.196 359.053C219.876 358.889 225.87 358.174 228.441 356.704C231.012 355.235 233.833 352.647 234.222 349.545C234.339 348.819 234.303 348.077 234.114 347.367C233.926 346.657 233.59 345.994 233.128 345.423C232.666 344.852 232.09 344.384 231.435 344.051C230.781 343.718 230.064 343.527 229.331 343.491C224.917 343.378 220.215 349.771 218.923 353.539C218.836 353.765 218.208 356.553 217.882 358.086C217.444 356.641 217.017 355.197 216.528 353.74C215.099 349.557 213.531 345.375 211.976 341.18L210.584 337.336C211.186 337.274 218.334 336.595 221.206 334.938C223.714 333.468 226.598 330.881 226.986 327.791C227.104 327.065 227.067 326.322 226.878 325.611C226.69 324.9 226.354 324.237 225.893 323.665C225.431 323.092 224.855 322.624 224.201 322.289C223.546 321.955 222.829 321.763 222.096 321.724C217.682 321.624 212.979 328.004 211.688 331.772C211.587 332.061 210.685 336.055 210.496 337.085C209.481 334.259 208.49 331.433 207.637 328.607C206.447 324.801 205.509 320.92 204.828 316.989C205.104 316.989 212.565 316.286 215.512 314.59C218.02 313.121 220.905 310.533 221.293 307.431C221.409 306.706 221.37 305.965 221.181 305.255C220.992 304.546 220.656 303.884 220.194 303.313C219.733 302.742 219.157 302.275 218.504 301.941C217.851 301.608 217.135 301.416 216.403 301.377C211.989 301.264 207.286 307.657 205.995 311.425C205.907 311.676 205.217 314.716 204.916 316.173H204.665C204.09 312.198 203.867 308.18 204.001 304.166C204.001 301.955 204.214 299.845 204.414 297.798C205.819 297.798 212.227 297.798 215.036 296.542C217.845 295.286 220.854 293.113 221.582 290.073C221.778 289.365 221.823 288.623 221.713 287.896C221.604 287.168 221.342 286.473 220.945 285.854C220.549 285.235 220.026 284.707 219.412 284.304C218.798 283.902 218.106 283.633 217.381 283.517C213.004 282.914 207.625 288.805 205.932 292.309C205.832 292.51 205.117 294.582 204.603 296.077C204.715 295.147 204.816 294.193 204.929 293.314C205.38 289.998 205.995 287.034 206.559 284.333C206.897 282.826 207.223 281.47 207.549 280.201C208.929 279.498 214.472 276.596 216.327 274.235C218.183 271.874 219.901 268.508 219.149 265.443C218.738 264.191 217.871 263.139 216.72 262.499C215.57 261.859 214.22 261.677 212.942 261.989Z" fill="#0D47A1"/>
<path d="M133.112 330.165C136.561 330.027 143.458 326.485 143.47 326.485C143.483 326.485 139.708 322.641 139.482 322.428C136.398 319.916 128.999 317.027 125.325 319.464C124.724 319.886 124.218 320.431 123.841 321.062C123.465 321.693 123.225 322.397 123.139 323.127C123.053 323.857 123.121 324.598 123.34 325.3C123.559 326.002 123.923 326.65 124.409 327.201C126.391 329.625 130.165 330.328 133.112 330.165Z" fill="#0D47A1"/>
<g opacity="0.5">
<path d="M204.402 297.421C204.477 297.421 203.424 292.158 203.311 291.844C202.057 288.076 197.543 281.532 193.129 281.545C192.395 281.568 191.675 281.745 191.015 282.065C190.355 282.385 189.769 282.841 189.296 283.402C188.823 283.964 188.473 284.618 188.269 285.324C188.065 286.03 188.012 286.771 188.113 287.498C188.439 290.601 191.222 293.251 193.743 294.771C196.677 296.567 204.402 297.421 204.402 297.421Z" fill="white"/>
<path d="M212.942 261.989C208.778 263.484 206.672 271.196 206.847 275.139C206.847 275.478 207.637 280.791 207.713 280.754H207.8C207.462 282.01 207.123 283.266 206.772 284.71C206.145 287.36 205.518 290.362 204.941 293.678C204.346 297.249 203.952 300.851 203.762 304.467C203.542 308.511 203.681 312.567 204.176 316.587C204.182 316.637 204.182 316.688 204.176 316.738C203.637 315.557 202.007 312.33 201.844 312.091C199.687 308.788 193.567 303.676 189.304 304.856C188.603 305.074 187.956 305.436 187.404 305.919C186.852 306.403 186.407 306.997 186.098 307.663C185.79 308.33 185.625 309.054 185.613 309.788C185.601 310.523 185.744 311.252 186.031 311.928C187.16 314.829 190.545 316.65 193.379 317.454C196.577 318.371 203.7 317.291 204.264 317.203C204.866 321.285 205.742 325.321 206.885 329.286C207.537 331.597 208.264 333.908 209.029 336.219C208.528 335.214 208.064 334.322 207.988 334.209C205.819 330.906 199.712 325.794 195.448 326.974C194.747 327.189 194.099 327.548 193.546 328.03C192.992 328.512 192.547 329.106 192.238 329.772C191.929 330.438 191.764 331.162 191.753 331.896C191.742 332.63 191.886 333.358 192.176 334.033C193.304 336.947 196.69 338.768 199.524 339.572C202.358 340.376 208.478 339.572 210.095 339.359C210.396 340.238 210.685 341.13 210.986 342.009C212.44 346.229 213.92 350.449 215.237 354.569C215.701 356.038 216.102 357.508 216.491 358.965C216.039 358.073 215.663 357.332 215.588 357.232C213.431 353.928 207.311 348.816 203.048 349.997C202.346 350.211 201.698 350.571 201.145 351.053C200.592 351.535 200.146 352.128 199.837 352.794C199.528 353.46 199.363 354.184 199.352 354.918C199.342 355.653 199.486 356.381 199.775 357.056C200.903 359.97 204.289 361.791 207.123 362.595C209.957 363.399 215.487 362.695 217.406 362.419C217.782 363.939 218.158 365.446 218.447 366.928C218.635 367.945 218.873 368.912 218.999 369.955C219.124 370.997 219.274 371.977 219.425 372.969C219.626 374.903 219.839 376.9 219.989 378.797C220.102 380.053 220.177 381.309 220.265 382.565C219.826 381.096 218.886 378.232 218.785 378.006C217.224 374.901 214.898 372.247 212.026 370.294C211.866 369.942 211.673 369.605 211.449 369.289C211.052 368.671 210.53 368.143 209.916 367.739C209.302 367.336 208.61 367.066 207.885 366.948C207.16 366.829 206.419 366.865 205.709 367.052C204.998 367.239 204.335 367.573 203.762 368.033C200.427 370.934 201.254 378.86 202.797 382.502C202.885 382.716 204.139 384.926 204.941 386.27C204.339 385.529 203.775 384.801 203.148 384.035C201.894 382.54 200.64 381.07 199.286 379.488L197.217 377.24C196.539 376.473 195.737 375.758 194.984 375.004C193.229 373.296 191.348 371.65 189.429 369.98C190.683 368.9 195.348 364.956 196.677 362.356C198.007 359.756 198.935 355.988 197.555 353.187C197.254 352.517 196.814 351.919 196.266 351.431C195.718 350.943 195.073 350.576 194.374 350.354C193.674 350.132 192.936 350.061 192.207 350.144C191.478 350.228 190.775 350.464 190.144 350.838C186.382 353.187 186.031 361.15 186.996 364.981C187.059 365.22 188.062 367.882 188.639 369.339C187.473 368.385 186.319 367.418 185.115 366.476C181.617 363.775 178.005 361.15 174.406 358.513C173.303 357.709 172.212 356.88 171.121 356.076C171.597 355.687 177.178 351.178 178.645 348.213C179.962 345.576 180.915 341.846 179.535 339.045C179.234 338.375 178.794 337.776 178.246 337.288C177.698 336.8 177.053 336.433 176.354 336.211C175.654 335.99 174.916 335.918 174.187 336.002C173.458 336.085 172.755 336.322 172.124 336.696C168.362 339.045 167.998 347.008 168.977 350.838C168.977 351.127 170.494 354.971 170.908 355.925C168.5 354.129 166.13 352.321 163.848 350.437C160.751 347.914 157.819 345.196 155.07 342.298C155.295 342.122 161.139 337.437 162.594 334.397C163.91 331.76 164.863 328.03 163.484 325.229C163.182 324.559 162.743 323.96 162.195 323.472C161.647 322.984 161.002 322.617 160.302 322.395C159.603 322.174 158.865 322.102 158.136 322.186C157.407 322.269 156.704 322.506 156.073 322.88C152.311 325.229 151.947 333.192 152.925 337.022C152.925 337.274 154.092 340.2 154.643 341.582L154.43 341.707C151.755 338.714 149.354 335.486 147.257 332.061C146.078 330.202 145.063 328.293 144.11 326.522C145.276 325.756 150.63 322.227 152.298 319.639C153.966 317.052 155.245 313.56 154.179 310.634C153.953 309.935 153.582 309.291 153.091 308.745C152.6 308.199 152 307.762 151.329 307.463C150.658 307.165 149.932 307.011 149.198 307.012C148.465 307.013 147.739 307.169 147.069 307.469C143.094 309.403 141.853 317.278 142.392 321.184C142.392 321.398 142.956 323.533 143.37 325.078C142.956 324.249 142.517 323.395 142.116 322.566C140.661 319.552 139.52 316.713 138.517 314.176C137.965 312.731 137.501 311.425 137.075 310.182C137.84 308.838 140.837 303.349 141.138 300.347C141.439 297.345 140.975 293.59 138.63 291.48C138.107 290.965 137.482 290.566 136.795 290.308C136.108 290.051 135.374 289.941 134.642 289.986C133.91 290.031 133.196 290.23 132.546 290.57C131.895 290.909 131.323 291.382 130.867 291.957C128.234 295.499 130.755 303.073 133.037 306.288C133.225 306.564 136.799 310.571 136.799 310.496V310.408C137.188 311.664 137.614 312.92 138.053 314.276C138.993 316.788 140.084 319.715 141.476 322.767C142.936 326.077 144.59 329.298 146.43 332.413C148.478 335.911 150.828 339.223 153.452 342.31L153.552 342.411C152.449 341.732 149.314 339.899 149.05 339.823C145.426 338.266 137.514 337.387 134.604 340.715C134.139 341.284 133.798 341.944 133.603 342.653C133.408 343.362 133.365 344.104 133.475 344.831C133.584 345.558 133.846 346.254 134.241 346.873C134.637 347.493 135.158 348.022 135.771 348.427C138.279 350.223 142.141 349.871 144.937 348.98C148.11 347.975 153.452 343.139 153.878 342.7C156.611 345.767 159.543 348.65 162.656 351.328C164.475 352.898 166.356 354.431 168.262 355.925L166.293 354.82C162.669 353.263 154.756 352.383 151.847 355.724C151.381 356.291 151.039 356.949 150.844 357.657C150.648 358.365 150.603 359.105 150.712 359.831C150.821 360.557 151.081 361.252 151.475 361.871C151.869 362.49 152.389 363.019 153.001 363.424C155.509 365.232 159.371 364.868 162.18 363.976C164.989 363.085 169.704 359.053 170.883 357.96L173.09 359.681C176.638 362.394 180.187 365.094 183.586 367.845C184.777 368.812 185.918 369.817 187.072 370.809C186.206 370.319 185.479 369.905 185.354 369.854C181.742 368.297 173.817 367.418 170.92 370.746C170.454 371.314 170.112 371.973 169.916 372.682C169.721 373.39 169.676 374.132 169.785 374.859C169.893 375.586 170.153 376.282 170.548 376.902C170.942 377.522 171.462 378.052 172.074 378.458C174.582 380.254 178.444 379.902 181.253 379.011C184.062 378.119 188.288 374.464 189.73 373.183C190.884 374.238 192.025 375.293 193.091 376.373C193.806 377.114 194.533 377.792 195.21 378.584L197.229 380.869C198.483 382.377 199.737 383.922 200.903 385.416C201.718 386.446 202.483 387.451 203.248 388.456C202.07 387.476 199.712 385.605 199.486 385.479C196.138 383.381 188.451 381.309 185.078 384.223C184.531 384.713 184.094 385.313 183.794 385.984C183.495 386.655 183.34 387.382 183.34 388.117C183.34 388.852 183.495 389.578 183.794 390.249C184.094 390.92 184.531 391.52 185.078 392.01C187.323 394.183 191.16 394.409 194.069 393.957C197.267 393.455 203.073 389.661 203.788 389.184C205.042 390.855 206.296 392.487 207.387 394.057C211.299 399.458 214.346 404.105 216.428 407.384L216.641 407.723L219.337 406.404L218.911 405.763C216.729 402.498 213.556 397.863 209.493 392.5C208.239 390.792 206.822 389.008 205.368 387.187C206.86 385.534 208.259 383.798 209.556 381.987C212.653 383.243 219.124 383.243 219.952 383.243C220.09 385.341 220.202 387.376 220.278 389.297C220.554 395.954 220.541 401.518 220.466 405.412V405.864L223.425 404.419C223.425 400.551 223.287 395.339 222.886 389.159C222.761 387.036 222.585 384.763 222.372 382.439C223.199 382.238 229.896 380.505 232.404 378.483C234.699 376.637 237.119 373.647 237.044 370.533C237.049 369.797 236.9 369.069 236.606 368.395C236.311 367.721 235.878 367.116 235.335 366.621C234.792 366.126 234.151 365.751 233.454 365.52C232.757 365.289 232.018 365.208 231.288 365.282C226.911 365.848 223.237 372.919 222.51 376.813C222.51 377.039 222.284 379.576 222.184 381.171C222.096 380.229 222.021 379.299 221.92 378.32C221.72 376.398 221.469 374.464 221.206 372.404L220.717 369.377C220.579 368.372 220.303 367.33 220.09 366.287C219.563 363.876 218.911 361.477 218.196 359.053C219.876 358.889 225.87 358.174 228.441 356.704C231.012 355.235 233.833 352.647 234.222 349.545C234.339 348.819 234.303 348.077 234.114 347.367C233.926 346.657 233.59 345.994 233.128 345.423C232.666 344.852 232.09 344.384 231.436 344.051C230.781 343.718 230.064 343.527 229.332 343.491C224.917 343.378 220.215 349.771 218.923 353.539C218.836 353.765 218.209 356.553 217.883 358.086C217.444 356.641 217.017 355.197 216.528 353.74C215.099 349.557 213.531 345.375 211.976 341.18L210.584 337.336C211.186 337.274 218.334 336.595 221.206 334.938C223.714 333.468 226.598 330.881 226.987 327.791C227.104 327.065 227.067 326.322 226.879 325.611C226.69 324.9 226.354 324.237 225.893 323.665C225.432 323.092 224.855 322.624 224.201 322.289C223.547 321.955 222.829 321.763 222.096 321.724C217.682 321.624 212.979 328.004 211.688 331.772C211.587 332.061 210.685 336.055 210.496 337.085C209.481 334.259 208.49 331.433 207.637 328.607C206.447 324.801 205.509 320.92 204.828 316.989C205.104 316.989 212.566 316.286 215.512 314.59C218.02 313.121 220.905 310.533 221.293 307.431C221.409 306.706 221.37 305.965 221.181 305.255C220.992 304.546 220.656 303.884 220.194 303.313C219.733 302.742 219.157 302.275 218.504 301.941C217.851 301.608 217.135 301.416 216.403 301.377C211.989 301.264 207.286 307.657 205.995 311.425C205.907 311.676 205.217 314.716 204.916 316.173H204.665C204.09 312.198 203.867 308.18 204.001 304.166C204.001 301.955 204.214 299.845 204.415 297.798C205.819 297.798 212.227 297.798 215.036 296.542C217.845 295.286 220.854 293.113 221.582 290.073C221.778 289.365 221.823 288.623 221.713 287.896C221.604 287.168 221.342 286.473 220.945 285.854C220.549 285.235 220.026 284.707 219.412 284.304C218.798 283.902 218.106 283.633 217.381 283.517C213.004 282.914 207.625 288.805 205.932 292.309C205.832 292.51 205.117 294.582 204.603 296.077C204.716 295.147 204.816 294.193 204.929 293.314C205.38 289.998 205.995 287.034 206.559 284.333C206.897 282.826 207.224 281.47 207.55 280.201C208.929 279.498 214.472 276.596 216.328 274.235C218.183 271.874 219.901 268.508 219.149 265.443C218.738 264.191 217.871 263.139 216.72 262.499C215.57 261.859 214.221 261.677 212.942 261.989Z" fill="white"/>
<path d="M133.112 330.165C136.561 330.027 143.458 326.485 143.47 326.485C143.483 326.485 139.708 322.641 139.482 322.428C136.398 319.916 128.999 317.027 125.325 319.464C124.724 319.886 124.218 320.431 123.841 321.062C123.465 321.693 123.225 322.397 123.139 323.127C123.053 323.857 123.121 324.598 123.34 325.3C123.559 326.002 123.923 326.65 124.409 327.201C126.391 329.625 130.165 330.328 133.112 330.165Z" fill="white"/>
</g>
<path d="M175.259 425.018C175.259 425.018 196.201 374.464 207.926 376.662C219.651 378.86 187.862 457.259 187.862 457.259C187.862 457.259 224.704 387.652 249.834 387.652C274.965 387.652 240.617 464.582 208.804 490.229C208.804 490.229 259.039 436.008 288.345 447.739C317.651 459.47 229.733 514.407 229.733 514.407C229.733 514.407 280.808 498.293 274.952 510.752C269.096 523.212 253.183 525.397 253.183 525.397L310.954 528.336H109.951L155.17 523.94C155.17 523.94 108.27 500.491 120.835 490.97C133.4 481.45 161.026 501.96 161.026 501.96C161.026 501.96 113.299 449.209 122.503 429.414C131.708 409.619 172.751 465.323 172.751 465.323C172.751 465.323 139.257 394.246 145.953 381.824C152.649 369.402 175.259 425.018 175.259 425.018Z" fill="#0D47A1"/>
<path opacity="0.5" d="M175.259 425.018C175.259 425.018 196.201 374.464 207.926 376.662C219.651 378.86 187.862 457.259 187.862 457.259C187.862 457.259 224.704 387.652 249.834 387.652C274.965 387.652 240.617 464.582 208.803 490.229C208.803 490.229 259.039 436.008 288.345 447.739C317.651 459.47 229.733 514.407 229.733 514.407C229.733 514.407 280.808 498.293 274.952 510.753C269.096 523.212 253.183 525.397 253.183 525.397L310.954 528.336H109.951L155.17 523.941C155.17 523.941 108.27 500.491 120.835 490.97C133.4 481.45 161.026 501.961 161.026 501.961C161.026 501.961 113.299 449.209 122.503 429.414C131.708 409.619 172.751 465.323 172.751 465.323C172.751 465.323 139.257 394.246 145.953 381.824C152.649 369.402 175.259 425.018 175.259 425.018Z" fill="white"/>
<path d="M168.563 427.681C186.984 482.204 186.984 520.788 186.984 520.788C186.984 520.788 165.214 521.617 142.605 504.849" stroke="#263238" stroke-linecap="round" stroke-linejoin="round"/>
<path d="M177.78 457.046C181.566 440.745 186.597 424.759 192.828 409.23" stroke="#263238" stroke-linecap="round" stroke-linejoin="round"/>
<path d="M232.203 425.168L185.316 494.789C185.316 494.789 153.49 467.948 142.605 452.851" stroke="#263238" stroke-linecap="round" stroke-linejoin="round"/>
<path d="M186.156 511.556C186.156 511.556 235.551 488.069 255.653 474.655" stroke="#263238" stroke-linecap="round" stroke-linejoin="round"/>
<path d="M445.408 425.018C445.408 425.018 424.479 374.464 412.804 376.662C401.129 378.86 432.868 457.259 432.868 457.259C432.868 457.259 396.026 387.652 370.908 387.652C345.79 387.652 380.112 464.582 411.939 490.229C411.939 490.229 361.691 436.008 332.385 447.739C303.079 459.47 391.01 514.407 391.01 514.407C391.01 514.407 339.922 498.293 345.79 510.752C351.659 523.212 367.56 525.397 367.56 525.397L309.738 528.336H510.729L465.51 523.94C465.51 523.94 512.397 500.491 499.844 490.97C487.292 481.45 459.641 501.96 459.641 501.96C459.641 501.96 507.381 449.209 498.164 429.414C488.947 409.619 447.916 465.323 447.916 465.323C447.916 465.323 481.423 394.246 474.714 381.786C468.005 369.327 445.408 425.018 445.408 425.018Z" fill="#0D47A1"/>
<path opacity="0.5" d="M445.408 425.018C445.408 425.018 424.479 374.464 412.804 376.662C401.129 378.86 432.868 457.259 432.868 457.259C432.868 457.259 396.026 387.652 370.908 387.652C345.79 387.652 380.112 464.582 411.939 490.229C411.939 490.229 361.691 436.008 332.385 447.739C303.079 459.47 391.01 514.407 391.01 514.407C391.01 514.407 339.922 498.293 345.79 510.752C351.659 523.212 367.56 525.397 367.56 525.397L309.738 528.336H510.729L465.51 523.94C465.51 523.94 512.397 500.491 499.844 490.97C487.292 481.45 459.641 501.96 459.641 501.96C459.641 501.96 507.381 449.209 498.164 429.414C488.947 409.619 447.916 465.323 447.916 465.323C447.916 465.323 481.423 394.246 474.714 381.786C468.005 369.327 445.408 425.018 445.408 425.018Z" fill="white"/>
<path d="M452.105 427.681C433.683 482.204 433.683 520.788 433.683 520.788C433.683 520.788 455.453 521.617 478.062 504.849" stroke="#263238" stroke-linecap="round" stroke-linejoin="round"/>
<path d="M442.9 457.046C439.113 440.745 434.083 424.759 427.852 409.23" stroke="#263238" stroke-linecap="round" stroke-linejoin="round"/>
<path d="M388.464 425.168L435.364 494.789C435.364 494.789 467.178 467.948 478.062 452.851" stroke="#263238" stroke-linecap="round" stroke-linejoin="round"/>
<path d="M434.524 511.556C434.524 511.556 385.116 488.069 365.014 474.655" stroke="#263238" stroke-linecap="round" stroke-linejoin="round"/>
<path d="M411.6 152.604H217.983C213.308 152.604 209.518 156.4 209.518 161.082V524.179C209.518 528.861 213.308 532.657 217.983 532.657H411.6C416.275 532.657 420.065 528.861 420.065 524.179V161.082C420.065 156.4 416.275 152.604 411.6 152.604Z" fill="#263238" stroke="#263238" stroke-miterlimit="10"/>
<path d="M329.351 175.313H303.142C302.788 175.313 302.437 175.243 302.11 175.107C301.783 174.971 301.486 174.772 301.236 174.522C300.985 174.271 300.787 173.973 300.651 173.646C300.516 173.318 300.446 172.967 300.446 172.612C300.446 172.258 300.516 171.908 300.651 171.581C300.787 171.254 300.986 170.957 301.236 170.707C301.487 170.457 301.784 170.26 302.111 170.125C302.438 169.991 302.789 169.923 303.142 169.924H329.351C330.062 169.924 330.745 170.208 331.248 170.712C331.751 171.216 332.034 171.899 332.034 172.612C332.036 172.966 331.968 173.317 331.833 173.645C331.699 173.972 331.502 174.27 331.253 174.521C331.003 174.772 330.707 174.971 330.38 175.107C330.054 175.243 329.704 175.313 329.351 175.313Z" fill="#0D47A1"/>
<path d="M406.76 498.695H222.823V175.626H266.425L271.328 179.696C273.037 181.127 275.195 181.91 277.422 181.906H354.343C356.652 181.894 358.878 181.046 360.613 179.52L365.039 175.626H406.722L406.76 498.695Z" fill="white" stroke="#263238" stroke-width="0.938618" stroke-linecap="round" stroke-linejoin="round"/>
<path d="M296.283 199.44L293.775 191H231.175V199.44V481.538V489.991H398.973V199.44H296.283Z" fill="#0D47A1"/>
<path d="M393.066 214.65H237.069V480.696H393.066V214.65Z" fill="white"/>
<path d="M320.673 508.68C320.675 507.85 320.432 507.037 319.973 506.346C319.514 505.654 318.861 505.115 318.096 504.795C317.331 504.476 316.488 504.391 315.675 504.551C314.862 504.712 314.114 505.11 313.527 505.696C312.94 506.283 312.54 507.03 312.378 507.844C312.215 508.658 312.297 509.502 312.614 510.27C312.93 511.037 313.467 511.693 314.156 512.154C314.845 512.616 315.656 512.862 316.485 512.862C317.592 512.859 318.654 512.418 319.438 511.634C320.222 510.851 320.666 509.789 320.673 508.68Z" fill="#0D47A1"/>
<path d="M303.355 469.078C331.723 469.078 354.719 436.305 354.719 395.878C354.719 355.451 331.723 322.679 303.355 322.679C274.988 322.679 251.991 355.451 251.991 395.878C251.991 436.305 274.988 469.078 303.355 469.078Z" fill="#0D47A1"/>
<path opacity="0.5" d="M303.355 469.078C331.723 469.078 354.719 436.305 354.719 395.878C354.719 355.451 331.723 322.679 303.355 322.679C274.988 322.679 251.991 355.451 251.991 395.878C251.991 436.305 274.988 469.078 303.355 469.078Z" fill="white"/>
<path d="M310.641 314.175C310.641 314.175 307.431 308.8 304.484 308.536C301.537 308.272 266.45 330.328 261.083 341.807C255.716 353.287 250.637 376.322 264.845 398.491C278.701 420.056 300.421 419.34 311.682 418.26C322.943 417.18 330.492 413.513 341.903 404.344C353.314 395.175 363.785 381.673 365.303 372.504C366.82 363.335 361.24 358.236 357.678 356.967C354.117 355.699 333.514 355.95 318.503 340.639C303.493 325.329 310.641 314.175 310.641 314.175Z" fill="#263238" stroke="#263238" stroke-linecap="round" stroke-linejoin="round"/>
<path d="M315.193 307.192C315.193 307.192 306.089 310.684 300.458 316.851C294.828 323.018 291.354 332.689 291.091 346.907C290.828 361.125 295.38 377.214 313.049 384.198C330.717 391.181 346.53 385.805 351.622 380.97C356.713 376.134 362.908 362.469 362.908 362.469C362.908 362.469 334.793 370.005 321.4 354.142C308.007 338.278 315.193 307.192 315.193 307.192Z" fill="white" stroke="#263238" stroke-linecap="round" stroke-linejoin="round"/>
<path d="M472.545 317.102C465.673 306.778 449.271 303.726 436.304 299.518C423.338 295.31 415.701 286.958 419.137 266.284C422.573 245.611 440.455 212.025 440.116 205.908C439.778 199.792 378.319 200.181 372.588 202.14C366.858 204.1 365.729 203.66 360.387 210.543C357.426 214.26 354.748 218.194 352.374 222.312L358.995 208.37H359.484C360.204 206.538 361.225 204.84 362.506 203.346C368.333 196.576 371.635 187.991 371.849 179.055C372.099 165.905 362.757 167.173 360.989 171.218C359.221 175.262 348.875 189.179 345.841 192.972C342.806 196.765 336.498 207.139 336.498 207.139L329.488 231.481C329.488 231.481 327.959 238.74 319.181 266.259C310.403 293.778 314.227 306.464 314.227 306.464C314.227 306.464 311.932 305.321 306.59 321.749C301.248 338.178 303.543 359.191 313.074 369.126C322.604 379.061 335.207 378.684 349.327 372.956C358.013 369.229 365.247 362.764 369.93 354.543C369.93 354.543 384.815 350.775 395.875 342.323C406.936 333.87 415.325 325.128 431.376 325.894C447.427 326.66 465.71 335.829 471.817 335.44C477.924 335.05 479.417 327.414 472.545 317.102Z" fill="white"/>
<mask id="mask0_11_680" style="mask-type:luminance" maskUnits="userSpaceOnUse" x="303" y="168" width="175" height="209">
<path d="M472.545 317.102C465.673 306.778 449.271 303.726 436.304 299.518C423.338 295.31 415.701 286.958 419.137 266.284C422.573 245.611 440.455 212.025 440.116 205.908C439.778 199.792 378.319 200.181 372.588 202.14C366.858 204.1 365.729 203.66 360.387 210.543C357.426 214.26 354.748 218.194 352.374 222.312L358.995 208.37H359.484C360.204 206.538 361.225 204.84 362.506 203.346C368.333 196.576 371.635 187.991 371.849 179.055C372.099 165.905 362.757 167.173 360.989 171.218C359.221 175.262 348.875 189.179 345.841 192.972C342.806 196.765 336.498 207.139 336.498 207.139L329.488 231.481C329.488 231.481 327.959 238.74 319.181 266.259C310.403 293.778 314.227 306.464 314.227 306.464C314.227 306.464 311.932 305.321 306.59 321.749C301.248 338.178 303.543 359.191 313.074 369.126C322.604 379.061 335.207 378.684 349.327 372.956C358.013 369.229 365.247 362.764 369.93 354.543C369.93 354.543 384.815 350.775 395.875 342.323C406.936 333.87 415.325 325.128 431.376 325.894C447.427 326.66 465.71 335.829 471.817 335.44C477.924 335.05 479.417 327.414 472.545 317.102Z" fill="white"/>
</mask>
<g mask="url(#mask0_11_680)">
<path d="M374.143 281.344C331.696 287.687 318.353 297.835 322.591 311.802C323.471 314.572 324.9 317.135 326.792 319.338C326.792 319.602 326.792 319.891 326.868 320.192C326.868 320.192 327.62 320.644 328.749 321.448C330.235 322.886 331.841 324.193 333.551 325.354C336.335 328.004 338.831 331.32 338.317 334.397C337.226 340.954 322.015 352.408 314.328 352.961C306.641 353.514 303.97 345.865 302.879 354.054C301.788 362.243 318.692 382.439 335.044 380.254C351.396 378.069 365.027 355.134 365.027 355.134C365.027 355.134 362.845 351.366 373.805 339.848C381.003 332.312 391.298 328.984 399.186 325.894C406.633 323.701 413.891 320.912 420.893 317.555C440.292 308.034 463.34 314.389 463.34 314.389C463.34 314.389 416.591 274.926 374.143 281.344Z" fill="#0D47A1"/>
<path opacity="0.5" d="M374.143 281.344C331.696 287.687 318.353 297.835 322.591 311.802C323.471 314.572 324.9 317.135 326.792 319.338C326.792 319.602 326.792 319.891 326.868 320.192C326.868 320.192 327.62 320.644 328.749 321.448C330.235 322.886 331.841 324.193 333.551 325.354C336.335 328.004 338.831 331.32 338.317 334.397C337.226 340.954 322.015 352.408 314.328 352.961C306.641 353.514 303.97 345.865 302.879 354.054C301.788 362.243 318.692 382.439 335.044 380.254C351.396 378.069 365.027 355.134 365.027 355.134C365.027 355.134 362.845 351.366 373.805 339.848C381.003 332.312 391.298 328.984 399.186 325.894C406.633 323.701 413.891 320.912 420.893 317.555C440.292 308.034 463.34 314.389 463.34 314.389C463.34 314.389 416.591 274.926 374.143 281.344Z" fill="white"/>
</g>
<path d="M472.545 317.102C465.673 306.778 449.271 303.726 436.304 299.518C423.338 295.31 415.701 286.958 419.137 266.284C422.573 245.611 440.455 212.025 440.116 205.908C439.778 199.792 378.319 200.181 372.588 202.14C366.858 204.1 365.729 203.66 360.387 210.543C357.426 214.26 354.748 218.194 352.374 222.312L358.995 208.37H359.484C360.204 206.538 361.225 204.84 362.506 203.346C368.333 196.576 371.635 187.991 371.849 179.055C372.099 165.905 362.757 167.173 360.989 171.218C359.221 175.262 348.875 189.179 345.841 192.972C342.806 196.765 336.498 207.139 336.498 207.139L329.488 231.481C329.488 231.481 327.959 238.74 319.181 266.259C310.403 293.778 314.227 306.464 314.227 306.464C314.227 306.464 311.932 305.321 306.59 321.749C301.248 338.178 303.543 359.191 313.074 369.126C322.604 379.061 335.207 378.684 349.327 372.956C358.013 369.229 365.247 362.764 369.93 354.543C369.93 354.543 384.815 350.775 395.875 342.323C406.936 333.87 415.325 325.128 431.376 325.894C447.427 326.66 465.71 335.829 471.817 335.44C477.924 335.05 479.417 327.414 472.545 317.102Z" stroke="#263238" stroke-linecap="round" stroke-linejoin="round"/>
<path d="M472.758 335.352C472.758 335.352 473.561 332.136 464.457 327.816C455.352 323.495 451.603 326.472 451.603 328.62C451.603 330.767 471.354 335.352 472.758 335.352Z" fill="white" stroke="#263238" stroke-linecap="round" stroke-linejoin="round"/>
<path d="M386.495 188.186L363.522 205.896H394.333C394.333 205.896 394.333 184.142 386.495 188.186Z" fill="white" stroke="#263238" stroke-linecap="round" stroke-linejoin="round"/>
<path d="M357.678 315.922C360.941 312.228 365.009 309.336 369.566 307.469" stroke="#263238" stroke-linecap="round" stroke-linejoin="round"/>
<path d="M353.503 322.792C353.855 321.771 354.313 320.79 354.869 319.865" stroke="#263238" stroke-linecap="round" stroke-linejoin="round"/>
<path d="M344.348 346.656C343.12 345.573 341.971 344.402 340.912 343.151" stroke="#263238" stroke-linecap="round" stroke-linejoin="round"/>
<path d="M369.93 354.544C362.845 355.351 355.687 353.882 349.49 350.349" stroke="#263238" stroke-linecap="round" stroke-linejoin="round"/>
<path d="M455.829 204.376H340.06C324.071 204.376 311.117 216.773 311.117 232.008V286.644C311.117 299.932 320.911 311.036 333.978 313.711L327.871 331.81L356.136 314.376H455.829C471.805 314.376 484.771 301.98 484.771 286.744V232.108C484.771 216.773 471.805 204.376 455.829 204.376Z" fill="#0D47A1" stroke="#263238" stroke-width="2" stroke-miterlimit="10"/>
<path d="M421.795 196.287C421.795 196.287 422.31 206.398 431.401 211.209C440.493 216.019 452.105 214.977 452.355 208.935C452.606 202.894 445.534 196.539 440.743 188.437C435.953 180.336 425.332 184.908 420.792 190.472" fill="white"/>
<path d="M421.795 196.287C421.795 196.287 422.31 206.398 431.401 211.209C440.493 216.019 452.105 214.977 452.355 208.935C452.606 202.894 445.534 196.539 440.743 188.437C435.953 180.336 425.332 184.908 420.792 190.472" stroke="#263238" stroke-linecap="round" stroke-linejoin="round"/>
<path d="M437.458 204.376C436.693 208.421 439.477 210.656 441.997 211.912C444.518 213.168 449.521 212.427 452.355 208.885C452.481 205.921 450.863 202.907 448.593 199.654C445.433 200.056 438.047 201.211 437.458 204.376Z" fill="white" stroke="#263238" stroke-linecap="round" stroke-linejoin="round"/>
<path d="M402.86 196.287C402.86 196.287 403.362 206.398 412.453 211.209C421.545 216.019 433.169 214.977 433.42 208.935C433.671 202.894 426.598 196.539 421.795 188.437C416.993 180.336 406.396 184.908 401.844 190.472" fill="white"/>
<path d="M402.86 196.287C402.86 196.287 403.362 206.398 412.453 211.209C421.545 216.019 433.169 214.977 433.42 208.935C433.671 202.894 426.598 196.539 421.795 188.437C416.993 180.336 406.396 184.908 401.844 190.472" stroke="#263238" stroke-linecap="round" stroke-linejoin="round"/>
<path d="M418.523 204.376C417.758 208.421 420.541 210.656 423.062 211.912C425.583 213.168 430.586 212.427 433.42 208.885C433.533 205.921 431.915 202.907 429.658 199.654C426.498 200.056 419.112 201.211 418.523 204.376Z" fill="white" stroke="#263238" stroke-linecap="round" stroke-linejoin="round"/>
<path d="M385.241 196.287C385.241 196.287 385.743 206.398 394.834 211.209C403.926 216.019 415.538 214.977 415.789 208.935C416.04 202.894 408.98 196.539 404.177 188.437C399.374 180.336 388.765 184.908 384.226 190.472" fill="white"/>
<path d="M385.241 196.287C385.241 196.287 385.743 206.398 394.834 211.209C403.926 216.019 415.538 214.977 415.789 208.935C416.04 202.894 408.98 196.539 404.177 188.437C399.374 180.336 388.765 184.908 384.226 190.472" stroke="#263238" stroke-linecap="round" stroke-linejoin="round"/>
<path d="M400.891 204.376C400.139 208.421 402.91 210.656 405.443 211.912C407.976 213.168 412.967 212.427 415.789 208.885C415.914 205.921 414.296 202.907 412.027 199.654C408.867 200.056 401.481 201.211 400.891 204.376Z" fill="white" stroke="#263238" stroke-linecap="round" stroke-linejoin="round"/>
<path d="M314.227 306.464C314.227 306.464 314.93 322.013 323.494 332.476" stroke="#263238" stroke-linecap="round" stroke-linejoin="round"/>
<path d="M289.298 371.361C289.298 374.526 287.191 377.089 284.595 377.089C282 377.089 279.893 374.577 279.893 371.361C279.893 368.146 282 365.634 284.595 365.634C287.191 365.634 289.298 368.196 289.298 371.361Z" fill="white"/>
<path d="M277.598 378.495C277.598 381.66 275.491 384.223 272.895 384.223C270.3 384.223 268.193 381.711 268.193 378.495C268.193 375.28 270.3 372.755 272.895 372.755C275.491 372.755 277.598 375.33 277.598 378.495Z" stroke="#263238" stroke-linecap="round" stroke-linejoin="round"/>
<path d="M361.481 235.15L357.031 253H354.756L351.581 241.3C351.481 240.95 351.381 240.592 351.281 240.225C351.198 239.858 351.114 239.508 351.031 239.175C350.948 238.842 350.881 238.558 350.831 238.325C350.781 238.075 350.748 237.892 350.731 237.775C350.714 237.892 350.681 238.075 350.631 238.325C350.581 238.558 350.523 238.842 350.456 239.175C350.389 239.508 350.306 239.867 350.206 240.25C350.123 240.617 350.031 240.992 349.931 241.375L346.831 253H344.531L340.106 235.15H342.431L345.006 246.05C345.089 246.433 345.173 246.817 345.256 247.2C345.339 247.567 345.406 247.933 345.456 248.3C345.523 248.65 345.581 248.992 345.631 249.325C345.698 249.658 345.748 249.983 345.781 250.3C345.831 249.967 345.881 249.625 345.931 249.275C345.998 248.925 346.064 248.567 346.131 248.2C346.214 247.817 346.298 247.433 346.381 247.05C346.481 246.667 346.581 246.292 346.681 245.925L349.581 235.15H351.881L354.906 246C355.006 246.383 355.098 246.775 355.181 247.175C355.281 247.558 355.364 247.933 355.431 248.3C355.514 248.667 355.581 249.025 355.631 249.375C355.698 249.708 355.756 250.017 355.806 250.3C355.856 249.883 355.923 249.45 356.006 249C356.089 248.533 356.181 248.05 356.281 247.55C356.398 247.05 356.514 246.542 356.631 246.025L359.181 235.15H361.481ZM373.43 253H364.03V235.15H373.43V237.125H366.255V242.7H373.005V244.65H366.255V251.025H373.43V253ZM377.116 253V235.15H379.341V251H386.641V253H377.116ZM396.23 236.875C395.346 236.875 394.555 237.042 393.855 237.375C393.155 237.692 392.555 238.167 392.055 238.8C391.571 239.417 391.196 240.175 390.93 241.075C390.68 241.958 390.555 242.958 390.555 244.075C390.555 245.542 390.763 246.817 391.18 247.9C391.596 248.983 392.221 249.817 393.055 250.4C393.905 250.983 394.955 251.275 396.205 251.275C396.938 251.275 397.63 251.208 398.28 251.075C398.946 250.942 399.605 250.775 400.255 250.575V252.525C399.621 252.775 398.971 252.958 398.305 253.075C397.638 253.192 396.838 253.25 395.905 253.25C394.188 253.25 392.755 252.875 391.605 252.125C390.471 251.375 389.621 250.308 389.055 248.925C388.488 247.542 388.205 245.917 388.205 244.05C388.205 242.7 388.38 241.467 388.73 240.35C389.08 239.233 389.596 238.267 390.28 237.45C390.963 236.633 391.805 236.008 392.805 235.575C393.805 235.125 394.955 234.9 396.255 234.9C397.105 234.9 397.93 234.992 398.73 235.175C399.53 235.358 400.255 235.617 400.905 235.95L400.03 237.85C399.513 237.6 398.93 237.375 398.28 237.175C397.646 236.975 396.963 236.875 396.23 236.875ZM418.11 244.05C418.11 245.433 417.943 246.692 417.61 247.825C417.276 248.942 416.785 249.908 416.135 250.725C415.485 251.542 414.676 252.167 413.71 252.6C412.743 253.033 411.626 253.25 410.36 253.25C409.043 253.25 407.893 253.033 406.91 252.6C405.943 252.15 405.135 251.525 404.485 250.725C403.851 249.908 403.376 248.933 403.06 247.8C402.743 246.667 402.585 245.408 402.585 244.025C402.585 242.192 402.868 240.592 403.435 239.225C404.001 237.858 404.86 236.792 406.01 236.025C407.176 235.258 408.635 234.875 410.385 234.875C412.068 234.875 413.485 235.258 414.635 236.025C415.785 236.775 416.651 237.842 417.235 239.225C417.818 240.592 418.11 242.2 418.11 244.05ZM404.935 244.05C404.935 245.55 405.126 246.842 405.51 247.925C405.893 249.008 406.485 249.842 407.285 250.425C408.101 251.008 409.126 251.3 410.36 251.3C411.61 251.3 412.635 251.008 413.435 250.425C414.235 249.842 414.818 249.008 415.185 247.925C415.568 246.842 415.76 245.55 415.76 244.05C415.76 241.8 415.326 240.042 414.46 238.775C413.61 237.492 412.251 236.85 410.385 236.85C409.135 236.85 408.101 237.142 407.285 237.725C406.485 238.292 405.893 239.117 405.51 240.2C405.126 241.267 404.935 242.55 404.935 244.05ZM429.193 253L423.793 237.35H423.693C423.727 237.683 423.752 238.108 423.768 238.625C423.802 239.142 423.827 239.708 423.843 240.325C423.86 240.925 423.868 241.542 423.868 242.175V253H421.818V235.15H425.068L430.143 249.775H430.243L435.418 235.15H438.668V253H436.468V242.025C436.468 241.442 436.477 240.867 436.493 240.3C436.51 239.717 436.535 239.175 436.568 238.675C436.602 238.158 436.627 237.725 436.643 237.375H436.543L431.043 253H429.193ZM452.63 253H443.23V235.15H452.63V237.125H445.455V242.7H452.205V244.65H445.455V251.025H452.63V253ZM374.202 269.15C375.602 269.15 376.777 269.292 377.727 269.575C378.677 269.858 379.394 270.325 379.877 270.975C380.36 271.625 380.602 272.492 380.602 273.575C380.602 274.275 380.477 274.9 380.227 275.45C379.994 275.983 379.644 276.433 379.177 276.8C378.71 277.15 378.135 277.392 377.452 277.525V277.65C378.152 277.767 378.777 277.983 379.327 278.3C379.894 278.617 380.335 279.067 380.652 279.65C380.985 280.233 381.152 280.992 381.152 281.925C381.152 283.008 380.91 283.933 380.427 284.7C379.96 285.45 379.294 286.025 378.427 286.425C377.56 286.808 376.519 287 375.302 287H369.377V269.15H374.202ZM374.627 276.75C376.027 276.75 376.985 276.508 377.502 276.025C378.035 275.525 378.302 274.792 378.302 273.825C378.302 272.842 377.977 272.142 377.327 271.725C376.694 271.292 375.685 271.075 374.302 271.075H371.602V276.75H374.627ZM371.602 278.625V285.1H374.902C376.352 285.1 377.36 284.792 377.927 284.175C378.51 283.558 378.802 282.75 378.802 281.75C378.802 281.117 378.669 280.567 378.402 280.1C378.152 279.633 377.735 279.275 377.152 279.025C376.569 278.758 375.769 278.625 374.752 278.625H371.602ZM395.209 287L393.259 281.475H386.634L384.709 287H382.434L388.934 269.075H391.034L397.509 287H395.209ZM390.759 274.075C390.726 273.942 390.651 273.7 390.534 273.35C390.434 273 390.326 272.642 390.209 272.275C390.109 271.892 390.026 271.6 389.959 271.4C389.876 271.733 389.784 272.075 389.684 272.425C389.601 272.758 389.517 273.067 389.434 273.35C389.351 273.633 389.276 273.875 389.209 274.075L387.359 279.475H392.609L390.759 274.075ZM406.508 270.875C405.625 270.875 404.833 271.042 404.133 271.375C403.433 271.692 402.833 272.167 402.333 272.8C401.85 273.417 401.475 274.175 401.208 275.075C400.958 275.958 400.833 276.958 400.833 278.075C400.833 279.542 401.041 280.817 401.458 281.9C401.875 282.983 402.5 283.817 403.333 284.4C404.183 284.983 405.233 285.275 406.483 285.275C407.216 285.275 407.908 285.208 408.558 285.075C409.225 284.942 409.883 284.775 410.533 284.575V286.525C409.9 286.775 409.25 286.958 408.583 287.075C407.916 287.192 407.116 287.25 406.183 287.25C404.466 287.25 403.033 286.875 401.883 286.125C400.75 285.375 399.9 284.308 399.333 282.925C398.766 281.542 398.483 279.917 398.483 278.05C398.483 276.7 398.658 275.467 399.008 274.35C399.358 273.233 399.875 272.267 400.558 271.45C401.241 270.633 402.083 270.008 403.083 269.575C404.083 269.125 405.233 268.9 406.533 268.9C407.383 268.9 408.208 268.992 409.008 269.175C409.808 269.358 410.533 269.617 411.183 269.95L410.308 271.85C409.791 271.6 409.208 271.375 408.558 271.175C407.925 270.975 407.241 270.875 406.508 270.875ZM426.527 287H423.927L418.102 278.475L416.402 280.075V287H414.177V269.15H416.402V277.95C416.852 277.383 417.31 276.817 417.777 276.25C418.244 275.683 418.71 275.117 419.177 274.55L423.702 269.15H426.302L419.702 276.925L426.527 287ZM430.576 281.975H428.826L428.401 269.15H431.026L430.576 281.975ZM428.201 285.65C428.201 285.033 428.343 284.6 428.626 284.35C428.926 284.1 429.284 283.975 429.701 283.975C430.101 283.975 430.451 284.1 430.751 284.35C431.051 284.6 431.201 285.033 431.201 285.65C431.201 286.25 431.051 286.683 430.751 286.95C430.451 287.217 430.101 287.35 429.701 287.35C429.284 287.35 428.926 287.217 428.626 286.95C428.343 286.683 428.201 286.25 428.201 285.65Z" fill="white"/>
</svg>
