<svg width="50" height="40" viewBox="0 0 50 40" fill="none" xmlns="http://www.w3.org/2000/svg">
<path d="M49.9999 24.0729L43.5468 16.9408L49.9999 11.0225V24.0729Z" fill="#455A64"/>
<path d="M6.46094 16.9408L0 24.0812V11.0225L6.46094 16.9408Z" fill="#455A64"/>
<path d="M50 30.5566V37.1234C50 38.7111 48.7891 39.9997 47.2969 39.9997H2.70312C1.21084 39.9997 0 38.7112 0 37.1234V30.5566L9.66397 19.8833L20.7031 29.9995C21.8516 31.047 23.3749 31.6289 25 31.6289C26.6251 31.6289 28.1562 31.047 29.3047 29.9995L40.3358 19.8833L50 30.5566Z" fill="#455A64"/>
<path d="M50 2.8678V5.74391L26.4217 27.3563C25.6639 28.0546 24.3358 28.0546 23.578 27.3563L0 5.74391V2.8678C0 1.28022 1.21074 0 2.70312 0H47.2969C48.7891 0 50 1.28022 50 2.8678Z" fill="#455A64"/>
</svg>
