<svg width="65" height="65" viewBox="0 0 65 65" fill="none" xmlns="http://www.w3.org/2000/svg">
<g clip-path="url(#clip0_11_560)">
<path fill-rule="evenodd" clip-rule="evenodd" d="M34.7187 65H3.58912C2.63762 64.9996 1.72521 64.6214 1.05252 63.9485C0.37983 63.2755 0.00195331 62.363 0.00195338 61.4115V3.58853C0.00177543 3.11723 0.0944675 2.65051 0.274746 2.21505C0.455024 1.77958 0.71934 1.38393 1.0526 1.05067C1.38586 0.717407 1.78154 0.45307 2.217 0.272792C2.65246 0.0925144 3.11918 -0.000177696 3.59049 2.55738e-07H61.4148C61.886 2.22165e-07 62.3525 0.0928273 62.7878 0.273185C63.2231 0.453543 63.6186 0.7179 63.9518 1.05114C64.2849 1.38439 64.5491 1.78 64.7293 2.21538C64.9095 2.65075 65.0021 3.11734 65.002 3.58853V61.4115C65.002 62.363 64.6241 63.2755 63.9514 63.9485C63.2787 64.6214 62.3663 64.9996 61.4148 65H44.8506V39.8288H53.3006L54.5654 30.0192H44.8506V23.7561C44.8506 20.9151 45.6401 18.98 49.7121 18.98L54.9066 18.9773V10.2037C54.0088 10.0845 50.9254 9.81771 47.3368 9.81771C39.8483 9.81771 34.7201 14.3894 34.7201 22.7838V30.0192H26.2498V39.8288H34.7201V65H34.7187Z" fill="#4460A0"/>
</g>
<defs>
<clipPath id="clip0_11_560">
<rect width="65" height="65" fill="white"/>
</clipPath>
</defs>
</svg>
