<svg width="65" height="65" viewBox="0 0 65 65" fill="none" xmlns="http://www.w3.org/2000/svg">
<path fill-rule="evenodd" clip-rule="evenodd" d="M12.3679 29.5454C12.3679 27.6263 12.6936 25.7864 13.2748 24.0607L3.10021 16.4568C1.11723 20.3971 0 24.837 0 29.5454C0 34.2499 1.11586 38.6871 3.09609 42.6247L13.2652 35.006C12.6894 33.2883 12.3679 31.4551 12.3679 29.5454Z" fill="#FBBC05"/>
<path fill-rule="evenodd" clip-rule="evenodd" d="M30.2325 12.0868C34.4926 12.0868 38.3404 13.5641 41.3636 15.9814L50.1585 7.38636C44.7991 2.82025 37.9281 0 30.2325 0C18.2852 0 8.0171 6.68667 3.10019 16.4568L13.2748 24.0607C15.6192 17.0961 22.302 12.0868 30.2325 12.0868Z" fill="#EB4335"/>
<path fill-rule="evenodd" clip-rule="evenodd" d="M30.2325 47.0042C22.302 47.0042 15.6192 41.9949 13.2748 35.0303L3.10016 42.6329C8.01707 52.4043 18.2852 59.091 30.2325 59.091C37.6065 59.091 44.6466 56.5286 49.9304 51.7275L40.2725 44.4204C37.5474 46.1004 34.116 47.0042 30.2325 47.0042Z" fill="#34A853"/>
<path fill-rule="evenodd" clip-rule="evenodd" d="M59.091 29.5455C59.091 27.7996 58.8161 25.9195 58.4038 24.1736H30.2326V35.5889H46.4482C45.6375 39.4808 43.4305 42.473 40.2726 44.4203L49.9305 51.7274C55.4809 46.6859 59.091 39.176 59.091 29.5455Z" fill="#4285F4"/>
</svg>
