<svg width="65" height="65" viewBox="0 0 65 65" fill="none" xmlns="http://www.w3.org/2000/svg">
<g clip-path="url(#clip0_11_569)">
<path fill-rule="evenodd" clip-rule="evenodd" d="M65 11.8291C62.6117 12.9168 60.0402 13.6523 57.3429 13.9809C60.0975 12.2908 62.2111 9.61081 63.2068 6.41832C60.6278 7.98327 57.7778 9.12175 54.7333 9.73208C52.3068 7.07559 48.8387 5.41675 45.0006 5.41675C37.641 5.41675 31.6702 11.5396 31.6702 19.0905C31.6702 20.1624 31.7847 21.2031 32.0136 22.2047C20.9303 21.6335 11.1061 16.1953 4.52487 7.91283C3.37649 9.93944 2.72025 12.2908 2.72025 14.7947C2.72025 19.5365 5.07427 23.7227 8.65295 26.1758C6.47064 26.1092 4.41041 25.4872 2.60962 24.47V24.6382C2.60962 31.2657 7.20697 36.7939 13.3113 38.0458C12.1935 38.3667 11.0146 38.5271 9.79751 38.5271C8.93909 38.5271 8.09974 38.4449 7.28709 38.2845C8.98487 43.7149 13.9065 47.6703 19.7438 47.7759C15.1808 51.4457 9.42743 53.6327 3.1819 53.6327C2.10601 53.6327 1.04157 53.5701 1.52588e-05 53.4449C5.90217 57.3181 12.9145 59.5834 20.442 59.5834C44.9739 59.5834 58.3844 38.7501 58.3844 20.6789C58.3844 20.0842 58.373 19.4895 58.3501 18.9066C60.9559 16.9778 63.2183 14.5717 65 11.8291Z" fill="#00AAEC"/>
</g>
<defs>
<clipPath id="clip0_11_569">
<rect width="65" height="65" fill="white"/>
</clipPath>
</defs>
</svg>
