<svg width="316" height="379" viewBox="0 0 316 379" fill="none" xmlns="http://www.w3.org/2000/svg">
<path fill-rule="evenodd" clip-rule="evenodd" d="M351.183 -14.242C373.85 20.2503 358.293 52.72 381.578 87.0649C408.697 127.065 477.536 149.954 489.509 189.788C500.66 226.89 436.714 215.444 428.777 244.106C419.821 276.451 461.503 336.479 442.159 360.788C424.149 383.419 376.216 386.829 336.49 360.074C286.563 326.449 277.668 253.748 228.863 217.133C195.947 192.439 176.861 208.538 142.941 186.755C113.157 167.628 93.0657 152.113 81.7052 122.631C71.2483 95.4932 85.5765 75.8155 74.0491 48.5578C57.1067 8.49593 2.73559 -33.2865 0.499899 -69.3869C-1.48509 -101.439 42.9968 -98.1935 64.0081 -113.576C87.7291 -130.943 96.5361 -167.605 133.002 -166.396C169.186 -165.195 214.332 -134.845 253.862 -107.278C290.311 -81.8597 327.328 -50.5412 351.183 -14.242Z" fill="#243E36"/>
</svg>
