<svg width="437" height="196" viewBox="0 0 437 196" fill="none" xmlns="http://www.w3.org/2000/svg">
<path fill-rule="evenodd" clip-rule="evenodd" d="M376.096 137.747C345.673 167.211 309.689 205.375 262.575 193.891C212.901 181.784 222.024 116.002 176.327 87.9547C141.275 66.4406 82.0879 68.3534 51.5402 40.0752C21.257 12.0419 0.820159 -17.6774 0.472394 -54.7953C0.153439 -88.8415 27.0807 -110.611 34.7033 -142.299C44.6505 -183.65 18.5437 -244.619 51.826 -268.274C83.9096 -291.078 136.661 -258.259 180.087 -245.631C218.096 -234.579 257.104 -225.505 289.334 -199.212C321.141 -173.263 335.451 -134.724 357.78 -100.669C385.57 -58.2861 433.011 -21.1478 436.584 25.3667C440.22 72.6982 406.881 107.932 376.096 137.747Z" fill="#7CA982"/>
</svg>
