<svg width="555" height="99" viewBox="0 0 555 99" fill="none" xmlns="http://www.w3.org/2000/svg">
<path fill-rule="evenodd" clip-rule="evenodd" d="M-36.7533 97.3138C-31.2502 62.2872 -27.186 18.557 23.4733 3.9463C76.8844 -11.458 117.249 38.5636 178.859 36.1265C226.119 34.2571 277.705 4.5636 325.921 9.54702C373.72 14.4873 413.946 25.3165 441.642 50.9079C467.047 74.3815 458.997 102.394 475.55 128.037C497.152 161.5 565.51 191.297 553.161 223.664C541.257 254.865 469.809 257.372 421.608 269.421C379.42 279.968 337.797 292.366 289.539 289.566C241.913 286.803 200.666 266.917 155.547 253.986C99.3939 237.892 29.5144 234.857 -8.00293 204.29C-46.1792 173.187 -42.3219 132.758 -36.7533 97.3138Z" fill="#7CA982"/>
</svg>
