<svg width="714" height="237" viewBox="0 0 714 237" fill="none" xmlns="http://www.w3.org/2000/svg">
<path fill-rule="evenodd" clip-rule="evenodd" d="M200.911 700.125C148.048 667.729 147.922 587.947 94.3239 556.644C31.8999 520.185 -75.5552 570.551 -117.494 514.162C-156.556 461.64 -63.1043 397.02 -71.0139 334.337C-79.9397 263.599 -174.944 210.202 -164.683 140.191C-155.13 75.0098 -92.855 4.78342 -22.0606 0.33387C66.9129 -5.25827 126.026 114.962 215.429 116.3C275.725 117.203 290.962 62.4545 350.722 56.7252C403.195 51.6945 440.285 53.0475 474.688 91.4444C506.354 126.787 499.839 181.683 533.023 215.814C581.796 265.978 682.038 269.27 708.457 331.882C731.913 387.471 669.965 440.993 651.673 497.013C631.023 560.256 642.949 638.639 593.106 685.153C543.648 731.307 463.23 736.464 392.172 739.177C326.653 741.678 256.543 734.219 200.911 700.125Z" fill="#243E36"/>
</svg>
