<svg width="308" height="216" viewBox="0 0 308 216" fill="none" xmlns="http://www.w3.org/2000/svg">
<g clip-path="url(#clip0_417_277)">
<path d="M238.066 141.034C235.56 136.796 231.219 129.455 223.753 127.247C209.686 123.087 197.598 141.016 196.457 142.758C185.075 160.133 183.313 190.187 194.793 204.799C200.677 212.289 208.673 213.983 212.102 214.709C216.131 215.562 225.502 217.547 233.406 210.4C237.651 206.563 239.686 201.708 241.062 198.337C247.516 182.521 248.353 158.43 238.066 141.034ZM220.593 206.916C212.347 208.019 204.532 198.003 201.321 188.624C199.53 183.287 198.902 177.418 199.506 171.652C200.11 165.886 201.923 160.445 204.748 155.919C205.938 154.051 212.271 144.115 221.022 145.387C229.628 146.637 234.753 157.882 236.439 165.342C240.258 182.235 232.238 205.359 220.593 206.916Z" fill="#649C7B"/>
<path d="M168.586 209.095H164.25L162.187 187.444H168.587L168.586 209.095Z" fill="#FFB6B6"/>
<path d="M168.47 207.261L163.84 204.824L163.707 204.753L161.151 207.261C159.707 207.262 158.323 208.004 157.302 209.325C156.282 210.646 155.708 212.438 155.708 214.306V214.535H169.691V207.261H168.47Z" fill="#2F2E41"/>
<path d="M222.891 165.918L221.912 171.387L205.15 169.106L206.594 161.034L222.891 165.918Z" fill="#FFB6B6"/>
<path d="M221.76 164.109L221.509 165.506L221.483 165.65L218.612 170.935L218.524 171.093L219.834 174.881C219.672 175.783 219.65 176.716 219.768 177.629C219.885 178.541 220.141 179.415 220.519 180.199C220.898 180.984 221.392 181.665 221.974 182.202C222.556 182.739 223.214 183.123 223.91 183.331L224.081 183.382L227.236 165.752L221.76 164.109Z" fill="#2F2E41"/>
<path d="M165.645 92.7215L189.558 93.8048L189.725 93.4914C189.725 93.4914 191.765 99.6518 191.765 104.932C191.765 106.688 190.822 118.171 191.301 120.343C191.361 120.613 190.95 121.275 191.085 122.533C191.172 123.35 191.654 122.722 191.765 123.854C191.844 124.666 190.996 125.114 191.085 126.054C191.182 127.08 192.349 130.405 192.454 131.547C193.572 143.703 191.752 146.862 191.752 146.862C191.752 146.862 212.204 157.955 213.469 158.292C215.592 158.857 217.025 163.853 215.849 164.892C215.289 165.387 213.424 174.603 213.424 174.603C213.027 174.696 211.782 173.888 212.575 171.978C212.721 171.626 211.85 172.521 211.706 172.1C211.552 171.652 209.373 173.617 209.197 173.12C207.614 168.657 187.817 162.471 185.514 159.295C182.113 154.603 179.959 148.626 179.366 142.237L177.394 118.791L175.584 129.419L174.087 131.334L174.497 135.8L174.427 140.135L170.687 158.176C170.687 158.176 170.126 191.868 171.027 192.938C171.515 193.518 173.585 200.656 169.667 201.299L162.549 200.588C162.549 200.588 161.589 197.972 162.069 197.041C162.549 196.11 162.52 196.364 161.935 194.841C161.35 193.317 161.589 190.735 161.589 190.735C160.657 178.602 160.289 166.406 160.488 154.216C160.845 134.193 163.007 111.191 163.007 110.722C163.025 110.243 162.957 109.765 162.808 109.326V108.062L163.726 103.584L165.645 92.7215Z" fill="#2F2E41"/>
<path d="M191.701 99.9619C185.663 101.314 181.614 100.799 179.122 96.0016C175.872 90.6439 169.96 96.9701 164.972 99.3223L164.38 98.4951L163.374 97.0913L164.299 95.7361L163.374 93.1223L164.146 89.8968L165.132 89.6636L164.866 86.887L164.452 85.2633L165.669 83.534L166.702 79.2173L165.958 70.1834C164.939 57.8006 166.913 45.3136 171.608 34.4441L174.433 31.1614L175.606 29.7974L177.18 25.9955L178.843 26.2463L183.344 26.9195L183.497 27.3948L184.602 30.8446L188.615 36.4252C189.183 37.2145 189.615 38.1512 189.881 39.173C190.147 40.1948 190.242 41.2783 190.16 42.3514L190.045 43.8563L189.96 44.9388L189.558 50.1488L187.923 71.4331L187.801 72.564L186.485 84.8013C188.623 87.4766 188.754 86.8929 189.661 91.6013C189.763 92.1249 190.946 93.291 191.021 93.8014C191.127 94.5231 191.701 99.9619 191.701 99.9619Z" fill="#3F3D56"/>
<path d="M179.442 23.7527C183.759 23.7527 187.259 19.2223 187.259 13.6337C187.259 8.0451 183.759 3.51465 179.442 3.51465C175.124 3.51465 171.624 8.0451 171.624 13.6337C171.624 19.2223 175.124 23.7527 179.442 23.7527Z" fill="#FFB6B6"/>
<path d="M187.621 6.01639C187.105 5.29436 186.441 4.77599 185.707 4.52109C184.973 4.26619 184.198 4.28514 183.472 4.57576C183.154 3.39683 182.591 2.35352 181.847 1.55944C181.102 0.765364 180.203 0.250955 179.248 0.0722215C178.293 -0.106512 177.319 0.0572828 176.431 0.545771C175.543 1.03426 174.776 1.82871 174.212 2.84264C173.955 2.69293 173.672 2.63184 173.39 2.66528C173.109 2.69872 172.84 2.82557 172.607 3.03353C172.146 3.4578 171.775 4.02498 171.527 4.68314C170.888 6.25485 170.59 8.02147 170.665 9.79495C170.74 11.5684 171.185 13.2824 171.953 14.7544C171.647 13.9548 172.508 15.3319 173.346 14.9711C174.066 14.7268 177.024 12.2716 177.763 12.3958C178.501 12.5199 178.74 11.7494 179.462 11.5157C180.17 11.2229 181.975 15.0075 182.337 17.5118C182.406 17.9863 182.572 18.576 182.945 18.5868C183.405 18.6001 183.542 17.7488 183.929 17.429C184.112 17.3088 184.324 17.2851 184.519 17.3628C184.715 17.4404 184.88 17.6135 184.979 17.8455C185.07 18.0839 185.115 18.3469 185.111 18.6125C185.107 18.8781 185.055 19.1387 184.957 19.3725C184.759 19.8374 184.505 20.2579 184.203 20.6176L184.404 20.7603C184.601 20.9434 184.842 21.0319 185.084 21.0106C185.327 20.9893 185.556 20.8595 185.733 20.6435C186.479 21.0795 188.51 18.6206 188.241 17.1329C188.808 15.3093 189.118 13.369 189.156 11.404C189.188 9.42183 188.639 7.49753 187.621 6.01639Z" fill="#2F2E41"/>
<path d="M127.366 40.1136C127.655 40.4656 128.001 40.7311 128.378 40.8915C128.755 41.052 129.155 41.1034 129.549 41.0422C129.943 40.9811 130.322 40.8088 130.66 40.5375C130.997 40.2662 131.284 39.9025 131.501 39.4721L148.212 44.6484L146.544 38.5271L130.56 34.4412C129.977 34.0176 129.294 33.8855 128.641 34.0698C127.988 34.2541 127.41 34.7421 127.016 35.4413C126.623 36.1405 126.441 37.0024 126.505 37.8635C126.57 38.7246 126.876 39.5253 127.366 40.1136Z" fill="#FFB8B8"/>
<path d="M177.294 36.3483L175.955 35.4446L169.848 35.3204L169.625 35.3174L169.613 35.3188L164.931 35.2261L142.323 34.7677L141.414 35.7951L140.016 34.7209L138.432 33.6816L136.978 34.6593L135.735 34.6341L135.545 35.7139L135.544 35.7178L135.538 35.749L134.696 40.4601L134.694 40.4639L134.705 41.5751L136.167 43.6151L136.943 44.3845L138.553 45.306L139.667 43.5876L140.974 45.3451L146.333 46.622C155.292 49.8165 163.541 51.354 169.872 48.4013L170.668 48.3532L176.952 47.9662C177.811 47.9145 178.639 47.5347 179.331 46.8746C180.024 46.2146 180.55 45.3039 180.843 44.2573L180.844 44.2535C181.043 43.5427 181.128 42.7871 181.094 42.0325C181.066 41.3389 180.937 40.6585 180.714 40.0271C180.313 38.8784 179.628 37.9354 178.766 37.3472L177.294 36.3483Z" fill="#3F3D56"/>
<path d="M270.507 202.48C270.809 202.494 271.107 202.388 271.361 202.176C271.615 201.963 271.812 201.655 271.926 201.293C272.04 200.931 272.065 200.532 271.998 200.15C271.931 199.769 271.775 199.424 271.551 199.161C271.513 198.97 271.485 198.833 271.446 198.642C271.728 197.689 272.224 196.866 272.869 196.28C273.515 195.693 274.281 195.37 275.069 195.35C275.858 195.331 276.633 195.617 277.295 196.171C277.957 196.726 278.476 197.523 278.786 198.462C280.571 203.732 282.872 209.182 281.791 215.024C289.067 194.563 286.355 169.257 275.253 151.972C272.204 149.847 269.717 146.035 269.044 141.581C270.55 142.221 272.41 140.617 271.266 138.584C270.771 137.808 270.272 137.038 269.777 136.262C275.421 128.331 282.307 140.602 276.108 151.288C278.186 154.595 279.991 158.174 281.494 161.967C281.123 157.924 281.5 153.826 282.592 150.009C283.701 146.45 285.807 143.438 287.658 140.351C289.909 136.589 294.611 138.254 294.952 142.988C292.856 143.909 292.612 147.843 295.021 148.352C294.456 157.174 290.067 165.33 283.967 169.271C286.29 177.462 287.238 186.2 286.748 194.902C287.755 184.726 296.164 182.156 302.025 178.045C302.398 177.729 302.834 177.56 303.279 177.559C303.724 177.558 304.16 177.725 304.534 178.04C304.907 178.354 305.202 178.802 305.382 179.33C305.562 179.857 305.619 180.441 305.547 181.01C304.737 181.448 303.963 181.989 303.236 182.625C302.895 182.927 302.635 183.359 302.491 183.86C302.347 184.362 302.327 184.909 302.433 185.426C302.538 185.943 302.765 186.405 303.082 186.749C303.398 187.093 303.789 187.301 304.201 187.346C301.302 196.894 293.672 203.376 285.787 203.438C285.061 207.709 283.994 211.87 282.602 215.856L270.9 216C270.857 215.832 270.818 215.659 270.779 215.491C271.863 215.566 272.95 215.469 274.015 215.201C271.117 210.845 268.884 208.632 270.507 202.48L270.507 202.48Z" fill="#F2F2F2"/>
<path d="M35.2124 159.661C34.9104 159.675 34.6124 159.569 34.3586 159.356C34.1048 159.144 33.9076 158.836 33.7937 158.473C33.6798 158.111 33.6547 157.712 33.7218 157.331C33.7888 156.949 33.9449 156.604 34.1687 156.341C34.2073 156.151 34.2349 156.014 34.2735 155.823C33.9916 154.87 33.4962 154.047 32.8507 153.46C32.2052 152.874 31.4391 152.55 30.6506 152.531C29.8621 152.511 29.087 152.797 28.4249 153.352C27.7627 153.906 27.2435 154.704 26.9339 155.643C25.1484 160.913 22.8477 166.363 23.929 172.205C16.6533 151.744 19.365 126.437 30.467 109.153C33.5162 107.027 36.003 103.215 36.6759 98.7615C35.1698 99.4014 33.3098 97.7978 34.4536 95.765C34.9486 94.9887 35.4483 94.2188 35.9432 93.4425C30.2985 85.5115 23.4131 97.782 29.6119 108.469C27.5341 111.776 25.729 115.355 24.2261 119.147C24.5965 115.105 24.2201 111.007 23.1279 107.189C22.0187 103.63 19.9128 100.619 18.0615 97.5312C15.8107 93.7692 11.1088 95.4341 10.7674 100.169C12.8634 101.089 13.1077 105.024 10.6985 105.532C11.2636 114.355 15.6533 122.51 21.7529 126.452C19.4295 134.642 18.4814 143.38 18.972 152.082C17.9651 141.907 9.55539 139.337 3.6944 135.225C3.32177 134.909 2.88618 134.741 2.44077 134.74C1.99536 134.739 1.55938 134.906 1.18601 135.22C0.812643 135.535 0.518032 135.983 0.338114 136.51C0.158196 137.037 0.100754 137.621 0.172786 138.19C0.982671 138.628 1.75694 139.169 2.4842 139.805C2.82495 140.108 3.08502 140.539 3.22879 141.041C3.37256 141.542 3.39298 142.089 3.28725 142.606C3.18152 143.123 2.95481 143.585 2.63821 143.929C2.32161 144.273 1.9306 144.482 1.5188 144.527C4.4181 154.075 12.0479 160.557 19.9327 160.618C20.659 164.889 21.7263 169.051 23.1174 173.036L34.8197 173.18C34.8629 173.013 34.9019 172.839 34.9409 172.672C33.8571 172.746 32.7702 172.649 31.7047 172.382C34.6028 168.026 36.8356 165.812 35.2128 159.661L35.2124 159.661Z" fill="#F2F2F2"/>
<path d="M33.0381 154.608C56.0574 149.656 70.2745 200.18 85.1214 197C112.331 191.173 101.053 9.89736 122.324 8.35577C140.456 7.04166 163.716 87.035 182.926 135.027C193.023 160.252 198.512 178.194 198.512 178.194C198.512 178.194 190.11 232.394 178.163 211.002C161.097 180.441 148.264 73.4181 138.799 78.3025C124.306 85.7816 140.653 177.8 105.848 206.185C75.448 230.978 16.0669 195.752 16.0313 173.684C16.0176 165.209 24.7535 156.39 33.0381 154.608Z" fill="#649C7B"/>
<path d="M138.019 149.135C133.538 150.462 127.655 154.564 127.974 158.345C128.316 162.397 135.791 166.151 141.786 163.762C146.704 161.802 151.179 155.486 150.157 151.844C149.102 148.084 142.376 147.845 138.019 149.135Z" fill="#649C7B"/>
<path d="M255.652 135.535C257.099 132.366 259.167 127.668 257.65 124.34C255.579 119.794 249.155 113.734 245.159 119.646C242.121 124.138 242.803 125.935 242.844 132.91C242.954 151.951 234.626 192.616 243.331 211.967C244.96 215.589 253.967 214.871 257.535 215.321C261.49 215.82 265.781 210.843 265.537 205.083C265.318 199.924 261.573 198.422 257.831 195.029C244.371 182.826 248.163 151.949 255.652 135.535Z" fill="#649C7B"/>
<path d="M85.5485 26.4716C85.4576 27.8846 85.3693 29.2977 85.2839 30.7107C85.2185 32.3657 85.04 34.01 84.7504 35.6242C84.6842 36.0722 84.5352 36.4927 84.3162 36.85C83.9275 37.4227 84.6471 40.7733 84.1136 41.0944C83.5719 41.4284 82.9901 41.6402 82.3933 41.7207C82.3685 41.4852 82.3354 41.2497 82.2982 41.0195C82.2941 40.9927 82.2899 40.9713 82.2858 40.9446C82.1168 39.8999 81.8045 38.9028 81.3636 38.0007C81.4675 39.0696 81.3754 40.1551 81.0948 41.1694C81.0493 41.3353 80.9956 41.5012 80.9377 41.6672C78.593 41.2176 76.5625 39.1675 74.9622 39.189C73.99 34.9694 73.3051 30.6477 72.9152 26.2735C72.8118 25.1067 72.754 23.8114 73.3081 22.8854C73.8002 22.0612 74.6396 21.7614 75.4253 21.542C77.9923 20.8241 80.6155 20.499 83.2411 20.5732L78.6963 19.203C79.9726 19.1098 81.2525 19.2667 82.4925 19.6686C83.7125 20.145 84.8662 21.1887 85.3376 22.7249C85.6974 23.897 85.623 25.2137 85.5485 26.4716Z" fill="#2F2E41"/>
<path d="M59.9521 204.394H55.5774L53.4961 182.553L59.953 182.554L59.9521 204.394Z" fill="#FFB6B6"/>
<path d="M46.7481 212.749C46.7503 213.383 46.9456 213.99 47.2918 214.439C47.638 214.888 48.107 215.142 48.5971 215.146H56.8324L57.0875 214.462L58.2524 211.351L58.7035 214.462L58.8034 215.146H61.9096L61.8653 214.457L61.0369 201.601L59.9534 201.515L55.2719 201.156L54.1218 201.065V204.904C53.2491 206.105 46.4005 210.647 46.7481 212.749Z" fill="#2F2E41"/>
<path d="M111.204 198.23L107.399 201.025L97.2617 183.358L102.877 179.235L111.204 198.23Z" fill="#FFB6B6"/>
<path d="M102.905 213.931C103.147 214.483 103.549 214.889 104.022 215.058C104.494 215.228 105 215.148 105.427 214.835L105.86 214.519H105.864L112.59 209.575L112.376 205.368L114.306 208.316L115.73 207.268L117.005 206.33L115.877 204.195L111.081 195.106L110.105 195.728L105.893 198.404L104.865 199.06L106.326 202.396C106.026 204.004 101.803 212.323 102.905 213.931Z" fill="#2F2E41"/>
<path d="M81.6624 97.1847C86.7866 97.423 85.9998 113.136 87.5994 126.803C89.0266 138.996 93.201 149.293 91.8049 149.731L105.622 183.061C100.219 189.556 93.8792 193.864 85.9552 194.471C77.3561 184.244 74.9981 160.709 73.0237 136.355L70.8685 157.742L73.7421 191.682L61.0296 195.661L52.2367 194.848C44.7841 155.94 58.8838 111.937 64.9539 95.2186L81.6624 97.1847Z" fill="#2F2E41"/>
<path d="M87.0986 89.055L89.4263 80.0165L91.0889 77.0037L91.754 68.3956C91.754 45.1537 87.7487 49.024 87.7487 49.024L82.5241 40.8497L76.5802 40.6093L71.8831 40.4193L67.978 48.8122C66.2574 49.5982 64.7257 50.9534 63.5352 52.7432C62.3447 54.5329 61.5369 56.6948 61.1921 59.014L60.1113 66.2824L64.1539 82.1685L63.9756 80.988C62.0726 85.5352 62.5567 86.2191 64.1325 89.6332L64.2108 90.866C64.2836 91.9751 64.6233 93.0266 65.1821 93.8726C65.7409 94.7186 66.4907 95.3163 67.3258 95.5817C84.1624 101.013 85.9121 110.513 88.0766 106.591C88.5796 105.679 86.4451 94.8017 87.1731 94.896C89.1675 95.1541 87.0986 89.055 87.0986 89.055Z" fill="#E6E6E6"/>
<path d="M98.6201 122.695C98.2773 122.286 98.0071 121.786 97.8282 121.229C97.6494 120.672 97.5661 120.072 97.5842 119.469C97.6023 118.867 97.7213 118.276 97.933 117.739C98.1447 117.202 98.444 116.731 98.8103 116.358L94.6387 96.319L98.6373 93.4628L103.458 117.31C103.896 118.155 104.081 119.178 103.976 120.187C103.87 121.196 103.483 122.12 102.887 122.783C102.29 123.447 101.527 123.805 100.74 123.788C99.9539 123.772 99.1995 123.383 98.6201 122.695Z" fill="#FFB6B6"/>
<path d="M87.1334 48.4393C87.1334 48.4393 94.5576 51.3655 95.2108 56.4745C95.864 61.5835 97.005 66.0907 96.7101 68.1806C96.4152 70.2706 100.098 84.258 99.3803 85.8668C98.6625 87.4757 100.593 87.8242 99.9266 90.4615C99.26 93.0988 98.8883 93.6461 99.3111 94.1272C99.734 94.6083 101.558 105.067 101.558 105.067L95.9959 107.158L85.7515 74.3026L87.1334 48.4393Z" fill="#E6E6E6"/>
<path d="M57.8858 122.694C58.2286 122.286 58.4988 121.786 58.6777 121.229C58.8565 120.672 58.9398 120.072 58.9217 119.469C58.9036 118.867 58.7846 118.276 58.5729 117.739C58.3612 117.202 58.0619 116.731 57.6956 116.358L61.8672 96.319L57.8686 93.4628L53.0484 117.31C52.6094 118.155 52.4251 119.178 52.5304 120.187C52.6356 121.196 53.0231 122.12 53.6194 122.783C54.2157 123.447 54.9793 123.805 55.7657 123.788C56.552 123.772 57.3064 123.383 57.8858 122.694Z" fill="#FFB6B6"/>
<path d="M69.3725 48.4393C69.3725 48.4393 61.9483 51.3655 61.2951 56.4745C60.6419 61.5835 59.5008 66.0907 59.7958 68.1806C60.0907 70.2706 56.4078 84.258 57.1256 85.8668C57.8434 87.4757 55.9127 87.8242 56.5793 90.4615C57.2459 93.0988 57.6176 93.6461 57.1948 94.1272C56.7719 94.6083 54.9478 105.067 54.9478 105.067L60.5099 107.158L70.7544 74.3026L69.3725 48.4393Z" fill="#E6E6E6"/>
<path d="M75.4515 39.2946C80.5628 39.2946 84.7063 33.9315 84.7063 27.3158C84.7063 20.7002 80.5628 15.3371 75.4515 15.3371C70.3403 15.3371 66.1968 20.7002 66.1968 27.3158C66.1968 33.9315 70.3403 39.2946 75.4515 39.2946Z" fill="#FFB6B6"/>
<path d="M84.8411 46.3146C81.351 42.2976 87.3016 30.8238 82.6536 23.1665L82.0953 22.6256C81.6746 23.662 80.9913 24.4795 80.16 24.941C79.9865 23.8969 79.6953 22.8915 79.2957 21.9571C79.396 23.1146 79.3159 24.2863 79.06 25.4029C78.7995 25.4454 78.6134 25.3968 78.5472 25.2449C78.6299 26.1747 76.4341 26.6366 76.8931 25.1902C76.8964 25.1756 76.9006 25.1614 76.9055 25.1477C76.339 26.6244 75.1728 27.3111 74.1597 28.1316C73.1465 28.9459 72.1168 30.3072 72.2161 31.9967C72.2988 33.3641 73.1052 34.385 73.9157 35.0657C74.7262 35.7524 75.636 36.2872 76.2232 37.3507C77.2115 39.1374 76.9799 41.7567 76.4796 43.9323C76.3795 44.2798 76.2159 44.5906 76.0027 44.8383C75.7895 45.086 75.5331 45.263 75.2555 45.3544C75.0905 44.1827 74.7791 43.0538 74.3333 42.0119C74.4375 43.2223 74.3459 44.4475 74.0646 45.6096C73.4618 45.6439 72.86 45.5193 72.2956 45.2435C71.7312 44.9677 71.216 44.5465 70.7811 44.0053L71.4055 47.5908C70.4007 47.3173 69.3875 47.6273 68.3661 47.8643C68.3396 47.4585 68.2968 47.0549 68.2379 46.6549C68.0772 45.4526 67.7613 44.2939 67.3033 43.2274C67.4312 44.7094 67.2647 46.2093 66.8195 47.5847C66.7699 47.7427 66.7161 47.9007 66.6582 48.0527C65.0868 47.9068 63.5195 46.7218 63.8173 43.6406C63.9482 42.6519 64.2665 41.7207 64.7436 40.9302C65.5541 39.4595 61.4229 37.8855 61.6752 36.111C62.0515 33.4795 65.8188 31.1519 65.521 28.4962C65.2564 26.0896 65.3082 20.6572 66.3315 18.7848C67.8099 16.0798 66.17 10.484 76.6781 13.6617C80.5872 14.8439 81.9423 9.88059 87.8351 25.0372C88.8454 27.6357 85.172 26.7424 87.3306 32.3127C89.4892 37.8831 83.3069 42.2976 84.8411 46.3146Z" fill="#2F2E41"/>
<path d="M157.536 101.128C157.911 100.96 158.253 100.687 158.538 100.329C158.822 99.9709 159.043 99.5364 159.184 99.056C159.325 98.5756 159.383 98.0611 159.354 97.5486C159.325 97.0361 159.209 96.5382 159.015 96.0899L170.31 79.3289L165.346 78.4026L155.135 94.835C154.575 95.3068 154.168 96.0283 153.991 96.8627C153.814 97.697 153.88 98.5863 154.176 99.362C154.472 100.138 154.977 100.746 155.597 101.072C156.216 101.397 156.906 101.417 157.536 101.128Z" fill="#FFB8B8"/>
<path d="M162.48 91.8023L164.084 89.5111L165.633 89.3387L165.738 89.168L166.143 88.4998L166.298 86.6386L167.487 86.2775L170.137 81.8954L170.542 81.0233L181.669 64.1967L183.939 59.3043L184.296 58.3101L185.407 55.2151L185.26 47.4101C185.504 46.7361 185.641 46.0062 185.664 45.2629C185.688 44.5195 185.596 43.7776 185.396 43.0803C185.332 42.8543 185.257 42.6339 185.171 42.4202L185.109 42.2684C184.946 41.8947 184.751 41.5461 184.528 41.2293L184.524 41.2219C184.13 40.6636 183.652 40.2165 183.118 39.9087C182.703 39.6631 182.259 39.5042 181.805 39.4378C180.757 39.2875 179.702 39.6307 178.834 40.4048L177.468 41.6268L176.229 42.7447L173.391 49.5047L173.205 49.9455L173.199 49.9563L164.462 70.7616L161.828 77.035L161.427 77.9877L161.39 80.7748L160.123 81.0851L158.628 82.5345L158.477 85.0024L157.774 88.982L157.667 89.2062L158.322 89.709L158.385 89.7558L158.505 89.8919L160.173 91.7453L161.184 92.8724L161.218 92.9075L161.481 93.228L162.48 91.8023Z" fill="#3F3D56"/>
<path d="M66.5568 20.2094C66.5776 20.2195 66.5958 20.2297 66.6166 20.2399C66.6562 20.2626 66.697 20.2818 66.7387 20.2975C67.0042 20.4237 67.281 20.506 67.5626 20.5425C67.6826 20.5593 67.8032 20.5676 67.924 20.5673C68.0788 20.568 68.2335 20.555 68.387 20.5284C68.5577 20.5013 68.7264 20.4568 68.8917 20.3954C68.9702 20.3682 69.0475 20.3359 69.1234 20.2986C69.6403 20.0609 70.1076 19.6712 70.4885 19.1603C70.8695 18.6493 71.1537 18.031 71.3188 17.3538V17.3505C71.3364 17.2843 71.3512 17.2169 71.3634 17.1487C71.4407 16.7698 71.4799 16.3796 71.48 15.9878V15.9811C71.482 15.0255 71.2518 14.0934 70.8221 13.3165C70.563 12.841 70.2637 12.7615 70.4316 12.2179C70.9672 10.4836 68.7758 9.06595 67.4821 9.82851C67.4354 9.82275 67.3885 9.82036 67.3416 9.82132C66.4705 9.81847 66.1474 11.4835 65.628 12.4209L65.6431 12.4273C65.7746 12.4869 65.8884 12.5982 65.9687 12.7456C66.0489 12.8931 66.0915 13.0693 66.0906 13.2496C66.0897 13.43 66.0452 13.6055 65.9634 13.7515C65.8817 13.8975 65.7667 14.0069 65.6346 14.0642C65.2888 14.21 64.9394 14.3388 64.5864 14.4506C63.4223 16.23 64.7568 21.4361 66.5568 20.2094Z" fill="#2F2E41"/>
<path d="M70.7206 12.8666C70.768 14.4659 70.4513 16.0479 69.8097 17.416C69.1682 18.7841 68.2302 19.8781 67.1122 20.5618C66.6583 20.8281 66.263 19.9567 66.7202 19.6886C67.7191 19.0922 68.5585 18.1251 69.1318 16.91C69.7052 15.6949 69.9866 14.2866 69.9404 12.8641C69.9144 12.2147 70.6946 12.2192 70.7206 12.8666Z" fill="#649C7B"/>
</g>
<defs>
<clipPath id="clip0_417_277">
<rect width="308" height="216" fill="white"/>
</clipPath>
</defs>
</svg>
