<svg width="257" height="216" viewBox="0 0 257 216" fill="none" xmlns="http://www.w3.org/2000/svg">
<g clip-path="url(#clip0_417_239)">
<path d="M199.421 45.9328L203.451 47.6398C201.798 45.5771 200.374 42.3556 199.612 39.7921C198.321 42.18 196.24 45.1018 194.18 46.847L198.439 45.8672C195.815 57.3693 185.945 65.6266 174.642 65.6266L174.482 66.0421C186.288 66.0421 196.742 57.8992 199.421 45.9328Z" fill="#3F3D56"/>
<path d="M187.241 28.4073H212.699C213.779 28.4073 214.658 29.1931 214.658 30.1588C214.658 31.1246 213.779 31.9103 212.699 31.9103H187.241C186.161 31.9103 185.282 31.1246 185.282 30.1588C185.282 29.1931 186.161 28.4073 187.241 28.4073Z" fill="#3F3D56"/>
<path d="M129.705 67.7484C132.74 65.5051 136.495 65.0876 138.091 66.8155C139.687 68.5435 138.519 71.7622 135.483 74.0059C134.283 74.917 132.857 75.558 131.324 75.8753L118.328 85.2348L113.547 79.6868L126.866 71.049C127.504 69.7619 128.477 68.6301 129.705 67.7484Z" fill="#FFB6B6"/>
<path d="M54.5904 88.8659C54.5838 88.452 54.5882 84.8414 57.5768 82.5594C61.01 79.938 65.8544 80.999 67.5536 81.3711C71.4786 82.2308 71.8005 83.7367 75.4865 85.284C82.3827 88.1788 73.7421 86.6971 77.8455 85.7688C79.2659 85.4475 99.7 84.1801 104.786 81.3802C114.679 75.9347 121.419 72.6326 121.419 72.6326L125.826 80.5144C125.826 80.5144 119.454 88.438 110.487 94.3079C101.288 100.329 96.6888 103.34 89.6991 104.503C89.0972 104.603 74.2937 106.864 62.3706 98.897C59.651 97.0798 54.668 93.7502 54.5904 88.8659Z" fill="#E6E6E6"/>
<path opacity="0.2" d="M139.142 80.3351C145.938 80.3351 151.447 75.408 151.447 69.3301C151.447 63.2522 145.938 58.3251 139.142 58.3251C132.346 58.3251 126.837 63.2522 126.837 69.3301C126.837 75.408 132.346 80.3351 139.142 80.3351Z" fill="#649C7B"/>
<path d="M150.964 85.2334C157.76 85.2334 163.269 80.3063 163.269 74.2284C163.269 68.1504 157.76 63.2233 150.964 63.2233C144.168 63.2233 138.659 68.1504 138.659 74.2284C138.659 80.3063 144.168 85.2334 150.964 85.2334Z" fill="white"/>
<path opacity="0.5" d="M150.964 85.2334C157.76 85.2334 163.269 80.3063 163.269 74.2284C163.269 68.1504 157.76 63.2233 150.964 63.2233C144.168 63.2233 138.659 68.1504 138.659 74.2284C138.659 80.3063 144.168 85.2334 150.964 85.2334Z" fill="#649C7B"/>
<path d="M163.443 90.4037C170.238 90.4037 175.747 85.4766 175.747 79.3987C175.747 73.3208 170.238 68.3937 163.443 68.3937C156.647 68.3937 151.138 73.3208 151.138 79.3987C151.138 85.4766 156.647 90.4037 163.443 90.4037Z" fill="white"/>
<path opacity="0.8" d="M163.443 90.4037C170.238 90.4037 175.747 85.4766 175.747 79.3987C175.747 73.3208 170.238 68.3937 163.443 68.3937C156.647 68.3937 151.138 73.3208 151.138 79.3987C151.138 85.4766 156.647 90.4037 163.443 90.4037Z" fill="#649C7B"/>
<path d="M174.607 95.0298C181.403 95.0298 186.912 90.1027 186.912 84.0248C186.912 77.9469 181.403 73.0198 174.607 73.0198C167.811 73.0198 162.302 77.9469 162.302 84.0248C162.302 90.1027 167.811 95.0298 174.607 95.0298Z" fill="#649C7B"/>
<path d="M0.125 154.519C0.125 154.808 0.384499 155.041 0.707645 155.041H256.417C256.74 155.041 257 154.808 257 154.519C257 154.231 256.74 153.998 256.417 153.998H0.707645C0.384499 153.998 0.125 154.231 0.125 154.519Z" fill="#CCCCCC"/>
<path d="M68.2591 68.8209C76.7366 68.8209 83.6089 62.6745 83.6089 55.0925C83.6089 47.5106 76.7366 41.3642 68.2591 41.3642C59.7816 41.3642 52.9092 47.5106 52.9092 55.0925C52.9092 62.6745 59.7816 68.8209 68.2591 68.8209Z" fill="#FFB6B6"/>
<path d="M188.474 147.325L172.665 132.853L164.505 140.466L176.283 154.342L187.965 155.537L188.474 147.325Z" fill="#FFB6B6"/>
<path d="M98.2075 120.186C99.1321 120.255 102.07 120.781 104.879 119.4C106.796 118.456 107.779 117.054 108.111 116.608C112.229 111.075 128.039 102.448 142.227 101.917C145.44 101.797 147.555 102.13 149.478 103.026C152.203 104.297 153.291 106.117 156.75 110.381C158.642 112.714 160.736 114.911 162.651 117.229C173.861 130.797 178.111 131.862 177.677 136.212C177.195 141.038 171.375 145.617 167.507 145.089C165.923 144.872 165.309 143.887 163.193 141.893C156.987 136.045 154.42 137.125 150.002 132.646C144.843 127.417 145.519 123.081 142.827 122.914C140.332 122.759 139.271 126.458 133.943 131.371C131.505 133.62 129.769 134.651 124.48 137.933C103.883 150.712 103.554 151.61 99.3974 152.63C97.5787 153.076 84.6708 156.241 80.0727 151.204C72.8771 143.322 89.8761 119.567 98.2075 120.186Z" fill="#2F2E41"/>
<path d="M183.64 150.595C184.803 150.128 186.162 149.583 186.6 148.327C186.896 147.478 186.725 146.43 186.114 145.706C185.408 144.871 184.363 144.761 184.405 144.613C184.47 144.388 186.94 144.476 189.652 145.334C190.164 145.495 192.482 146.253 195.431 148.312C197.794 149.962 197.476 150.293 198.958 151.244C203.506 154.164 207.772 151.863 210.233 154.601C211.182 155.658 211.588 157.158 211.188 158.372C210.385 160.808 206.482 161.647 204.348 162.08C199.21 163.122 195.321 162.271 191.26 161.659C177.45 159.578 169.691 161.473 168.652 158.612C168.456 158.07 168.775 158.116 169.84 154.142C170.891 150.22 170.856 149.142 171.751 148.828C173.099 148.356 174.003 150.506 177.398 151.242C180.405 151.895 182.887 150.898 183.64 150.595Z" fill="#2F2E41"/>
<path d="M160.369 194.669L156.375 174.755L144.843 176.956L145.876 194.353L154.792 201.209L160.369 194.669Z" fill="#FFB6B6"/>
<path d="M102.718 126.88C103.44 127.401 105.541 129.313 108.732 129.58C110.91 129.762 112.604 129.095 113.159 128.893C120.041 126.383 138.539 127.184 150.613 133.871C153.347 135.385 154.888 136.722 155.916 138.429C157.373 140.85 157.131 142.903 157.316 148.168C157.417 151.048 157.769 153.918 157.899 156.797C158.656 173.655 161.504 176.67 158.413 180.052C154.984 183.803 147.293 184.669 144.425 182.289C143.25 181.314 143.361 180.191 142.862 177.478C141.398 169.523 138.595 169.127 137.752 163.202C136.767 156.285 140.048 153.036 137.926 151.546C135.959 150.164 132.759 152.692 125.265 154.082C121.836 154.718 119.752 154.7 113.315 154.759C88.2478 154.989 87.4119 155.567 83.3325 154.323C81.5477 153.779 68.8798 149.915 68.2374 143.438C67.2322 133.302 96.2128 122.184 102.718 126.88Z" fill="#2F2E41"/>
<path d="M154.317 194.948C155.572 195.146 157.04 195.377 158.19 194.557C158.968 194.003 159.485 193.051 159.433 192.145C159.373 191.099 158.578 190.483 158.706 190.382C158.9 190.229 160.889 191.542 162.595 193.613C162.917 194.004 164.359 195.796 165.507 198.98C166.426 201.532 165.955 201.646 166.584 203.177C168.514 207.878 173.489 208.116 173.806 211.618C173.928 212.969 173.321 214.414 172.229 215.217C170.035 216.83 166.278 215.564 164.241 214.85C159.335 213.133 156.652 210.475 153.676 207.93C143.555 199.272 135.945 196.943 136.882 194.054C137.059 193.507 137.294 193.706 140.671 190.952C144.003 188.234 144.651 187.325 145.589 187.515C147.001 187.8 146.399 190.034 148.745 192.348C150.824 194.398 153.504 194.82 154.317 194.948Z" fill="#2F2E41"/>
<path d="M70.3518 57.717C70.9494 55.8052 70.1988 55.1085 70.9638 54.2503C70.9638 54.2503 71.2717 53.905 74.0239 52.9731C73.2119 48.7593 73.8199 48.0468 73.8199 48.0468C74.5206 47.2256 75.9244 47.0271 76.88 47.1345C78.9012 47.3617 79.2589 48.9957 80.5522 48.9591C82.3386 48.9084 84.4813 45.7101 83.8163 42.938C83.2737 40.6768 80.9345 38.9975 80.3481 39.2889C79.7667 39.5778 77.6738 38.3038 76.88 38.5591C76.338 38.7334 73.7864 38.5015 73.2079 38.7415C72.5761 39.0037 70.7667 40.6359 70.5937 40.4303C69.3916 39.0011 69.4172 38.5022 68.7197 38.1942C67.4839 37.6484 66.1403 38.6572 63.8236 39.6538C59.0568 41.7044 57.661 40.4812 55.4593 42.2082C54.347 43.0806 53.7506 44.7479 52.6032 48.0468C50.9985 52.6603 50.1961 54.9671 50.9711 57.1696C51.7615 59.4158 52.9253 58.9269 54.6432 62.0959C56.5555 65.6236 55.8964 67.674 57.7033 68.4819C59.0999 69.1063 61.3441 68.7089 62.1915 67.5696C63.6423 65.6191 59.8925 62.9805 61.1715 59.9065C61.9566 58.0195 64.3784 56.5887 65.8636 56.9872C67.5429 57.4376 67.6666 60.1306 68.7197 60.0889C69.6215 60.0532 70.2477 58.0501 70.3518 57.717Z" fill="#2F2E41"/>
<path d="M58.7232 70.8539C61.8644 67.7039 74.6589 70.9642 75.8598 75.9626C76.3538 78.0186 74.5303 78.8867 75.0438 81.2539C75.7949 84.7162 80.0475 84.4802 83.2041 88.0047C87.6855 93.0085 83.0688 97.8999 88.1003 106.25C89.1754 108.035 90.0816 109.539 91.9764 110.994C96.3244 114.334 100.371 113.189 102.585 116.285C104.24 118.601 103.56 121.455 103.401 122.124C102.747 124.866 100.977 125.534 99.7287 127.78C97.6526 131.518 100.003 134.262 100.137 138.728C100.304 144.315 96.9838 152.06 90.3443 154.601C82.8852 157.456 73.8889 152.728 69.5356 148.033C66.938 145.231 66.1839 142.647 65.0475 139.457C59.9685 125.202 57.0991 126.491 53.2151 115.191C48.7749 102.272 47.902 87.1377 53.2151 82.3486C53.9193 81.7138 55.8573 80.2466 57.0912 77.6047C58.7515 74.0497 57.3171 72.2639 58.7232 70.8539Z" fill="#E6E6E6"/>
<path d="M158.486 83.0365C159.258 87.5716 155.761 91.8232 150.69 92.5138C145.619 93.2044 140.865 90.0767 140.093 85.5415C139.321 81.0064 142.818 76.7549 147.889 76.0642C152.96 75.3736 157.713 78.5014 158.486 83.0365ZM141.061 85.4097C141.752 89.4675 146.005 92.266 150.542 91.648C155.08 91.0301 158.209 87.2262 157.518 83.1683C156.827 79.1105 152.574 76.312 148.036 76.93C143.499 77.548 140.37 81.3518 141.061 85.4097Z" fill="#3F3D56"/>
<path d="M144.526 84.9378C144.926 87.2871 147.388 88.9072 150.015 88.5495C152.641 88.1917 154.453 85.9895 154.053 83.6402C153.653 81.2909 151.191 79.6707 148.564 80.0285C145.937 80.3863 144.126 82.5885 144.526 84.9378Z" fill="#3F3D56"/>
<path d="M186.416 14.3561C187.574 21.1574 194.703 25.8479 202.308 24.8121C209.912 23.7764 215.157 17.4007 213.999 10.5993C212.841 3.79799 205.712 -0.892449 198.107 0.143307C190.502 1.17906 185.258 7.55473 186.416 14.3561Z" fill="#649C7B"/>
<path d="M134.38 82.1956C138.216 81.4026 141.784 82.5302 142.348 84.7139C142.912 86.8977 140.259 89.3102 136.421 90.1031C134.892 90.4386 133.296 90.442 131.766 90.1128L115.463 93.2895L114.075 87.5203L130.191 84.0135C131.405 83.1171 132.841 82.4937 134.38 82.1956Z" fill="#FFB6B6"/>
<path d="M56.5094 86.1892C56.6104 85.7852 57.5514 82.2741 61.0505 80.6745C65.0701 78.8371 69.507 80.8745 71.0633 81.5891C74.6581 83.2398 74.5806 84.7714 77.7646 87.0414C83.7215 91.2882 91.382 91.1952 95.6143 91.1439C97.0792 91.1261 101.604 90.9923 107.278 89.3244C118.313 86.0805 125.363 82.0097 125.363 82.0097L128.259 90.7873C128.259 90.7873 119.714 99.2334 109.468 103.082C98.9587 107.03 68.9835 107.291 61.8828 106.972C61.2713 106.944 71.0057 107.785 61.4749 97.561C59.3009 95.229 55.3178 90.9563 56.5094 86.1892Z" fill="#E6E6E6"/>
</g>
<defs>
<clipPath id="clip0_417_239">
<rect width="257" height="216" fill="white"/>
</clipPath>
</defs>
</svg>
