<svg width="307" height="216" viewBox="0 0 307 216" fill="none" xmlns="http://www.w3.org/2000/svg">
<g clip-path="url(#clip0_417_311)">
<path d="M126.535 216H23.4647C19.3486 216 16 212.498 16 208.193V7.80641C16 3.5019 19.3486 0 23.4647 0H126.535C130.651 0 134 3.5019 134 7.80641V208.193C134 212.498 130.651 216 126.535 216ZM23.4647 1.00935C19.8809 1.00935 16.9652 4.05857 16.9652 7.80641V208.193C16.9652 211.941 19.8809 214.991 23.4647 214.991H126.535C130.119 214.991 133.035 211.941 133.035 208.193V7.80641C133.035 4.05857 130.119 1.00935 126.535 1.00935H23.4647Z" fill="#3F3D56"/>
<path d="M298.432 101.772C298.054 101.055 296.419 101.823 296.118 101.172C295.818 100.523 297.338 99.534 298.206 97.2754C298.362 96.8681 299.349 94.3013 298.619 93.5093C297.234 92.008 290.9 98.2034 288.683 96.176C288.196 95.731 287.857 94.8428 286.384 93.4007C285.798 92.827 285.444 92.568 285.101 92.6644C284.615 92.8011 284.576 93.534 284.055 94.9749C283.273 97.136 282.81 97.0055 282.354 98.7296C282.016 100.01 282.093 100.754 281.695 100.899C281.132 101.104 280.613 99.7462 279.899 99.8678C279.171 99.9918 278.73 101.573 278.591 102.756C278.33 104.977 279.055 106.442 279.456 107.983C279.892 109.658 280.151 112.205 279.144 115.81L269.169 147.448C271.371 140.956 277.747 123.16 280.427 116.546C281.2 114.637 282.054 112.701 283.807 111.937C285.496 111.201 287.814 111.64 290.77 110.839C291.115 110.745 292.073 110.471 292.194 109.836C292.293 109.312 291.73 109.019 291.816 108.528C291.932 107.869 293.04 107.861 294.402 107.101C295.362 106.565 295.96 105.928 296.475 105.38C296.63 105.214 298.935 102.727 298.432 101.772Z" fill="#F2F2F2"/>
<path d="M259.19 118.428C258.768 118.429 258.631 119.555 258.261 119.533C257.891 119.511 257.899 118.386 257.164 117.255C257.032 117.051 256.198 115.765 255.642 115.94C254.588 116.272 255.461 121.56 253.938 122.2C253.603 122.34 253.118 122.271 252.064 122.669C251.645 122.827 251.43 122.948 251.373 123.165C251.292 123.474 251.601 123.706 252.079 124.41C252.795 125.466 252.605 125.684 253.225 126.433C253.685 126.989 254.032 127.161 253.98 127.423C253.907 127.794 253.166 127.689 253.013 128.118C252.857 128.556 253.419 129.256 253.894 129.674C254.787 130.459 255.635 130.482 256.423 130.705C257.279 130.947 258.464 131.538 259.745 133.135L270.66 147.775C268.465 144.685 262.546 136.028 260.436 132.639C259.827 131.661 259.229 130.63 259.402 129.441C259.568 128.296 260.429 127.142 260.932 125.277C260.991 125.059 261.148 124.451 260.906 124.201C260.706 123.995 260.416 124.222 260.227 124.032C259.973 123.778 260.289 123.163 260.351 122.192C260.394 121.507 260.289 120.992 260.198 120.55C260.171 120.416 259.752 118.425 259.19 118.428Z" fill="#F2F2F2"/>
<path d="M267.607 120.555L267.353 118L267.469 117.806C268.007 116.911 268.281 116.036 268.284 115.206C268.284 115.074 268.279 114.942 268.273 114.808C268.252 114.275 268.224 113.612 268.531 112.84C268.703 112.41 269.186 111.413 269.913 111.536C270.108 111.567 270.256 111.668 270.368 111.787C270.385 111.757 270.402 111.728 270.42 111.695C270.646 111.307 270.825 111.14 270.998 110.98C271.13 110.857 271.267 110.73 271.482 110.429C271.576 110.297 271.65 110.181 271.712 110.083C271.9 109.788 272.145 109.437 272.578 109.443C273.04 109.468 273.282 109.898 273.443 110.183C273.729 110.691 273.859 111.058 273.945 111.301C273.977 111.39 274.012 111.489 274.03 111.52C274.179 111.767 275.391 111.536 275.847 111.452C276.872 111.26 277.759 111.094 278.124 111.821C278.386 112.342 278.192 113.03 277.529 113.922C277.322 114.2 277.103 114.41 276.908 114.576C277.069 114.684 277.214 114.851 277.272 115.112C277.411 115.732 276.938 116.352 275.868 116.959C275.602 117.111 275.244 117.313 274.743 117.41C274.507 117.456 274.294 117.467 274.112 117.473C274.109 117.592 274.084 117.72 274.02 117.852C273.832 118.241 273.441 118.426 272.851 118.381C272.203 118.343 271.669 118.204 271.197 118.081C270.786 117.975 270.431 117.885 270.153 117.906C269.637 117.953 269.239 118.418 268.773 119.021L267.607 120.555Z" fill="#F2F2F2"/>
<path d="M268.787 105.344L266.656 106.269L266.46 106.192C265.555 105.834 264.734 105.757 264.019 105.964C263.906 105.997 263.794 106.037 263.68 106.077C263.227 106.236 262.665 106.434 261.924 106.295C261.51 106.217 260.531 105.944 260.453 105.121C260.43 104.901 260.48 104.714 260.553 104.562C260.523 104.551 260.493 104.54 260.461 104.529C260.07 104.381 259.881 104.228 259.7 104.081C259.56 103.968 259.416 103.851 259.103 103.693C258.966 103.624 258.848 103.573 258.748 103.531C258.447 103.401 258.083 103.223 257.979 102.75C257.882 102.24 258.191 101.867 258.395 101.62C258.759 101.179 259.041 100.945 259.228 100.79C259.296 100.733 259.373 100.669 259.395 100.641C259.569 100.417 259.064 99.156 258.876 98.6804C258.451 97.613 258.082 96.6893 258.615 96.1068C258.996 95.6896 259.637 95.7268 260.571 96.2224C260.862 96.377 261.099 96.5627 261.29 96.7332C261.343 96.5296 261.449 96.3299 261.659 96.1997C262.156 95.8923 262.809 96.2498 263.602 97.261C263.8 97.5119 264.064 97.8501 264.275 98.3713C264.374 98.6168 264.438 98.8455 264.489 99.042C264.592 99.0161 264.708 99.0105 264.838 99.0468C265.219 99.1529 265.478 99.5319 265.589 100.185C265.721 100.901 265.736 101.518 265.751 102.062C265.764 102.537 265.777 102.946 265.865 103.244C266.037 103.794 266.537 104.109 267.174 104.464L268.787 105.344Z" fill="#F2F2F2"/>
<path d="M267.607 97.8183L267.353 95.2637L267.469 95.07C268.007 94.1745 268.281 93.2999 268.284 92.4697C268.284 92.3377 268.279 92.2057 268.273 92.0713C268.252 91.5384 268.224 90.876 268.531 90.1038C268.703 89.6733 269.186 88.6766 269.913 88.8C270.108 88.8308 270.256 88.932 270.368 89.0504C270.385 89.0208 270.402 88.9912 270.42 88.9591C270.646 88.5705 270.825 88.404 270.998 88.2437C271.13 88.1203 271.267 87.9933 271.482 87.6923C271.576 87.5603 271.65 87.4443 271.712 87.3469C271.9 87.0521 272.145 86.7005 272.578 86.7067C273.04 86.7314 273.282 87.1619 273.443 87.4468C273.729 87.955 273.859 88.3214 273.945 88.5644C273.977 88.6532 274.012 88.7531 274.03 88.7839C274.179 89.0306 275.391 88.8 275.847 88.7161C276.872 88.5237 277.759 88.3571 278.124 89.0849C278.386 89.6055 278.192 90.2938 277.529 91.1856C277.322 91.4632 277.103 91.6741 276.908 91.8394C277.069 91.9479 277.214 92.1145 277.272 92.376C277.411 92.9952 276.938 93.6157 275.868 94.2226C275.602 94.3743 275.244 94.5766 274.743 94.6741C274.507 94.7197 274.294 94.7308 274.112 94.737C274.109 94.8554 274.084 94.9837 274.02 95.1157C273.832 95.5042 273.441 95.6892 272.851 95.6448C272.203 95.6066 271.669 95.4672 271.197 95.3451C270.786 95.239 270.431 95.149 270.153 95.1699C269.637 95.2168 269.239 95.6818 268.773 96.285L267.607 97.8183Z" fill="#F2F2F2"/>
<path d="M269.929 147.406L269.454 147.071L268.899 147.142C268.89 147.084 268.86 146.951 268.815 146.742C268.567 145.6 267.81 142.124 267.179 136.65C266.739 132.828 266.489 128.899 266.438 124.971C266.386 121.036 266.552 118.057 266.684 115.663C266.785 113.857 266.906 112.137 267.026 110.462C267.343 105.987 267.643 101.759 267.42 97.0794C267.371 96.0346 267.267 93.8599 266.139 91.5458C265.484 90.2037 264.582 89.0121 263.458 88.0056L264.157 87.0163C265.398 88.1289 266.396 89.4488 267.123 90.9389C268.374 93.5047 268.487 95.8743 268.541 97.0128C268.768 101.775 268.465 106.043 268.144 110.562C268.025 112.231 267.904 113.943 267.804 115.741C267.673 118.114 267.509 121.067 267.56 124.951C267.61 128.833 267.857 132.714 268.291 136.487C268.915 141.892 269.66 145.317 269.905 146.441C270.036 147.042 270.063 147.168 269.929 147.406Z" fill="#F2F2F2"/>
<path d="M261.4 90.0126C261.354 90.0126 261.307 90.0113 261.26 90.0076C260.305 89.9496 259.42 89.3057 258.63 88.0944C258.26 87.5245 258.07 86.8745 257.692 85.578C257.634 85.3782 257.349 84.3642 257.176 82.9691C257.062 82.0575 257.076 81.6764 257.237 81.3396C257.415 80.9646 257.703 80.7031 258.027 80.5267C258.013 80.4058 258.025 80.2812 258.071 80.1542C258.263 79.6275 258.771 79.6966 259.046 79.7299C259.185 79.7496 259.359 79.7755 259.546 79.7644C259.841 79.7484 259.999 79.6497 260.239 79.5016C260.469 79.3598 260.754 79.1834 261.178 79.0859C262.013 78.8898 262.712 79.1563 262.943 79.2438C264.156 79.699 264.755 80.7611 265.447 81.9909C265.585 82.2376 266.059 83.1356 266.372 84.3667C266.598 85.2548 266.566 85.6495 266.498 85.9431C266.36 86.5463 266.034 86.8917 265.206 87.654C264.342 88.4521 263.908 88.8518 263.535 89.0948C262.668 89.6585 262.123 90.0126 261.4 90.0126Z" fill="#F2F2F2"/>
<path d="M134 89H16V121H134V89Z" fill="#649C7B"/>
<path d="M89.5747 1H61V215.728H89.5747V1Z" fill="#649C7B"/>
<path opacity="0.2" d="M95.1763 118.716C95.3786 117.83 95.4992 116.909 95.5286 115.959L131.267 79.3179L100.549 62.4292L87.0111 103.072C86.0858 102.8 85.12 102.64 84.1189 102.64C83.5874 102.64 83.0685 102.695 82.5563 102.774L69.1172 62.4292L38.3994 79.3179L72.7334 114.519C72.7112 114.847 72.689 115.174 72.689 115.508C72.689 116.618 72.827 117.688 73.0616 118.716C52.0158 126.12 43.4 148.481 43.4 148.481L69.8316 172.608C68.2552 154.861 77.8822 136.691 83.0867 128.317C83.4272 128.351 83.7704 128.375 84.1189 128.375C84.4674 128.375 84.8106 128.351 85.1512 128.317C90.3557 136.691 99.9827 154.861 98.4063 172.608L124.838 148.481C124.838 148.481 116.222 126.12 95.1763 118.716Z" fill="black"/>
<path d="M90.853 162.349C90.5448 162.349 90.2341 162.273 89.9407 162.119C89.1987 161.729 88.73 160.916 88.7171 159.998C88.5004 144.439 80.62 129.169 75.9417 121.451C75.6293 120.936 75.0898 120.628 74.4982 120.628H74.4955C73.8823 120.628 73.3428 120.936 73.0303 121.451C68.3523 129.169 60.4718 144.439 60.255 159.998C60.2421 160.916 59.7733 161.729 59.0313 162.119C58.2819 162.514 57.4175 162.395 56.7758 161.809L34.8065 141.755C34.0223 141.039 33.7921 139.785 34.2593 138.772C36.4801 133.958 45.0297 117.73 61.8087 111.058C62.5575 110.76 63.0122 109.921 62.9143 109.016C62.8598 108.511 62.8323 108.004 62.8323 107.509C62.8334 106.918 62.6329 106.382 62.2822 106.023L30.698 73.6399C30.1741 73.1029 29.9214 72.3109 30.0216 71.5213C30.1219 70.7318 30.562 70.051 31.1986 69.701L57.4955 55.2434C58.0349 54.9466 58.6643 54.9202 59.2229 55.1698C59.781 55.4199 60.222 55.9266 60.4329 56.5597L72.6259 93.1642C72.8775 93.9198 73.5229 94.413 74.2555 94.3923C74.808 94.3781 75.3683 94.414 75.9269 94.4957C76.7152 94.6143 77.4592 94.1137 77.7351 93.2838L89.9681 56.5597C90.179 55.9266 90.62 55.4199 91.1781 55.1698C91.7363 54.9205 92.3663 54.9468 92.9055 55.2434L119.202 69.701C119.839 70.051 120.279 70.7318 120.379 71.5218C120.48 72.3109 120.227 73.1029 119.703 73.6399L86.6126 107.567C86.3042 107.883 86.1122 108.314 86.072 108.782C86.0633 108.882 86.0538 108.983 86.0431 109.084C85.9524 109.933 86.4214 110.763 87.1581 111.056C103.941 117.727 112.492 133.957 114.713 138.772C115.18 139.785 114.95 141.039 114.166 141.755L92.1962 161.809C91.8058 162.166 91.3325 162.349 90.853 162.349Z" fill="#649C7B"/>
<path d="M284.607 215.933H192.345C188.526 215.933 185.419 212.435 185.419 208.136V155.288C185.419 150.989 188.526 147.491 192.345 147.491H284.607C288.426 147.491 291.533 150.989 291.533 155.288V208.136C291.533 212.435 288.426 215.933 284.607 215.933ZM192.345 148.499C189.02 148.499 186.314 151.544 186.314 155.288V208.136C186.314 211.879 189.02 214.925 192.345 214.925H284.607C287.932 214.925 290.637 211.879 290.637 208.136V155.288C290.637 151.544 287.932 148.499 284.607 148.499H192.345Z" fill="#3F3D56"/>
<path d="M247.736 147.551H231.973V215.873H247.736V147.551Z" fill="#649C7B"/>
<path d="M291.085 173.283H185.867V191.028H291.085V173.283Z" fill="#649C7B"/>
<path opacity="0.2" d="M235.399 193.196C235.833 193.322 236.284 193.397 236.749 193.415L254.704 215.61L262.98 196.533L243.064 188.126C243.198 187.551 243.276 186.951 243.276 186.33C243.276 185.999 243.249 185.677 243.21 185.359L262.98 177.013L254.704 157.936L237.455 179.259C237.295 179.245 237.134 179.231 236.971 179.231C236.427 179.231 235.902 179.317 235.399 179.463C231.77 166.393 220.813 161.042 220.813 161.042L208.991 177.457C217.687 176.478 226.59 182.456 230.694 185.688C230.677 185.9 230.665 186.113 230.665 186.33C230.665 186.546 230.677 186.759 230.694 186.971C226.59 190.203 217.687 196.181 208.991 195.202L220.813 211.617C220.813 211.617 231.77 206.267 235.399 193.196Z" fill="black"/>
<path d="M255.352 212.558C254.995 212.558 254.651 212.39 254.407 212.088L237.782 191.537C237.645 191.367 237.445 191.26 237.22 191.234L237.148 191.226C236.742 191.175 236.371 191.422 236.244 191.828C232.963 202.302 224.974 207.633 222.603 209.017C222.069 209.33 221.406 209.173 221.026 208.643L211.198 194.998C210.887 194.566 210.824 193.983 211.034 193.477C211.241 192.978 211.671 192.664 212.157 192.655C219.755 192.523 227.22 187.641 230.994 184.743C231.221 184.568 231.356 184.267 231.356 183.937C231.356 183.593 231.221 183.291 230.994 183.117C227.221 180.219 219.756 175.337 212.157 175.205C211.671 175.197 211.24 174.882 211.034 174.383C210.824 173.877 210.887 173.294 211.198 172.862L221.026 159.216C221.407 158.689 222.07 158.531 222.603 158.842C224.973 160.227 232.961 165.557 236.243 176.027C236.37 176.433 236.733 176.686 237.099 176.636C237.497 176.58 237.894 176.567 238.277 176.599L254.407 156.659C254.693 156.306 255.114 156.136 255.533 156.204C255.953 156.272 256.315 156.568 256.5 156.997L263.586 173.33C263.744 173.693 263.758 174.118 263.625 174.494C263.492 174.869 263.222 175.166 262.886 175.308L244.949 182.88C244.619 183.02 244.403 183.383 244.412 183.784L244.414 183.93C244.414 184.244 244.394 184.563 244.356 184.879C244.307 185.286 244.532 185.691 244.891 185.843L262.886 193.44C263.223 193.582 263.492 193.879 263.625 194.255C263.758 194.631 263.743 195.055 263.586 195.418L256.5 211.751C256.315 212.18 255.953 212.476 255.533 212.543C255.473 212.553 255.412 212.558 255.352 212.558Z" fill="#649C7B"/>
<path d="M171.792 86.5404H157.363V81.1918C157.363 72.2265 163.829 64.9479 171.792 64.9479L171.792 86.5404Z" fill="#2F2E41"/>
<path d="M168.594 76.5557L171.075 89.1178L156.538 86.4003L162.462 74.5196L168.594 76.5557Z" fill="#FFB6B6"/>
<path opacity="0.1" d="M168.594 76.5557L171.075 89.1178L156.538 86.4003L162.462 74.5196L168.594 76.5557Z" fill="black"/>
<path d="M168.594 103.391H154.656V126.614H168.594V103.391Z" fill="#FFB6B6"/>
<path d="M177.654 145.6L174.587 164.115C174.587 164.115 176.539 176.982 170.685 190.162L166.782 203.656L160.928 202.715C160.928 202.715 164.552 192.673 164.552 188.279C164.552 183.886 165.388 166.94 165.388 166.94L164.97 147.603L177.654 145.6Z" fill="#FFB6B6"/>
<path d="M160.092 202.401C160.092 202.401 166.782 199.577 167.34 203.656L167.061 205.539C167.061 205.539 169.57 214.012 165.946 214.64C162.322 215.268 158.977 216.209 158.698 214.326C158.419 212.443 158.424 210.093 159.119 208.444C159.813 206.795 160.092 202.401 160.092 202.401Z" fill="#2F2E41"/>
<path d="M156.552 142.728L154.923 161.473C154.923 161.473 149.87 173.221 152.237 187.714L152.652 201.898L158.508 202.826C158.508 202.826 157.508 192.046 158.593 187.825C159.678 183.605 163.061 167.066 163.061 167.066L168.24 148.622L156.552 142.728Z" fill="#FFB6B6"/>
<path d="M159.389 202.787C159.389 202.787 153.66 197.979 152.117 201.723L151.92 203.619C151.92 203.619 147.496 212.99 150.822 214.727C154.148 216.465 157.049 216.399 157.782 214.678C158.515 212.956 159.091 210.697 158.831 208.896C158.571 207.094 159.389 202.787 159.389 202.787Z" fill="#2F2E41"/>
<path d="M174.03 115.787L186.017 144.344C186.017 144.344 161.904 157.996 147.688 157.996L154.746 115.787L174.03 115.787Z" fill="#2F2E41"/>
<path d="M163.298 82.3651L170.267 83.6204L169.709 103.391L177.515 120.965L167.479 126.614C167.479 126.614 159.674 109.981 158.28 99.6252C156.887 89.2691 157.723 81.7374 157.723 81.7374L163.298 82.3651Z" fill="#E6E6E6"/>
<path d="M158.001 82.9927L151.033 84.248L151.59 104.019L149.917 122.22L153.82 127.241C153.82 127.241 161.625 110.609 163.019 100.253C164.413 89.8967 163.577 82.3651 163.577 82.3651L158.001 82.9927Z" fill="#E6E6E6"/>
<path d="M168.734 84.0911L170.267 83.6204C170.267 83.6204 175.702 82.8358 176.539 85.3464C177.375 87.857 177.096 102.606 177.096 102.606C177.096 102.606 178.535 120.709 172.937 120.916C167.34 121.122 168.455 106.059 168.455 106.059L168.734 84.0911Z" fill="#E6E6E6"/>
<path d="M166.162 80.0032C170.146 80.0032 173.376 76.3669 173.376 71.8812C173.376 67.3956 170.146 63.7593 166.162 63.7593C162.177 63.7593 158.947 67.3956 158.947 71.8812C158.947 76.3669 162.177 80.0032 166.162 80.0032Z" fill="#FFB6B6"/>
<path d="M163.905 83.0592C165.453 82.6172 167.207 84.4781 167.825 87.2169C168.085 88.3071 168.109 89.4516 167.895 90.5545L168.56 93.6677L168.609 93.6648L173.855 107.582C175.075 110.818 174.946 114.533 173.39 117.581C172.465 119.394 171.25 120.613 169.823 119.369C167.457 117.304 165.911 105.483 165.205 98.692L163.573 91.7893C162.917 90.9342 162.454 89.915 162.22 88.8168C161.603 86.0791 162.357 83.5013 163.905 83.0592Z" fill="#FFB6B6"/>
<path d="M157.165 84.0911L155.632 83.6204C155.632 83.6204 150.196 82.8358 149.36 85.3464C148.524 87.857 148.802 102.606 148.802 102.606C148.802 102.606 147.364 120.709 152.962 120.916C158.559 121.122 157.444 106.059 157.444 106.059L157.165 84.0911Z" fill="#E6E6E6"/>
<path d="M161.994 83.0592C160.446 82.6172 158.692 84.4781 158.074 87.2169C157.814 88.3071 157.79 89.4516 158.004 90.5545L157.339 93.6677L157.29 93.6648L152.044 107.582C150.824 110.818 150.953 114.533 152.509 117.581C153.434 119.394 154.649 120.613 156.075 119.369C158.442 117.304 159.988 105.483 160.694 98.692L162.326 91.7893C162.981 90.9342 163.445 89.915 163.678 88.8168C164.296 86.0791 163.542 83.5013 161.994 83.0592Z" fill="#FFB6B6"/>
<path d="M152.35 78.452C152.716 77.1958 153.441 76.0961 153.765 74.8251C154.195 73.1375 155.112 76.8814 155.201 75.1285C155.371 71.7968 159.888 63.2265 162.466 61.5802C165.045 59.934 166.526 60.4303 169.153 61.9764C169.153 61.9764 170.428 62.0677 172.016 62.9501C173.603 63.8325 175.032 65.2456 175.65 67.1137C176.139 68.5944 176.085 70.2205 176.249 71.7896C176.704 76.1611 178.881 80.3186 178.414 84.6885C178.268 86.0519 177.808 87.4618 176.817 88.2637C175.827 89.0656 174.227 88.9784 173.576 87.8176C173.353 87.4215 173.259 86.9516 173.069 86.535C172.878 86.1184 172.534 85.73 172.117 85.743C171.492 85.7625 171.174 86.7072 171.42 87.3546C171.667 88.0019 172.247 88.3928 172.791 88.7404C171.495 89.3967 169.887 89.1924 168.754 88.2272C167.62 87.2619 167.008 85.5759 167.217 83.9934C167.511 81.7634 170.397 82.225 170.737 80.0032C170.984 78.3859 171.853 75.6797 171.616 74.0603C171.38 72.4409 170.243 74.4017 171.44 73.466C170.123 74.1811 167.304 69.2891 165.925 68.7412C164.546 68.1933 163.376 67.0068 162.749 65.5192C161.286 67.9068 159.999 67.2584 159.475 70.0984C158.951 72.9384 159.435 79.3905 161.593 80.9761C160.73 81.6393 160.041 82.5877 159.636 83.6725C159.407 84.287 159.258 84.9594 158.877 85.4698C158.149 86.4445 156.806 86.5038 155.735 86.094C154.407 85.5858 153.272 84.4696 152.646 83.0568C152.021 81.6441 151.911 79.9517 152.35 78.452Z" fill="#2F2E41"/>
</g>
<defs>
<clipPath id="clip0_417_311">
<rect width="307" height="216" fill="white"/>
</clipPath>
</defs>
</svg>
