<svg width="50" height="50" viewBox="0 0 50 50" fill="none" xmlns="http://www.w3.org/2000/svg">
<path d="M8.4882 6.2371C8.60951 4.09108 9.12213 3.15787 10.5922 2.40848C12.174 1.60189 14.6687 1.97725 17.6043 3.46379C18.8687 4.10437 18.9975 4.11742 21.2134 3.83331C24.1588 3.45554 27.9507 3.45687 30.6692 3.83677C32.7251 4.12406 32.8601 4.10971 34.1276 3.46779C38.2944 1.35768 41.5842 1.49575 42.7755 3.83064C43.3701 4.9961 43.4805 8.02025 43.0194 10.5145C42.7638 11.8973 42.7909 12.0699 43.4067 12.9774C47.7394 19.3622 44.6176 29.7117 37.1932 33.574C36.6251 33.8696 36.1463 34.0525 35.7561 34.2015C34.558 34.659 34.1942 34.7979 34.6347 36.9038C34.8467 37.9167 35.1022 40.435 35.2026 42.5004C35.384 46.2338 35.3813 46.2598 34.7265 47.0215C33.8353 48.0575 32.5507 48.075 31.6803 47.0629C31.1126 46.4029 31.0572 46.0913 31.0572 43.5448C31.0572 39.7817 30.6447 37.2804 29.6701 35.1371C28.5111 32.5865 29.3703 31.6354 32.0207 31.0654C35.7047 30.2729 38.5819 27.9994 40.1857 24.6138C41.7105 21.3954 41.9403 16.948 39.1836 14.2431C38.3997 13.3115 38.3451 12.4676 38.9049 9.92312C39.114 8.9721 39.2894 7.74519 39.2947 7.19637C39.3026 6.32967 39.2236 6.19879 38.6913 6.19879C38.3544 6.19879 37.0674 6.68881 35.8315 7.28762L33.859 8.24366C33.6797 8.33056 33.479 8.36398 33.2811 8.34127C28.2655 7.76556 23.4997 7.75666 18.4595 8.34352C18.2608 8.36664 18.0593 8.33323 17.8793 8.24589L15.9079 7.28923C14.6719 6.68933 13.3849 6.19879 13.0481 6.19879C12.2695 6.19879 12.2578 6.77366 12.9675 10.1891C13.4011 12.2751 13.6928 12.7399 12.4395 14.4078C10.5608 16.9079 10.0915 20.0124 11.099 23.2742C12.3687 27.3846 15.478 30.1615 19.8493 31.0879C22.4844 31.6465 23.1732 32.3752 22.1669 35.3969C21.3749 37.7748 20.874 38.3877 19.7229 38.3877C18.1741 38.3877 17.2039 37.0461 17.7379 35.6421C17.973 35.0234 17.9031 34.9573 16.4522 34.4281C12.0231 32.8134 8.63557 29.194 7.08678 24.4215C5.88968 20.733 6.4164 15.9321 8.33684 13.0303C8.99072 12.0423 9.00084 11.9585 8.6957 10.067C8.52305 8.99631 8.42968 7.273 8.4882 6.2371Z" fill="white"/>
<path d="M6.9415 33.2196C6.30327 32.2623 5.00979 32.0036 4.05243 32.6419C3.0951 33.2801 2.83639 34.5736 3.47462 35.5309C3.94581 36.2378 4.5095 36.8184 4.98818 37.2969C5.07643 37.3853 5.16218 37.4705 5.24591 37.5536C5.64689 37.9519 6.00093 38.3036 6.35652 38.7211C7.143 39.6442 7.9276 40.8875 8.37352 43.1171C8.57214 44.1103 9.286 44.6453 9.68154 44.879C10.1105 45.1323 10.5792 45.2817 10.9649 45.379C11.7539 45.578 12.7116 45.6813 13.6206 45.7415C14.6184 45.8078 15.6996 45.8292 16.6664 45.835C16.6671 46.9848 17.5996 47.9169 18.7497 47.9169C19.9003 47.9169 20.8331 46.9842 20.8331 45.8336V43.7503C20.8331 42.5996 19.9003 41.6669 18.7497 41.6669C18.5533 41.6669 18.3409 41.6675 18.1158 41.6684C16.8932 41.6721 15.2995 41.6769 13.896 41.584C13.2192 41.5392 12.6628 41.4757 12.2548 41.398C11.6265 38.9315 10.6115 37.2905 9.52837 36.019C9.04958 35.4571 8.55379 34.9655 8.15052 34.5655C8.07502 34.4907 8.00277 34.419 7.93445 34.3507C7.46914 33.8855 7.16477 33.5546 6.9415 33.2196Z" fill="white"/>
</svg>
