<svg width="971" height="929" viewBox="0 0 971 929" fill="none" xmlns="http://www.w3.org/2000/svg">
<g clip-path="url(#clip0_413_219)">
<mask id="mask0_413_219" style="mask-type:luminance" maskUnits="userSpaceOnUse" x="0" y="-386" width="1373" height="1315">
<path d="M0.71337 243.294L884.083 928.596L1372.06 299.577L488.694 -385.725L0.71337 243.294Z" fill="white"/>
</mask>
<g mask="url(#mask0_413_219)">
<path d="M1114.13 632.058C1035.46 642.274 816.061 742.68 720.753 683.136C625.445 623.592 728.716 399.273 637.591 334.337C546.465 269.402 352.94 427.661 265.126 358.457C177.311 289.253 211.841 62.3449 198.52 -11.6832L488.694 -385.725L1372.06 299.577L1114.13 632.058Z" fill="#649C7B" fill-opacity="0.85"/>
<path d="M1363.35 310.809C1280.58 295.899 1084.37 305.618 949.513 236.26C814.651 166.902 829.305 26.4134 689.04 -35.9803C548.776 -98.374 336.36 -67.7628 248.189 -75.7084L488.694 -385.725L1372.06 299.577L1363.35 310.809Z" fill="#3F3D56" fill-opacity="0.85"/>
<path d="M1315.49 512.334C1211.04 492.067 940.829 506.615 793.237 411C645.645 315.386 735.924 120.175 577.533 34.2617C419.143 -51.6511 116.533 -7.99859 1.28253 -18.5636L482.012 -450.448L1332.91 496.686L1315.49 512.334Z" fill="#3F3D56" fill-opacity="0.85"/>
</g>
</g>
<defs>
<clipPath id="clip0_413_219">
<rect width="1118.03" height="796.109" fill="white" transform="translate(884.083 928.596) rotate(-142.196)"/>
</clipPath>
</defs>
</svg>
