<svg width="546" height="562" viewBox="0 0 546 562" fill="none" xmlns="http://www.w3.org/2000/svg">
<g clip-path="url(#clip0_414_226)">
<path d="M344.265 76.7907C339.107 89.6862 329.616 99.2864 319.676 107.101C309.13 115.36 297.794 122.046 285.915 127.011C284.28 127.702 282.629 128.363 280.977 128.985L210.283 128.985C209.826 128.353 209.384 127.692 208.959 127.011C204.52 119.927 202.141 110.958 203.032 102.167C204.202 90.6433 211.452 80.0466 220.861 77.5899C230.27 75.143 240.995 81.9213 243.848 93.0112C245.426 71.6305 247.241 49.3519 256.658 31.1383C265.184 14.6513 279.964 2.85097 295.969 0.739532C305.384 -0.443887 314.882 1.65507 323.338 6.78765C324.115 7.26125 324.883 7.75457 325.635 8.26763C330.71 11.7406 335.188 16.352 338.829 21.8538C348.81 37.1075 351.254 59.2776 344.265 76.7907Z" fill="#F2F2F2"/>
<path d="M325.635 8.26727C325.655 8.52624 325.619 8.78697 325.53 9.02393C325.441 9.26089 325.303 9.46595 325.128 9.61904C293.111 41.0878 267.789 81.3364 251.271 127.011C251.025 127.662 250.789 128.323 250.56 128.984L247.306 128.984C247.535 128.323 247.764 127.662 248.001 127.011C251.099 118.289 254.524 109.745 258.276 101.378C266.397 83.3132 275.952 66.243 286.806 50.4072C297.658 34.5522 309.78 20.0275 322.995 7.04388C323.1 6.94088 323.215 6.85466 323.338 6.78735C323.568 6.66791 323.817 6.61242 324.067 6.62503C324.317 6.63764 324.561 6.71801 324.782 6.86017C325.002 7.00234 325.194 7.20265 325.341 7.44624C325.489 7.68983 325.589 7.97046 325.635 8.26727Z" fill="white"/>
<path d="M326.984 127.011L15.5317 127.011C12.8491 127.007 10.2119 127.847 7.88003 129.448C7.32149 129.831 6.78367 130.256 6.26985 130.721C4.32423 132.462 2.74364 134.729 1.65483 137.34C0.566012 139.951 -0.000744653 142.834 1.03635e-06 145.757L4.17897e-06 341.114C0.00366453 346.085 1.64121 350.851 4.55319 354.365C7.46516 357.88 11.4136 359.856 15.5317 359.861L326.984 359.861C331.102 359.856 335.05 357.88 337.962 354.365C340.874 350.85 342.512 346.085 342.516 341.114L342.516 145.757C342.512 140.787 340.874 136.021 337.962 132.507C335.05 128.992 331.102 127.015 326.984 127.011ZM340.881 341.114C340.875 345.561 339.41 349.824 336.805 352.968C334.2 356.112 330.668 357.881 326.984 357.887L15.5317 357.887C11.8477 357.881 8.316 356.112 5.71097 352.968C3.10594 349.824 1.64014 345.561 1.63492 341.114L1.63492 145.757C1.64653 142.213 2.58314 138.762 4.31175 135.897C6.04035 133.031 8.47307 130.895 11.2644 129.793C11.379 129.754 11.4851 129.704 11.5997 129.665C12.8766 129.212 14.2008 128.983 15.5317 128.984L326.984 128.984C330.668 128.991 334.2 130.76 336.805 133.904C339.41 137.048 340.875 141.311 340.881 145.757L340.881 341.114Z" fill="#3F3D56"/>
<path d="M439.155 381.836C440.23 380.99 441.139 379.869 441.817 378.553C442.495 377.237 442.925 375.758 443.079 374.22C443.232 372.681 443.103 371.121 442.703 369.649C442.302 368.177 441.639 366.828 440.76 365.699L445.642 295.439L431.659 297.295L427.828 365.678C426.354 367.586 425.511 370.081 425.459 372.689C425.407 375.297 426.149 377.837 427.545 379.829C428.942 381.82 430.894 383.125 433.034 383.495C435.174 383.865 437.351 383.274 439.155 381.836Z" fill="#FFB8B8"/>
<path d="M389.386 549.419L379.364 549.418L374.597 502.762L389.388 502.763L389.386 549.419Z" fill="#FFB8B8"/>
<path d="M372.206 545.962L391.534 545.962L391.534 560.65L360.037 560.65C360.037 558.721 360.351 556.811 360.963 555.029C361.575 553.247 362.471 551.628 363.601 550.264C364.731 548.9 366.073 547.818 367.549 547.08C369.025 546.342 370.608 545.962 372.206 545.962Z" fill="#2F2E41"/>
<path d="M460.505 549.419L450.483 549.418L445.716 502.762L460.507 502.763L460.505 549.419Z" fill="#FFB8B8"/>
<path d="M443.325 545.962L462.653 545.962L462.653 560.65L431.156 560.65C431.156 556.755 432.438 553.019 434.72 550.264C437.002 547.51 440.098 545.962 443.325 545.962Z" fill="#2F2E41"/>
<path d="M389.555 520.522C389.447 520.522 389.338 520.516 389.228 520.506L375.043 519.136C374.481 519.081 373.933 518.887 373.436 518.565C372.939 518.243 372.502 517.8 372.154 517.264C371.805 516.728 371.552 516.11 371.411 515.451C371.27 514.791 371.244 514.103 371.334 513.431L392.84 352.883L394.28 330.238C394.344 329.179 394.691 328.174 395.268 327.374C395.845 326.573 396.622 326.02 397.482 325.797L419.113 320.086C419.908 319.872 420.739 319.951 421.496 320.314C422.253 320.676 422.903 321.305 423.36 322.119L428.634 331.424C430.706 335.041 432.956 338.504 435.374 341.793C439.116 346.937 445.479 358.359 446.05 377.051C446.203 383.192 446.732 389.31 447.631 395.357L465.046 508.586C465.134 509.25 465.109 509.928 464.972 510.58C464.834 511.232 464.588 511.843 464.249 512.375C463.909 512.908 463.482 513.351 462.995 513.678C462.508 514.004 461.971 514.207 461.417 514.274L447.971 515.503C447.009 515.618 446.045 515.315 445.25 514.65C444.456 513.985 443.884 513 443.637 511.873L419.786 404.82C419.739 404.61 419.636 404.425 419.493 404.293C419.35 404.161 419.175 404.089 418.995 404.089C418.815 404.09 418.64 404.162 418.498 404.294C418.355 404.427 418.253 404.613 418.207 404.823L393.504 516.858C393.271 517.908 392.758 518.836 392.045 519.499C391.331 520.161 390.456 520.521 389.555 520.522Z" fill="#2F2E41"/>
<path d="M427.275 247.327C438.364 247.327 447.353 236.478 447.353 223.094C447.353 209.71 438.364 198.861 427.275 198.861C416.187 198.861 407.198 209.71 407.198 223.094C407.198 236.478 416.187 247.327 427.275 247.327Z" fill="#FFB8B8"/>
<path d="M393.245 333.881L392.83 299.275C391.3 277.142 399.422 265.521 406.504 259.675C408.33 258.187 410.388 257.162 412.552 256.662C414.717 256.162 416.943 256.197 419.095 256.766L434.897 260.889C437.097 261.468 439.177 262.579 441.011 264.156C442.846 265.732 444.396 267.742 445.568 270.062C446.69 272.251 447.426 274.695 447.732 277.243C448.037 279.79 447.905 282.386 447.344 284.869C446.246 289.517 443.812 293.541 440.478 296.218C426.901 307.786 425.944 327.217 425.936 327.413L425.919 327.815L393.245 333.881Z" fill="#649C7B"/>
<path d="M442.695 308.148L428.798 308.148C427.822 308.147 426.887 307.679 426.198 306.846C425.508 306.014 425.12 304.885 425.119 303.708L425.119 274.602C425.119 271.2 426.239 267.938 428.232 265.532C430.225 263.127 432.928 261.776 435.746 261.776C438.565 261.776 441.268 263.127 443.261 265.532C445.253 267.938 446.373 271.2 446.373 274.602L446.373 303.708C446.372 304.885 445.984 306.014 445.294 306.846C444.605 307.679 443.67 308.147 442.695 308.148Z" fill="#649C7B"/>
<path d="M349.391 313.647C348.573 314.826 347.556 315.783 346.409 316.454C345.262 317.125 344.01 317.495 342.736 317.539C341.462 317.584 340.194 317.302 339.017 316.712C337.84 316.122 336.779 315.238 335.906 314.118C327.988 304.094 340.932 289.044 348.88 299.089C349.16 299.435 349.42 299.804 349.658 300.194L389.737 298.992L394.521 288.431L409.222 295.321C406.4 300.605 403.159 321.339 395.777 320.33C394.809 320.361 350.381 313.732 349.391 313.647Z" fill="#FFB8B8"/>
<path d="M403.006 305.657L391.803 295.733C391.017 295.035 390.493 293.99 390.345 292.827C390.197 291.663 390.437 290.476 391.014 289.526L405.281 266.061C406.107 264.703 407.146 263.555 408.339 262.682C409.533 261.808 410.857 261.227 412.236 260.972C413.616 260.716 415.023 260.791 416.379 261.192C417.734 261.593 419.011 262.313 420.136 263.309C421.261 264.306 422.213 265.56 422.936 267.001C423.66 268.441 424.141 270.039 424.353 271.704C424.564 273.369 424.502 275.068 424.17 276.704C423.838 278.34 423.242 279.881 422.416 281.239L408.148 304.704C407.57 305.652 406.705 306.285 405.741 306.464C404.777 306.642 403.793 306.352 403.006 305.657Z" fill="#649C7B"/>
<path d="M431.297 235.69C431.945 234.058 432.17 232.229 431.942 230.441C431.715 228.652 431.045 226.988 430.022 225.667C426.245 221.07 420.344 224.136 415.239 223.686C406.736 222.936 400.945 210.698 403.484 200.875C406.022 191.052 415.044 184.956 423.553 185.602C432.061 186.249 439.764 192.601 444.893 200.822C448.403 194.003 457.026 193.208 462.592 197.603C468.157 201.998 471.037 210.031 472.227 217.929C473.417 225.827 473.223 233.944 474.225 241.88C476.654 261.117 486.941 279.231 501.825 286.709C516.709 294.187 535.756 289.381 545.494 273.872C547.387 292.666 544.065 311.688 536.048 327.961C528.031 344.234 515.771 356.841 501.186 363.809C493.12 367.662 484.213 369.708 475.722 367.566C462.013 364.109 451.35 349.958 446.704 334.013C442.057 318.067 442.613 300.57 444.87 283.888C446.26 273.613 447.799 261.444 441.59 254.217C439.847 252.466 437.797 251.218 435.594 250.568C434.426 250.144 433.354 249.404 432.458 248.405C431.563 247.405 430.869 246.172 430.428 244.8C429.988 243.427 429.812 241.952 429.916 240.485C430.019 239.018 430.399 237.6 431.026 236.337C431.126 236.122 431.217 235.906 431.297 235.69Z" fill="#2F2E41"/>
<path d="M503.375 561.069L316.994 561.069C316.777 561.069 316.569 560.965 316.416 560.78C316.262 560.595 316.176 560.344 316.176 560.082C316.176 559.82 316.262 559.569 316.416 559.384C316.569 559.199 316.777 559.095 316.994 559.095L503.375 559.095C503.591 559.095 503.799 559.199 503.953 559.384C504.106 559.569 504.192 559.82 504.192 560.082C504.192 560.344 504.106 560.595 503.953 560.78C503.799 560.965 503.591 561.069 503.375 561.069Z" fill="#3F3D56"/>
<path d="M170.917 243.353C169.677 243.352 168.456 242.973 167.37 242.249L4.66053 134.159C4.47062 134.032 4.33001 133.82 4.26964 133.569C4.20927 133.318 4.23408 133.048 4.33862 132.819C4.44316 132.589 4.61887 132.42 4.82708 132.347C5.03529 132.274 5.25894 132.304 5.44886 132.43L168.159 240.521C168.988 241.074 169.919 241.368 170.867 241.378C171.815 241.389 172.75 241.114 173.588 240.578L338.976 135.273C339.071 135.213 339.175 135.175 339.282 135.163C339.389 135.151 339.497 135.164 339.599 135.202C339.702 135.24 339.798 135.303 339.88 135.385C339.963 135.468 340.031 135.57 340.082 135.685C340.132 135.799 340.163 135.925 340.173 136.054C340.182 136.183 340.171 136.313 340.139 136.437C340.107 136.561 340.056 136.676 339.987 136.776C339.918 136.876 339.834 136.958 339.739 137.018L174.351 242.323C173.293 242.999 172.114 243.352 170.917 243.353Z" fill="#3F3D56"/>
<path d="M51.9632 310.528L29.0743 310.528C27.3399 310.528 25.6765 309.696 24.4501 308.216C23.2237 306.736 22.5347 304.728 22.5347 302.635C22.5347 300.541 23.2237 298.534 24.4501 297.053C25.6765 295.573 27.3399 294.742 29.0743 294.742L51.9632 294.742C53.6977 294.742 55.361 295.573 56.5875 297.053C57.8139 298.534 58.5029 300.541 58.5029 302.635C58.5029 304.728 57.8139 306.736 56.5875 308.216C55.361 309.696 53.6977 310.528 51.9632 310.528Z" fill="#3F3D56"/>
<path d="M78.9394 337.168L29.0743 337.168C27.3399 337.168 25.6765 336.336 24.4501 334.856C23.2237 333.376 22.5347 331.368 22.5347 329.274C22.5347 327.181 23.2237 325.173 24.4501 323.693C25.6765 322.213 27.3399 321.381 29.0743 321.381L78.9394 321.381C80.6738 321.381 82.3372 322.213 83.5637 323.693C84.7901 325.173 85.4791 327.181 85.4791 329.274C85.4791 331.368 84.7901 333.376 83.5637 334.856C82.3372 336.336 80.6738 337.168 78.9394 337.168Z" fill="#3F3D56"/>
</g>
<defs>
<clipPath id="clip0_414_226">
<rect width="546" height="560.665" fill="white" transform="translate(0 0.403625)"/>
</clipPath>
</defs>
</svg>
