<svg width="54" height="56" viewBox="0 0 54 56" fill="none" xmlns="http://www.w3.org/2000/svg">
<g filter="url(#filter0_d_417_383)">
<path fill-rule="evenodd" clip-rule="evenodd" d="M27 37.5C33.9035 37.5 39.5 31.9035 39.5 25C39.5 18.0964 33.9035 12.5 27 12.5C20.0964 12.5 14.5 18.0964 14.5 25C14.5 31.9035 20.0964 37.5 27 37.5ZM27 33.3333C31.6023 33.3333 35.3333 29.6023 35.3333 25C35.3333 20.3976 31.6023 16.6667 27 16.6667C22.3976 16.6667 18.6667 20.3976 18.6667 25C18.6667 29.6023 22.3976 33.3333 27 33.3333Z" fill="white"/>
<path d="M39.5003 10.4167C38.3497 10.4167 37.417 11.3495 37.417 12.5001C37.417 13.6507 38.3497 14.5834 39.5003 14.5834C40.651 14.5834 41.5837 13.6507 41.5837 12.5001C41.5837 11.3495 40.651 10.4167 39.5003 10.4167Z" fill="white"/>
<path fill-rule="evenodd" clip-rule="evenodd" d="M5.44591 8.9085C4.0835 11.5824 4.0835 15.0827 4.0835 22.0834V27.9167C4.0835 34.9173 4.0835 38.4177 5.44591 41.0915C6.64433 43.4436 8.55658 45.3559 10.9086 46.5542C13.5825 47.9167 17.0829 47.9167 24.0835 47.9167H29.9168C36.9175 47.9167 40.4179 47.9167 43.0916 46.5542C45.4437 45.3559 47.356 43.4436 48.5543 41.0915C49.9168 38.4177 49.9168 34.9173 49.9168 27.9167V22.0834C49.9168 15.0827 49.9168 11.5824 48.5543 8.9085C47.356 6.55646 45.4437 4.64421 43.0916 3.44579C40.4179 2.08337 36.9175 2.08337 29.9168 2.08337H24.0835C17.0829 2.08337 13.5825 2.08337 10.9086 3.44579C8.55658 4.64421 6.64433 6.55646 5.44591 8.9085ZM29.9168 6.25004H24.0835C20.5144 6.25004 18.0882 6.25329 16.2128 6.4065C14.3861 6.55575 13.4519 6.82627 12.8002 7.15831C11.2322 7.95727 9.95739 9.2321 9.15843 10.8001C8.82639 11.4518 8.55587 12.386 8.40662 14.2127C8.25341 16.0881 8.25016 18.5143 8.25016 22.0834V27.9167C8.25016 31.4859 8.25341 33.9119 8.40662 35.7873C8.55587 37.6142 8.82639 38.5484 9.15843 39.2C9.95739 40.768 11.2322 42.0427 12.8002 42.8417C13.4519 43.1738 14.3861 43.4444 16.2128 43.5936C18.0882 43.7467 20.5144 43.75 24.0835 43.75H29.9168C33.486 43.75 35.912 43.7467 37.7875 43.5936C39.6143 43.4444 40.5485 43.1738 41.2002 42.8417C42.7681 42.0427 44.0429 40.768 44.8418 39.2C45.1739 38.5484 45.4445 37.6142 45.5937 35.7873C45.7468 33.9119 45.7502 31.4859 45.7502 27.9167V22.0834C45.7502 18.5143 45.7468 16.0881 45.5937 14.2127C45.4445 12.386 45.1739 11.4518 44.8418 10.8001C44.0429 9.2321 42.7681 7.95727 41.2002 7.15831C40.5485 6.82627 39.6143 6.55575 37.7875 6.4065C35.912 6.25329 33.486 6.25004 29.9168 6.25004Z" fill="white"/>
</g>
<defs>
<filter id="filter0_d_417_383" x="-2" y="0" width="58" height="58" filterUnits="userSpaceOnUse" color-interpolation-filters="sRGB">
<feFlood flood-opacity="0" result="BackgroundImageFix"/>
<feColorMatrix in="SourceAlpha" type="matrix" values="0 0 0 0 0 0 0 0 0 0 0 0 0 0 0 0 0 0 127 0" result="hardAlpha"/>
<feOffset dy="4"/>
<feGaussianBlur stdDeviation="2"/>
<feComposite in2="hardAlpha" operator="out"/>
<feColorMatrix type="matrix" values="0 0 0 0 0 0 0 0 0 0 0 0 0 0 0 0 0 0 0.25 0"/>
<feBlend mode="normal" in2="BackgroundImageFix" result="effect1_dropShadow_417_383"/>
<feBlend mode="normal" in="SourceGraphic" in2="effect1_dropShadow_417_383" result="shape"/>
</filter>
</defs>
</svg>
