<svg width="308" height="220" viewBox="0 0 308 220" fill="none" xmlns="http://www.w3.org/2000/svg">
<g clip-path="url(#clip0_416_207)">
<path d="M226.33 15.7539H61.8146C61.2359 15.7539 60.6629 15.9074 60.1283 16.2056C59.5937 16.5039 59.108 16.941 58.6988 17.4921C58.2896 18.0431 57.9651 18.6973 57.7436 19.4174C57.5222 20.1374 57.4082 20.9091 57.4082 21.6884V180.964C57.4082 181.743 57.5222 182.515 57.7436 183.235C57.9651 183.955 58.2896 184.609 58.6988 185.16C59.108 185.711 59.5937 186.148 60.1283 186.447C60.6629 186.745 61.2359 186.898 61.8146 186.898H226.33C226.909 186.898 227.482 186.745 228.016 186.447C228.551 186.148 229.037 185.711 229.446 185.16C229.855 184.609 230.179 183.955 230.401 183.235C230.622 182.515 230.736 181.743 230.736 180.964V21.6884C230.736 20.9091 230.622 20.1374 230.401 19.4173C230.179 18.6973 229.855 18.0431 229.446 17.492C229.037 16.941 228.551 16.5038 228.016 16.2056C227.482 15.9074 226.909 15.7539 226.33 15.7539ZM66.4468 25.063C66.0261 25.063 65.615 24.895 65.2652 24.5803C64.9155 24.2655 64.6429 23.8182 64.4819 23.2948C64.321 22.7714 64.2789 22.1955 64.3609 21.6399C64.443 21.0842 64.6455 20.5739 64.943 20.1733C65.2404 19.7727 65.6193 19.4999 66.0319 19.3894C66.4444 19.2788 66.872 19.3356 67.2606 19.5524C67.6492 19.7692 67.9814 20.1363 68.2151 20.6073C68.4488 21.0784 68.5735 21.6322 68.5735 22.1987C68.5735 22.9583 68.3494 23.6869 67.9506 24.224C67.5518 24.7612 67.0108 25.063 66.4468 25.063ZM79.2071 25.063C78.7865 25.063 78.3753 24.895 78.0256 24.5803C77.6758 24.2655 77.4033 23.8182 77.2423 23.2948C77.0813 22.7714 77.0392 22.1955 77.1213 21.6399C77.2033 21.0842 77.4059 20.5739 77.7033 20.1733C78.0007 19.7727 78.3797 19.4999 78.7922 19.3894C79.2048 19.2788 79.6324 19.3356 80.021 19.5524C80.4096 19.7692 80.7417 20.1363 80.9754 20.6073C81.2091 21.0784 81.3338 21.6322 81.3338 22.1987C81.3338 22.9583 81.1098 23.6869 80.7109 24.224C80.3121 24.7612 79.7712 25.063 79.2071 25.063ZM91.9675 25.063C91.5468 25.063 91.1357 24.895 90.7859 24.5803C90.4362 24.2655 90.1636 23.8182 90.0026 23.2948C89.8417 22.7714 89.7996 22.1955 89.8816 21.6399C89.9637 21.0842 90.1662 20.5739 90.4637 20.1733C90.7611 19.7727 91.14 19.4999 91.5526 19.3894C91.9651 19.2788 92.3927 19.3356 92.7813 19.5524C93.1699 19.7692 93.5021 20.1363 93.7358 20.6073C93.9695 21.0784 94.0942 21.6322 94.0942 22.1987C94.0942 22.9583 93.8701 23.6869 93.4713 24.224C93.0724 24.7612 92.5315 25.063 91.9675 25.063ZM104.728 25.063C104.307 25.063 103.896 24.895 103.546 24.5803C103.197 24.2655 102.924 23.8182 102.763 23.2948C102.602 22.7714 102.56 22.1955 102.642 21.6399C102.724 21.0842 102.927 20.5739 103.224 20.1733C103.521 19.7727 103.9 19.4999 104.313 19.3894C104.725 19.2788 105.153 19.3356 105.542 19.5524C105.93 19.7692 106.262 20.1363 106.496 20.6073C106.73 21.0784 106.855 21.6322 106.855 22.1987C106.855 22.9583 106.63 23.6869 106.232 24.224C105.833 24.7612 105.292 25.063 104.728 25.063ZM117.488 25.063C117.068 25.063 116.656 24.895 116.307 24.5803C115.957 24.2655 115.684 23.8182 115.523 23.2948C115.362 22.7714 115.32 22.1955 115.402 21.6399C115.484 21.0842 115.687 20.5739 115.984 20.1733C116.282 19.7727 116.661 19.4999 117.073 19.3894C117.486 19.2788 117.913 19.3356 118.302 19.5524C118.691 19.7692 119.023 20.1363 119.256 20.6073C119.49 21.0784 119.615 21.6322 119.615 22.1987C119.615 22.9583 119.391 23.6869 118.992 24.224C118.593 24.7612 118.052 25.063 117.488 25.063ZM130.249 25.063C129.828 25.063 129.417 24.895 129.067 24.5803C128.717 24.2655 128.445 23.8182 128.284 23.2948C128.123 22.7714 128.081 22.1955 128.163 21.6399C128.245 21.0842 128.447 20.5739 128.745 20.1733C129.042 19.7727 129.421 19.4999 129.834 19.3894C130.246 19.2788 130.674 19.3356 131.062 19.5524C131.451 19.7692 131.783 20.1363 132.017 20.6073C132.251 21.0784 132.375 21.6322 132.375 22.1987C132.375 22.9583 132.151 23.6869 131.752 24.224C131.354 24.7612 130.813 25.063 130.249 25.063ZM143.009 25.063C142.588 25.063 142.177 24.895 141.827 24.5803C141.478 24.2655 141.205 23.8182 141.044 23.2948C140.883 22.7714 140.841 22.1955 140.923 21.6399C141.005 21.0842 141.208 20.5739 141.505 20.1733C141.802 19.7727 142.181 19.4999 142.594 19.3894C143.007 19.2788 143.434 19.3356 143.823 19.5524C144.211 19.7692 144.543 20.1363 144.777 20.6073C145.011 21.0784 145.136 21.6322 145.136 22.1987C145.136 22.9583 144.912 23.6869 144.513 24.224C144.114 24.7612 143.573 25.063 143.009 25.063ZM155.769 25.063C155.349 25.063 154.937 24.895 154.588 24.5803C154.238 24.2655 153.965 23.8182 153.804 23.2948C153.643 22.7714 153.601 22.1955 153.683 21.6399C153.765 21.0842 153.968 20.5739 154.265 20.1733C154.563 19.7727 154.942 19.4999 155.354 19.3894C155.767 19.2788 156.194 19.3356 156.583 19.5524C156.972 19.7692 157.304 20.1363 157.538 20.6073C157.771 21.0784 157.896 21.6322 157.896 22.1987C157.896 22.9583 157.672 23.6869 157.273 24.224C156.874 24.7612 156.333 25.063 155.769 25.063ZM168.53 25.063C168.109 25.063 167.698 24.895 167.348 24.5803C166.998 24.2655 166.726 23.8182 166.565 23.2948C166.404 22.7714 166.362 22.1955 166.444 21.6399C166.526 21.0842 166.728 20.5739 167.026 20.1733C167.323 19.7727 167.702 19.4999 168.115 19.3894C168.527 19.2788 168.955 19.3356 169.343 19.5524C169.732 19.7692 170.064 20.1363 170.298 20.6073C170.532 21.0784 170.656 21.6322 170.656 22.1987C170.656 22.9583 170.432 23.6869 170.033 24.224C169.635 24.7612 169.094 25.063 168.53 25.063ZM181.29 25.063C180.869 25.063 180.458 24.895 180.108 24.5803C179.759 24.2655 179.486 23.8182 179.325 23.2948C179.164 22.7714 179.122 22.1955 179.204 21.6399C179.286 21.0842 179.489 20.5739 179.786 20.1733C180.084 19.7727 180.462 19.4999 180.875 19.3894C181.288 19.2788 181.715 19.3356 182.104 19.5524C182.492 19.7692 182.825 20.1363 183.058 20.6073C183.292 21.0784 183.417 21.6322 183.417 22.1987C183.417 22.9583 183.193 23.6869 182.794 24.224C182.395 24.7612 181.854 25.063 181.29 25.063ZM194.05 25.063C193.63 25.063 193.218 24.895 192.869 24.5803C192.519 24.2655 192.246 23.8182 192.085 23.2948C191.924 22.7714 191.882 22.1955 191.964 21.6399C192.046 21.0842 192.249 20.5739 192.546 20.1733C192.844 19.7727 193.223 19.4999 193.635 19.3894C194.048 19.2788 194.476 19.3356 194.864 19.5524C195.253 19.7692 195.585 20.1363 195.819 20.6073C196.052 21.0784 196.177 21.6322 196.177 22.1987C196.177 22.9583 195.953 23.6869 195.554 24.224C195.155 24.7612 194.614 25.063 194.05 25.063ZM206.811 25.063C206.39 25.063 205.979 24.895 205.629 24.5803C205.279 24.2655 205.007 23.8182 204.846 23.2948C204.685 22.7714 204.643 22.1955 204.725 21.6399C204.807 21.0842 205.009 20.5739 205.307 20.1733C205.604 19.7727 205.983 19.4999 206.396 19.3894C206.808 19.2788 207.236 19.3356 207.624 19.5524C208.013 19.7692 208.345 20.1363 208.579 20.6073C208.813 21.0784 208.937 21.6322 208.937 22.1987C208.937 22.9583 208.713 23.6869 208.314 24.224C207.916 24.7612 207.375 25.063 206.811 25.063ZM219.571 25.063C219.15 25.063 218.739 24.895 218.389 24.5803C218.04 24.2655 217.767 23.8182 217.606 23.2948C217.445 22.7714 217.403 22.1955 217.485 21.6399C217.567 21.0842 217.77 20.5739 218.067 20.1733C218.365 19.7727 218.744 19.4999 219.156 19.3894C219.569 19.2788 219.996 19.3356 220.385 19.5524C220.773 19.7692 221.106 20.1363 221.339 20.6073C221.573 21.0784 221.698 21.6322 221.698 22.1987C221.698 22.9583 221.474 23.6869 221.075 24.224C220.676 24.7612 220.135 25.063 219.571 25.063Z" fill="#CACACA"/>
<path d="M217.823 6.58538e-10H53.3077C52.7291 -9.86755e-06 52.1561 0.153482 51.6215 0.451714C51.0869 0.749945 50.6011 1.18708 50.192 1.73815C49.7828 2.28921 49.4582 2.94343 49.2368 3.66345C49.0154 4.38346 48.9014 5.15516 48.9014 5.9345V165.21C48.9014 165.989 49.0154 166.761 49.2368 167.481C49.4582 168.201 49.7828 168.855 50.192 169.406C50.6011 169.957 51.0869 170.395 51.6215 170.693C52.1561 170.991 52.7291 171.145 53.3077 171.145H217.823C218.402 171.145 218.975 170.991 219.509 170.693C220.044 170.395 220.53 169.957 220.939 169.406C221.348 168.855 221.673 168.201 221.894 167.481C222.116 166.761 222.23 165.989 222.23 165.21V5.9345C222.23 5.15516 222.116 4.38345 221.894 3.66344C221.673 2.94343 221.348 2.28921 220.939 1.73814C220.53 1.18707 220.044 0.749944 219.509 0.451714C218.975 0.153483 218.402 -1.1609e-05 217.823 6.58538e-10ZM57.9399 9.30911C57.5193 9.30911 57.1081 9.14112 56.7584 8.82638C56.4087 8.51165 56.1361 8.06429 55.9751 7.5409C55.8141 7.01751 55.772 6.44159 55.8541 5.88596C55.9361 5.33033 56.1387 4.81996 56.4361 4.41938C56.7335 4.01879 57.1125 3.74599 57.525 3.63547C57.9376 3.52495 58.3652 3.58167 58.7538 3.79846C59.1424 4.01526 59.4746 4.38239 59.7082 4.85343C59.9419 5.32446 60.0667 5.87826 60.0667 6.44477C60.0667 7.20443 59.8426 7.93298 59.4438 8.47014C59.0449 9.00731 58.504 9.30909 57.9399 9.30911ZM70.7003 9.30911C70.2797 9.30911 69.8685 9.14112 69.5187 8.82638C69.169 8.51165 68.8964 8.06429 68.7355 7.5409C68.5745 7.01751 68.5324 6.44159 68.6144 5.88596C68.6965 5.33033 68.899 4.81996 69.1965 4.41938C69.4939 4.01879 69.8728 3.74599 70.2854 3.63547C70.6979 3.52495 71.1255 3.58167 71.5141 3.79846C71.9028 4.01526 72.2349 4.38239 72.4686 4.85343C72.7023 5.32446 72.827 5.87826 72.827 6.44477C72.827 7.20443 72.6029 7.93298 72.2041 8.47014C71.8053 9.00731 71.2643 9.30909 70.7003 9.30911ZM83.4606 9.30911C83.04 9.30911 82.6288 9.14112 82.2791 8.82638C81.9294 8.51165 81.6568 8.06429 81.4958 7.5409C81.3348 7.01751 81.2927 6.44159 81.3748 5.88596C81.4568 5.33033 81.6594 4.81996 81.9568 4.41938C82.2542 4.01879 82.6332 3.74599 83.0457 3.63547C83.4583 3.52495 83.8859 3.58167 84.2745 3.79846C84.6631 4.01526 84.9953 4.38239 85.2289 4.85343C85.4626 5.32446 85.5874 5.87826 85.5874 6.44477C85.5874 7.20443 85.3633 7.93298 84.9645 8.47014C84.5656 9.00731 84.0247 9.30909 83.4606 9.30911ZM96.221 9.30911C95.8004 9.30911 95.3892 9.14112 95.0394 8.82638C94.6897 8.51165 94.4171 8.06429 94.2562 7.5409C94.0952 7.01751 94.0531 6.44159 94.1351 5.88596C94.2172 5.33033 94.4197 4.81996 94.7172 4.41938C95.0146 4.01879 95.3935 3.74599 95.8061 3.63547C96.2186 3.52495 96.6462 3.58167 97.0349 3.79846C97.4235 4.01526 97.7556 4.38239 97.9893 4.85343C98.223 5.32446 98.3477 5.87826 98.3477 6.44477C98.3477 7.20443 98.1236 7.93298 97.7248 8.47014C97.326 9.00731 96.785 9.30909 96.221 9.30911ZM108.981 9.30911C108.561 9.30911 108.15 9.14112 107.8 8.82638C107.45 8.51165 107.177 8.06429 107.017 7.5409C106.856 7.01751 106.813 6.44159 106.895 5.88596C106.978 5.33033 107.18 4.81996 107.478 4.41938C107.775 4.01879 108.154 3.74599 108.566 3.63547C108.979 3.52495 109.407 3.58167 109.795 3.79846C110.184 4.01526 110.516 4.38239 110.75 4.85343C110.983 5.32446 111.108 5.87826 111.108 6.44477C111.108 7.20443 110.884 7.93298 110.485 8.47014C110.086 9.00731 109.545 9.30909 108.981 9.30911ZM121.742 9.30911C121.321 9.30911 120.91 9.14112 120.56 8.82638C120.21 8.51165 119.938 8.06429 119.777 7.5409C119.616 7.01751 119.574 6.44159 119.656 5.88596C119.738 5.33033 119.94 4.81996 120.238 4.41938C120.535 4.01879 120.914 3.74599 121.327 3.63547C121.739 3.52495 122.167 3.58167 122.556 3.79846C122.944 4.01526 123.276 4.38239 123.51 4.85343C123.744 5.32446 123.868 5.87826 123.868 6.44477C123.868 7.20443 123.644 7.93297 123.246 8.47014C122.847 9.0073 122.306 9.30909 121.742 9.30911ZM134.502 9.30911C134.081 9.30911 133.67 9.14112 133.32 8.82638C132.971 8.51165 132.698 8.06429 132.537 7.5409C132.376 7.01751 132.334 6.44159 132.416 5.88596C132.498 5.33033 132.701 4.81996 132.998 4.41938C133.296 4.01879 133.675 3.74599 134.087 3.63547C134.5 3.52495 134.927 3.58167 135.316 3.79846C135.705 4.01526 136.037 4.38239 136.27 4.85343C136.504 5.32446 136.629 5.87826 136.629 6.44477C136.629 7.20443 136.405 7.93297 136.006 8.47013C135.607 9.00729 135.066 9.30908 134.502 9.30911ZM147.262 9.30911C146.842 9.30911 146.431 9.14112 146.081 8.82638C145.731 8.51165 145.459 8.06429 145.298 7.5409C145.137 7.01751 145.094 6.44159 145.177 5.88596C145.259 5.33033 145.461 4.81996 145.759 4.41938C146.056 4.01879 146.435 3.74599 146.847 3.63547C147.26 3.52495 147.688 3.58167 148.076 3.79846C148.465 4.01526 148.797 4.38239 149.031 4.85343C149.264 5.32446 149.389 5.87826 149.389 6.44477C149.389 7.20443 149.165 7.93297 148.766 8.47013C148.367 9.00729 147.826 9.30908 147.262 9.30911ZM160.023 9.30911C159.602 9.30911 159.191 9.14112 158.841 8.82638C158.491 8.51165 158.219 8.06429 158.058 7.5409C157.897 7.01751 157.855 6.44159 157.937 5.88596C158.019 5.33033 158.221 4.81996 158.519 4.41938C158.816 4.01879 159.195 3.74599 159.608 3.63547C160.02 3.52495 160.448 3.58167 160.837 3.79846C161.225 4.01526 161.557 4.38239 161.791 4.85343C162.025 5.32446 162.149 5.87826 162.149 6.44477C162.149 7.20443 161.925 7.93297 161.527 8.47013C161.128 9.00729 160.587 9.30908 160.023 9.30911ZM172.783 9.30911C172.362 9.30911 171.951 9.14112 171.602 8.82638C171.252 8.51165 170.979 8.06429 170.818 7.5409C170.657 7.01751 170.615 6.44159 170.697 5.88596C170.779 5.33033 170.982 4.81996 171.279 4.41938C171.577 4.01879 171.956 3.74599 172.368 3.63547C172.781 3.52495 173.208 3.58167 173.597 3.79846C173.986 4.01526 174.318 4.38239 174.551 4.85343C174.785 5.32446 174.91 5.87826 174.91 6.44477C174.91 7.20442 174.686 7.93296 174.287 8.47012C173.888 9.00729 173.347 9.30908 172.783 9.30911ZM185.543 9.30911C185.123 9.30911 184.712 9.14112 184.362 8.82638C184.012 8.51165 183.74 8.06429 183.579 7.5409C183.418 7.01751 183.376 6.44159 183.458 5.88596C183.54 5.33033 183.742 4.81996 184.04 4.41938C184.337 4.01879 184.716 3.74599 185.129 3.63547C185.541 3.52495 185.969 3.58167 186.357 3.79846C186.746 4.01526 187.078 4.38239 187.312 4.85343C187.545 5.32446 187.67 5.87826 187.67 6.44477C187.67 7.20442 187.446 7.93296 187.047 8.47012C186.648 9.00729 186.107 9.30908 185.543 9.30911ZM198.304 9.30911C197.883 9.30911 197.472 9.14112 197.122 8.82638C196.773 8.51165 196.5 8.06429 196.339 7.5409C196.178 7.01751 196.136 6.44159 196.218 5.88596C196.3 5.33033 196.503 4.81996 196.8 4.41938C197.097 4.01879 197.476 3.74599 197.889 3.63547C198.301 3.52495 198.729 3.58167 199.118 3.79846C199.506 4.01526 199.838 4.38239 200.072 4.85343C200.306 5.32446 200.431 5.87826 200.431 6.44477C200.43 7.20442 200.206 7.93296 199.808 8.47012C199.409 9.00729 198.868 9.30907 198.304 9.30911ZM211.064 9.30911C210.644 9.30911 210.232 9.14112 209.883 8.82638C209.533 8.51165 209.26 8.06429 209.099 7.5409C208.938 7.01751 208.896 6.44159 208.978 5.88596C209.06 5.33033 209.263 4.81996 209.56 4.41938C209.858 4.01879 210.237 3.74599 210.649 3.63547C211.062 3.52495 211.489 3.58167 211.878 3.79846C212.267 4.01526 212.599 4.38239 212.832 4.85343C213.066 5.32446 213.191 5.87826 213.191 6.44477C213.191 7.20442 212.967 7.93295 212.568 8.47012C212.169 9.00728 211.628 9.30907 211.064 9.30911Z" fill="#F0F0F0"/>
<path d="M93.8833 87.6595C93.8744 81.3398 95.0388 74.9275 97.6726 69.6415C98.9214 67.0988 100.536 64.9186 102.42 63.2294C104.305 61.5403 106.421 60.3765 108.645 59.8066C110.84 59.2536 113.103 59.4305 115.236 60.3219C117.168 61.1748 118.906 62.6794 120.284 64.6926C122.923 68.4922 124.551 74.5559 123.02 79.6156C122.663 80.7962 122.129 81.8653 121.452 82.7567C120.774 83.648 119.969 84.3426 119.084 84.7974C117.509 85.5307 115.568 84.963 114.891 82.695C114.31 80.7505 114.916 78.4127 115.885 76.8933C116.448 75.9896 117.198 75.3322 118.039 75.0051C118.88 74.6779 119.775 74.6959 120.608 75.0566C122.682 75.8468 124.317 78.1218 125.296 80.6345C126.434 83.5557 126.671 87.0097 126.432 90.2502C125.905 97.3921 123.163 103.749 121.144 110.25C119.268 116.293 117.708 123.285 119.152 129.798C119.747 132.39 120.826 134.733 122.287 136.602C123.747 138.47 125.54 139.803 127.492 140.47C131.217 141.815 135.574 140.859 138.219 136.845C139.467 134.953 140.378 132.49 140.39 129.919C140.407 128.716 140.186 127.53 139.749 126.48C139.313 125.431 138.676 124.558 137.906 123.95C134.683 121.521 130.33 124.018 128.98 128.46C128.154 131.179 128.31 134.304 129.09 137.008C129.924 139.795 131.331 142.203 133.146 143.951C135.031 145.837 137.234 147.091 139.459 148.05C141.773 149.067 144.159 149.765 146.578 150.132C151.192 150.794 156.008 149.758 159.625 145.593C162.806 141.93 164.557 136.507 165.448 131.107C166.482 124.841 166.327 118.441 166.336 112.066C166.346 105.271 166.474 97.8548 168.904 91.7129C170.815 86.8831 174.193 82.6552 178.225 81.3918C180.086 80.797 182.039 81.0134 183.803 82.0099C184.387 82.3395 184.641 81.0568 184.065 80.7311C180.191 78.5426 175.927 80.2597 172.728 83.5912C171.042 85.3543 169.61 87.5195 168.504 89.9793C167.313 92.7501 166.494 95.7812 166.083 98.9342C164.217 111.746 167.102 125.578 162.757 137.756C161.902 140.232 160.699 142.461 159.213 144.319C157.504 146.365 155.432 147.783 153.198 148.436C148.482 149.876 143.366 148.51 138.878 146.392C134.576 144.362 130.276 140.553 129.506 134.035C129.188 131.348 129.638 128.345 131.161 126.438C131.803 125.647 132.568 125.057 133.4 124.711C134.231 124.365 135.11 124.272 135.972 124.438C136.815 124.602 137.597 125.124 138.205 125.928C138.813 126.731 139.215 127.775 139.353 128.907C139.66 131.431 138.744 134.058 137.523 135.908C134.843 139.968 130.364 140.538 126.728 138.756C124.933 137.884 123.334 136.406 122.084 134.463C120.638 132.079 119.78 129.146 119.63 126.074C119.205 119.122 121.437 112.434 123.534 106.269C125.671 99.9889 127.967 93.0917 127.424 86.0078C127.236 82.8725 126.35 79.8865 124.882 77.4401C123.536 75.2721 121.623 73.6435 119.493 73.4643C118.629 73.3981 117.766 73.6204 116.981 74.1115C116.196 74.6025 115.514 75.3472 114.994 76.2791C113.986 78.0132 113.398 80.381 113.826 82.5676C114.065 83.6819 114.565 84.6626 115.25 85.364C115.936 86.0654 116.772 86.4501 117.633 86.4609C119.516 86.5054 121.309 84.9849 122.516 83.1352C125.243 78.9542 124.978 72.7661 123.21 68.0364C122.273 65.5146 120.906 63.3279 119.22 61.6555C117.534 59.9832 115.578 58.8728 113.512 58.4154C109.122 57.4978 104.55 59.3222 101.033 62.9108C97.2867 66.7335 94.8546 72.4662 93.7135 78.5455C93.1617 81.5261 92.888 84.5877 92.8987 87.6595C92.9032 87.8313 92.957 87.9942 93.0488 88.1137C93.1407 88.2332 93.2633 88.2999 93.391 88.2999C93.5187 88.2999 93.6414 88.2332 93.7333 88.1137C93.8251 87.9942 93.8789 87.8313 93.8833 87.6595Z" fill="#649C7B"/>
<path d="M29.1899 83.9657L22.5483 81.3176L21.9274 84.1423L28.569 86.7905L29.1899 83.9657Z" fill="#CACACA"/>
<path d="M30.1636 79.1043L23.6948 76.5272C23.1234 76.2997 22.5085 76.3829 21.9821 76.7591C21.4557 77.1352 21.0598 77.7743 20.8793 78.5392C20.6989 79.3041 20.7483 80.1338 21.017 80.8502C21.2856 81.5666 21.7521 82.1125 22.3163 82.3709C22.344 82.3867 22.3725 82.4001 22.4016 82.4107L28.8703 84.9921C28.898 85.0051 28.9267 85.014 28.9558 85.0186H28.9591C29.537 85.2153 30.149 85.099 30.6639 84.6947C31.1788 84.2905 31.5555 83.6304 31.7131 82.8563C31.8708 82.0822 31.7968 81.2557 31.5071 80.5542C31.2174 79.8527 30.7351 79.3322 30.1636 79.1043Z" fill="#CACACA"/>
<path d="M29.084 85.9734L28.7755 85.8496L22.1327 83.2018L22.0375 83.162L19.4546 84.2362L13.7734 105.175L7.45898 128.443L0.11394 155.513C0.0279099 155.815 -0.010124 156.138 0.00229841 156.461C0.0147208 156.783 0.0773266 157.099 0.186059 157.387C0.292887 157.678 0.443067 157.935 0.62719 158.143C0.811313 158.352 1.02541 158.507 1.25606 158.599L15.8149 164.402C16.0427 164.493 16.2818 164.52 16.5175 164.482C16.7533 164.444 16.9809 164.342 17.1865 164.182C17.3921 164.022 17.5715 163.807 17.7137 163.551C17.8559 163.295 17.9581 163.003 18.0139 162.692L22.9072 135.22L27.21 111.072L31.1484 88.9659L31.1615 88.8996L29.084 85.9734Z" fill="#E4E4E4"/>
<path d="M73.3461 119.805C73.1698 119.805 72.9956 119.818 72.8238 119.841C72.9872 118.58 72.8943 117.283 72.5551 116.088C72.2159 114.892 71.6429 113.842 70.8969 113.05C70.1509 112.257 69.2596 111.75 68.3174 111.584C67.3751 111.418 66.417 111.598 65.5445 112.105C64.6721 112.612 63.9176 113.428 63.3612 114.465C62.8047 115.503 62.4669 116.724 62.3836 117.999C62.3002 119.274 62.4744 120.555 62.8877 121.708C63.301 122.86 63.938 123.841 64.7312 124.545C64.3404 124.862 64.0068 125.292 63.7545 125.803C63.5023 126.315 63.3378 126.896 63.273 127.504C63.2082 128.112 63.2447 128.732 63.3799 129.319C63.515 129.905 63.7455 130.444 64.0544 130.896C64.3634 131.348 64.7432 131.701 65.1662 131.931C65.5892 132.16 66.0449 132.26 66.5001 132.223C66.9554 132.186 67.3988 132.013 67.7982 131.717C68.1976 131.42 68.543 131.007 68.8093 130.509C69.2782 131.58 69.9478 132.466 70.7509 133.078C71.554 133.691 72.4626 134.009 73.3856 134C74.3086 133.991 75.2137 133.656 76.0103 133.028C76.8069 132.4 77.467 131.501 77.9247 130.422C78.3823 129.342 78.6213 128.119 78.6179 126.876C78.6144 125.633 78.3686 124.413 77.905 123.338C77.4413 122.263 76.7762 121.371 75.9762 120.751C75.1761 120.131 74.2692 119.805 73.3461 119.805Z" fill="#649C7B"/>
<path d="M69.5869 131.805L61.981 125.927L60.6028 129.162L68.2087 135.04L69.5869 131.805Z" fill="#CACACA"/>
<path d="M59.8165 110.029C59.3783 109.185 58.7098 108.61 57.9574 108.43C57.205 108.249 56.4301 108.477 55.8026 109.065L48.7957 115.638C48.1681 116.227 47.74 117.128 47.6055 118.142C47.471 119.156 47.6412 120.201 48.0785 121.046C48.5159 121.891 49.1847 122.468 49.9377 122.649C50.6908 122.83 51.4664 122.601 52.094 122.012L59.1011 115.439C59.7274 114.848 60.1544 113.947 60.2885 112.933C60.4226 111.919 60.2528 110.874 59.8165 110.029Z" fill="#CACACA"/>
<path d="M69.0224 134.234L68.6679 133.96L61.0636 128.085L60.9487 127.997L57.5386 128.306L45.5725 152.247L35.2835 172.832L21.3089 200.79C21.1403 201.13 21.0253 201.513 20.9711 201.916C20.9169 202.318 20.9247 202.732 20.9939 203.13C21.0632 203.528 21.1924 203.903 21.3736 204.231C21.5548 204.559 21.7841 204.834 22.0474 205.038L38.7198 217.923C38.9806 218.126 39.2695 218.255 39.5687 218.302C39.8678 218.349 40.171 218.313 40.4595 218.197C40.7481 218.081 41.016 217.886 41.2468 217.626C41.4775 217.365 41.6663 217.043 41.8016 216.681L53.0259 186.628L61.2998 164.478L70.9161 138.734L70.9456 138.659L69.0224 134.234Z" fill="#E4E4E4"/>
<path d="M43.2514 214.876L21.9395 198.304L19.7429 203.428L41.0548 220L43.2514 214.876Z" fill="#CACACA"/>
<path d="M223.352 50.8095C224.203 47.1598 226.136 43.8124 228.81 42.5785C231.485 41.3447 235.401 43.2242 237.411 45.9228C241.089 50.8591 241.202 56.902 238.675 62.261C238.173 62.2251 236.438 62.1986 235.93 62.173L235.21 58.943V62.1412C231.24 61.9759 227.107 62.0794 222.971 62.1864C222.601 58.3922 222.502 54.4593 223.352 50.8095Z" fill="#2F2E41"/>
<path d="M205.666 108.685C205.511 108.239 205.43 107.752 205.429 107.258C205.429 106.765 205.508 106.278 205.663 105.83C205.817 105.383 206.042 104.987 206.323 104.669C206.603 104.352 206.932 104.121 207.286 103.993L217.971 76.8385L222.284 81.322L210.424 106.605C210.544 107.419 210.438 108.265 210.126 108.981C209.814 109.697 209.318 110.235 208.732 110.491C208.145 110.748 207.509 110.706 206.944 110.373C206.379 110.04 205.925 109.439 205.666 108.685Z" fill="#FFB6B6"/>
<path d="M219.707 195.113H216.086L214.363 176.301L219.708 176.301L219.707 195.113Z" fill="#FFB6B6"/>
<path d="M242.025 195.113H238.403L236.681 176.301L242.025 176.301L242.025 195.113Z" fill="#FFB6B6"/>
<path d="M234.226 88.117L235.046 90.9902L234.882 93.8634L219.128 91.2112L219.621 88.78L221.426 85.9069L234.226 88.117Z" fill="#FFB6B6"/>
<path d="M229.148 62.2612C232.316 62.2612 234.884 58.8028 234.884 54.5367C234.884 50.2706 232.316 46.8123 229.148 46.8123C225.981 46.8123 223.413 50.2706 223.413 54.5367C223.413 58.8028 225.981 62.2612 229.148 62.2612Z" fill="#FFB7B7"/>
<path d="M223.067 67.7836L226.349 65.1314L232.913 64.2474L238.714 66.0155L238.656 80.3814L234.976 92.9883L219.55 90.3362L218.964 85.8894C218.964 85.8894 214.698 78.1713 219.292 73.751L223.067 67.7836Z" fill="#649C7B"/>
<path d="M235.046 92.7582V97.6675C235.046 97.6675 239.313 105.135 237.015 110.881L243.598 187.355H236.706L225.2 122.816L220.296 186.029H214.388L213.404 115.746C213.404 115.746 214.041 97.6205 217.652 94.5263L219.311 90.5508L235.046 92.7582Z" fill="#2F2E41"/>
<path d="M225.207 44.478C226.309 43.5732 227.572 43.0838 228.862 43.0608C230.153 43.0379 231.424 43.4824 232.544 44.3478C233.663 45.2132 234.589 46.4677 235.225 47.9802C235.861 49.4926 236.184 51.2075 236.16 52.9455C232.954 53.1441 229.586 53.1958 226.171 53.2047L225.364 50.5445L224.888 53.2067C223.848 53.2065 222.805 53.2047 221.761 53.2011C221.718 51.468 222.014 49.7503 222.619 48.2195C223.224 46.6887 224.116 45.3986 225.207 44.478Z" fill="#2F2E41"/>
<path d="M187.615 85.5211L185.052 84.1649C184.883 84.0762 184.729 83.9435 184.599 83.7745C184.468 83.6056 184.364 83.4036 184.291 83.1801C184.219 82.9567 184.179 82.7162 184.176 82.4723C184.173 82.2285 184.205 81.9862 184.271 81.7592C184.337 81.5323 184.436 81.3251 184.562 81.1496C184.687 80.9741 184.838 80.8337 185.004 80.7364C185.17 80.6392 185.348 80.587 185.529 80.5828C185.71 80.5786 185.89 80.6226 186.059 80.7121L188.622 82.0683C188.962 82.2487 189.234 82.6031 189.379 83.0537C189.525 83.5043 189.532 84.0142 189.398 84.4715C189.265 84.9289 189.002 85.2962 188.668 85.493C188.334 85.6898 187.955 85.6999 187.615 85.5211Z" fill="#649C7B"/>
<path d="M244.701 108.412L194.041 81.6133C193.718 81.4431 193.37 81.3798 193.026 81.4288C192.681 81.4779 192.351 81.6377 192.062 81.895L190.034 80.8225C189.803 80.7 189.556 80.6401 189.307 80.6463C189.058 80.6525 188.813 80.7246 188.585 80.8584C188.357 80.9923 188.151 81.1854 187.978 81.4266C187.806 81.6678 187.67 81.9524 187.579 82.2642L186.95 84.4211C186.859 84.7329 186.815 85.0658 186.819 85.4007C186.824 85.7356 186.877 86.0661 186.977 86.3732C187.076 86.6802 187.219 86.9579 187.399 87.1904C187.578 87.4229 187.789 87.6056 188.02 87.728L189.707 88.62C189.592 89.2978 189.661 90.0085 189.902 90.6233C190.143 91.2381 190.54 91.7165 191.02 91.9716L241.68 118.771C242.214 119.053 242.81 119.039 243.337 118.73C243.863 118.42 244.277 117.842 244.487 117.123L245.924 112.193C246.134 111.473 246.123 110.67 245.894 109.961C245.664 109.252 245.235 108.695 244.701 108.412Z" fill="#3F3D56"/>
<path d="M256.683 128.7L237.637 118.625L241.665 104.814L260.71 114.889C261.551 115.335 262.226 116.212 262.587 117.328C262.948 118.444 262.966 119.707 262.637 120.84L261.102 126.105C260.77 127.237 260.119 128.146 259.29 128.633C258.462 129.119 257.524 129.143 256.683 128.7Z" fill="#2F2E41"/>
<path d="M259.688 125.64L250.409 120.731C249.94 120.482 249.563 119.993 249.362 119.37C249.16 118.748 249.15 118.043 249.334 117.411L249.622 116.424C249.807 115.793 250.17 115.285 250.632 115.014C251.094 114.742 251.617 114.729 252.087 114.977L261.366 119.885C261.835 120.134 262.211 120.623 262.413 121.246C262.614 121.868 262.624 122.573 262.44 123.205L262.152 124.192C261.968 124.824 261.604 125.331 261.142 125.602C260.68 125.874 260.157 125.887 259.688 125.64Z" fill="#649C7B"/>
<path d="M229.591 102.908C229.723 102.948 229.853 103.003 229.979 103.07L239.991 93.7878L239.762 89.8227L244.16 88.5748L245.072 95.5412C245.146 96.104 245.082 96.6838 244.89 97.1935C244.698 97.7033 244.389 98.1155 244.008 98.3683L231.606 106.606C231.559 107.307 231.354 107.972 231.02 108.513C230.686 109.053 230.237 109.444 229.733 109.633C229.23 109.821 228.696 109.799 228.202 109.569C227.709 109.339 227.279 108.912 226.969 108.345C226.66 107.777 226.487 107.097 226.472 106.393C226.457 105.69 226.601 104.997 226.886 104.407C227.17 103.817 227.582 103.357 228.065 103.09C228.548 102.822 229.08 102.759 229.591 102.908Z" fill="#FFB6B6"/>
<path d="M61.3 164.477L53.0261 186.627L35.2837 172.832L45.5727 152.246L61.3 164.477Z" fill="#649C7B"/>
<path d="M27.21 111.072L22.9073 135.22L7.45898 128.443L13.7735 105.175L27.21 111.072Z" fill="#CACACA"/>
<path d="M239.003 94.087L244.583 98.5072C245.895 97.6232 245.642 91.8899 244.84 91.5541L244.236 72.4249C243.907 63.5843 238.714 66.0155 238.714 66.0155L236.359 66.6785L238 75.9611L239.782 91.9774C239.54 92.2241 239.344 92.5429 239.209 92.9089C239.074 93.2749 239.003 93.6782 239.003 94.087Z" fill="#649C7B"/>
<path d="M223.195 67.6627C223.195 67.6627 218.689 67.7584 217.281 71.0243C216.154 73.639 214.047 84.0685 213.251 88.1271C212.814 88.1105 212.386 88.29 212.033 88.6374C211.68 88.9848 211.424 89.4804 211.303 90.0459L217.342 93.203C218.655 92.3189 218.291 91.0936 217.958 90.4597L220.207 85.9159L222.833 84.1478L223.922 68.5006L223.195 67.6627Z" fill="#649C7B"/>
<path d="M221.327 204.373H218.757L218.298 201.106L217.124 204.373H210.309C209.982 204.373 209.664 204.232 209.401 203.972C209.138 203.711 208.943 203.344 208.846 202.924C208.749 202.504 208.754 202.053 208.861 201.637C208.967 201.221 209.17 200.862 209.438 200.612L214.881 195.55V192.247L220.605 192.707L221.327 204.373Z" fill="#2F2E41"/>
<path d="M243.973 204.373H241.403L240.944 201.106L239.77 204.373H232.955C232.628 204.373 232.31 204.232 232.047 203.972C231.784 203.711 231.589 203.344 231.492 202.924C231.395 202.504 231.4 202.053 231.507 201.637C231.613 201.221 231.816 200.862 232.084 200.612L237.527 195.55V192.247L243.251 192.707L243.973 204.373Z" fill="#2F2E41"/>
</g>
<defs>
<clipPath id="clip0_416_207">
<rect width="308" height="220" fill="white"/>
</clipPath>
</defs>
</svg>
