<svg width="50" height="50" viewBox="0 0 50 50" fill="none" xmlns="http://www.w3.org/2000/svg">
<path fill-rule="evenodd" clip-rule="evenodd" d="M41.214 8.163C41.94 7.99091 42.4463 7.82173 42.8611 7.64404C43.4423 7.395 43.9242 7.09666 44.6857 6.59423C45.3255 6.17195 46.1455 6.13518 46.8205 6.49848C47.4955 6.86177 47.9165 7.56643 47.9165 8.33302C47.9165 10.585 47.6359 12.4307 46.9863 14.055C46.4396 15.4212 45.6717 16.531 44.7532 17.541C44.3652 24.5475 42.3371 30.0498 39.2365 34.2183C36.0227 38.5389 31.7469 41.3058 27.2396 42.8554C22.7455 44.4002 17.997 44.7454 13.743 44.2223C9.51683 43.7027 5.61033 42.3035 2.88744 40.1858C2.14177 39.6058 1.87965 38.5966 2.24881 37.7271C2.61798 36.8575 3.526 36.3452 4.46117 36.4789C7.14027 36.8616 9.71921 36.2525 11.8398 35.3816C11.4224 35.1546 11.0288 34.9087 10.6629 34.6554C8.73056 33.3177 7.1715 31.5016 6.46977 30.0981C6.17938 29.5175 6.17638 28.8344 6.46167 28.2512C6.60883 27.9502 6.82404 27.6937 7.08533 27.4981C4.26394 25.1696 3.12481 21.9489 3.12481 19.7913C3.12481 19.1498 3.4204 18.544 3.92606 18.1492C4.13869 17.9832 4.37848 17.8623 4.63125 17.7895C4.42013 17.1713 4.25629 16.5467 4.13142 15.942C3.57773 13.261 3.62688 10.2351 4.22869 7.82775C4.43463 7.00395 5.11992 6.3876 5.96085 6.26981C6.80177 6.15204 7.63004 6.55641 8.05438 7.29193C10.2992 11.1829 14.4397 13.5613 18.2933 14.9701C20.105 15.6325 21.783 16.0546 23.0407 16.3141C23.3121 13.7712 24.0221 11.6741 25.1119 10.0085C26.5496 7.81106 28.5548 6.51091 30.7082 5.93118C34.4221 4.93139 38.5432 6.07043 41.214 8.163ZM22.3923 20.4342C20.965 20.1476 19.0034 19.6661 16.8626 18.8835C14.035 17.8497 10.7517 16.2378 8.00133 13.741C8.05056 14.2005 8.12044 14.6561 8.21198 15.0993C8.67292 17.3312 9.52942 18.5812 10.3065 18.9697C11.257 19.445 11.6974 20.5594 11.3287 21.556C10.8296 22.9054 9.51669 23.016 8.32381 22.7179C9.28323 24.1562 11.0077 25.5904 13.884 26.0698C14.876 26.2352 15.6083 27.0856 15.6245 28.0912C15.6408 29.0968 14.9363 29.9704 13.9501 30.1677L12.1366 30.5304C12.414 30.7714 12.7144 31.0079 13.0346 31.2296C14.4865 32.2348 15.9443 32.6683 17.2029 32.3537C18.1455 32.1181 19.1258 32.5652 19.5657 33.4316C20.0056 34.2979 19.7883 35.3533 19.0419 35.9752C17.7004 37.0919 16.1337 37.9879 14.5635 38.7314C13.8264 39.0806 13.0026 39.4252 12.108 39.7285C12.796 39.8754 13.512 39.9958 14.2515 40.0868C17.9402 40.5404 22.0459 40.2346 25.885 38.915C29.7111 37.5998 33.2475 35.2885 35.8934 31.7316C38.5353 28.1796 40.379 23.2639 40.6263 16.5894C40.6457 16.0639 40.8632 15.5652 41.235 15.1933C42.1717 14.2566 42.9459 13.1828 43.3267 11.9048C42.6602 12.1125 41.9098 12.2924 41.0161 12.4632C40.338 12.5929 39.6398 12.3782 39.1517 11.8901C37.559 10.2974 34.409 9.24993 31.7913 9.9546C30.5594 10.2862 29.4396 11.0042 28.5986 12.2897C27.74 13.6021 27.0832 15.6467 27.0832 18.7498C27.0832 19.3393 26.8334 19.9012 26.3959 20.2962C25.3584 21.2327 23.6123 20.6792 22.3923 20.4342Z" fill="white"/>
</svg>
