<svg width="61" height="61" viewBox="0 0 61 61" fill="none" xmlns="http://www.w3.org/2000/svg">
<path opacity="0.5" d="M42.0963 3H39.4457C31.9487 3 28.2012 3.00063 25.8721 5.417C23.5431 7.83337 23.5431 11.7224 23.5431 19.5006V41.5006C23.5431 49.2789 23.5431 53.168 25.8721 55.5841C28.2007 58 31.9466 58 39.4399 58H39.4457H42.0963C49.5934 58 53.3419 58 55.671 55.5836C58.0001 53.1671 58.0001 49.2781 58.0001 41.5V19.5C58.0001 11.7219 58.0001 7.83274 55.671 5.41637C53.3419 3 49.5934 3 42.0963 3Z" fill="#649C7B" stroke="white" stroke-width="5"/>
<path fill-rule="evenodd" clip-rule="evenodd" d="M41.4341 30.5001C41.4341 29.361 40.544 28.4376 39.4461 28.4376H10.362L15.5589 23.816C16.3925 23.0747 16.4891 21.7726 15.7745 20.9078C15.06 20.0429 13.805 19.9428 12.9714 20.6841L3.69423 28.9339C3.25359 29.3258 3 29.8978 3 30.5001C3 31.102 3.25359 31.674 3.69423 32.0659L12.9714 40.3159C13.805 41.0573 15.06 40.9572 15.7745 40.0923C16.4891 39.2275 16.3925 37.9253 15.5589 37.1839L10.362 32.5626H39.4461C40.544 32.5626 41.4341 31.6391 41.4341 30.5001Z" fill="#649C7B" stroke="white" stroke-width="5"/>
</svg>
