<svg width="50" height="50" viewBox="0 0 50 50" fill="none" xmlns="http://www.w3.org/2000/svg">
<g clip-path="url(#clip0_512_101)">
<path d="M2.61714 49.9609C2.30464 49.9609 1.99214 49.8438 1.75777 49.5703C1.52339 49.3359 1.40621 49.0234 1.44527 48.6719L3.90621 10.8594C3.94527 10.2344 4.45308 9.76562 5.07808 9.76562H15.3906V9.60938C15.3906 7.03125 16.4062 4.64844 18.2031 2.8125C20.039 1.05469 22.4218 0.0390625 25 0.0390625C30.2734 0.0390625 34.6093 4.33594 34.6093 9.64844C34.6093 9.6875 34.5703 9.72656 34.5703 9.76562V9.80469H44.9218C45.5468 9.80469 46.0546 10.2734 46.0937 10.8984L48.5156 48.4375C48.5546 48.5547 48.5546 48.6328 48.5546 48.75C48.5156 49.4141 48.0078 49.9609 47.3437 49.9609H2.61714ZM3.86714 47.6172H46.0937L43.8281 12.1484H34.5703V14.9609H34.6093C35.2343 15.3906 35.5859 16.0156 35.5859 16.7188C35.5859 17.9297 34.6093 18.9063 33.3984 18.9063C32.1875 18.9063 31.2109 17.9297 31.2109 16.7188C31.2109 16.0156 31.5625 15.3906 32.1875 14.9609H32.2265V12.1484H17.7343V14.9609H17.7734C18.3984 15.3906 18.75 16.0156 18.75 16.7188C18.75 17.9297 17.7734 18.9063 16.5625 18.9063C15.3515 18.9063 14.375 17.9297 14.375 16.7188C14.375 16.0156 14.7265 15.3906 15.3515 14.9609H15.3906V12.1484H6.13277L3.86714 47.6172ZM25 2.42187C21.0156 2.42187 17.7343 5.66406 17.7343 9.6875V9.84375H32.3046L32.2656 9.76562V9.6875C32.2656 5.66406 28.9843 2.42187 25 2.42187Z" fill="white" stroke="white" stroke-width="2"/>
</g>
<defs>
<clipPath id="clip0_512_101">
<rect width="50" height="50" fill="white"/>
</clipPath>
</defs>
</svg>
