<svg width="50" height="50" viewBox="0 0 50 50" fill="none" xmlns="http://www.w3.org/2000/svg">
<path d="M38.7774 20.5C38.079 20.4924 37.3948 20.302 36.7928 19.9477C36.1908 19.5935 35.6922 19.0879 35.3462 18.4811C35.0004 17.8743 34.8194 17.1874 34.8214 16.489C34.8234 15.7906 35.0082 15.1048 35.3574 14.5L35.5974 14.0799C35.8594 13.6356 36.0266 13.1419 36.0886 12.6299C36.1506 12.1178 36.106 11.5985 35.9576 11.1045C35.8092 10.6105 35.5602 10.1525 35.2264 9.75938C34.8924 9.36624 34.4808 9.04634 34.0174 8.81992C33.0454 8.35304 31.934 8.26664 30.9014 8.5775C29.869 8.88836 28.99 9.57408 28.4374 10.5C28.0808 11.0878 27.5788 11.5737 26.9798 11.911C26.3806 12.2483 25.7048 12.4255 25.0174 12.4255C24.33 12.4255 23.654 12.2483 23.055 11.911C22.456 11.5737 21.9538 11.0878 21.5974 10.5C21.0448 9.57408 20.1658 8.88836 19.1333 8.5775C18.1008 8.26664 16.9894 8.35304 16.0174 8.81992C15.5539 9.04634 15.1423 9.36624 14.8084 9.75938C14.4745 10.1525 14.2255 10.6105 14.0772 11.1045C13.9288 11.5985 13.8842 12.1178 13.9462 12.6299C14.0082 13.1419 14.1754 13.6356 14.4374 14.0799L14.6774 14.5C15.0266 15.1048 15.2114 15.7906 15.2134 16.489C15.2153 17.1874 15.0344 17.8743 14.6885 18.4811C14.3427 19.0879 13.8439 19.5935 13.2419 19.9477C12.64 20.302 11.9558 20.4924 11.2574 20.5C10.2843 20.476 9.33396 20.7958 8.57318 21.403C7.81242 22.01 7.28986 22.8658 7.09736 23.82C6.99736 24.3992 7.02628 24.9934 7.18202 25.5602C7.33774 26.127 7.61652 26.6526 7.99842 27.0994C8.38032 27.5462 8.85598 27.9032 9.3916 28.1454C9.92724 28.3874 10.5096 28.5086 11.0974 28.5H11.3374C12.0358 28.5076 12.72 28.698 13.322 29.0522C13.9239 29.4064 14.4226 29.9122 14.7685 30.519C15.1144 31.1256 15.2954 31.8126 15.2934 32.511C15.2914 33.2094 15.1067 33.8952 14.7574 34.5L14.6574 34.66C14.1337 35.587 13.9912 36.6814 14.26 37.7116C14.5287 38.7418 15.1876 39.627 16.0974 40.18C17.0044 40.702 18.0798 40.8478 19.0931 40.586C20.1063 40.3244 20.9767 39.676 21.5174 38.78L21.5574 38.5C21.914 37.9122 22.416 37.4262 23.015 37.089C23.614 36.7518 24.2898 36.5744 24.9774 36.5744C25.6648 36.5744 26.3408 36.7518 26.9398 37.089C27.5388 37.4262 28.0408 37.9122 28.3974 38.5L28.5374 38.78C29.0782 39.6814 29.9522 40.3336 30.9702 40.5956C31.9884 40.8576 33.0686 40.7084 33.9774 40.18C34.8734 39.6394 35.5218 38.769 35.7834 37.7558C36.0452 36.7424 35.8994 35.667 35.3774 34.76L35.2574 34.54C34.9082 33.9352 34.7234 33.2494 34.7214 32.5508C34.7194 31.8524 34.9004 31.1658 35.2462 30.559C35.592 29.9522 36.0908 29.4464 36.6928 29.0922C37.2948 28.738 37.979 28.5476 38.6774 28.54H38.9174C39.505 28.5486 40.0876 28.4276 40.6232 28.1854C41.1588 27.9434 41.6344 27.586 42.0164 27.1392C42.3982 26.6924 42.677 26.167 42.8328 25.6002C42.9884 25.0334 43.0174 24.4392 42.9174 23.86C42.7338 22.902 42.2176 22.0396 41.4602 21.4248C40.7028 20.81 39.7526 20.4826 38.7774 20.5Z" stroke="white" stroke-width="4" stroke-linecap="round" stroke-linejoin="round"/>
<path d="M25 29.5801C27.7614 29.5801 30 27.3415 30 24.5801C30 21.8187 27.7614 19.5801 25 19.5801C22.2386 19.5801 20 21.8187 20 24.5801C20 27.3415 22.2386 29.5801 25 29.5801Z" stroke="white" stroke-width="4" stroke-linecap="round" stroke-linejoin="round"/>
</svg>
