<svg width="60" height="60" viewBox="0 0 60 60" fill="none" xmlns="http://www.w3.org/2000/svg">
<path fill-rule="evenodd" clip-rule="evenodd" d="M30.0005 3.125C23.4421 3.125 18.1255 8.44163 18.1255 15C18.1255 21.5584 23.4421 26.875 30.0005 26.875C36.5588 26.875 41.8755 21.5584 41.8755 15C41.8755 8.44163 36.5588 3.125 30.0005 3.125ZM21.8755 15C21.8755 10.5127 25.5133 6.875 30.0005 6.875C34.4878 6.875 38.1255 10.5127 38.1255 15C38.1255 19.4873 34.4878 23.125 30.0005 23.125C25.5133 23.125 21.8755 19.4873 21.8755 15Z" fill="black" stroke="black" stroke-width="3"/>
<path fill-rule="evenodd" clip-rule="evenodd" d="M6.81945 14.5452C6.5683 13.5406 5.5503 12.9298 4.5457 13.1809C3.54107 13.4321 2.93027 14.4501 3.18142 15.4547L4.13635 19.2744C5.89825 26.322 11.2401 31.874 18.1254 33.9467V45.13C18.1254 47.3762 18.1253 49.2492 18.3252 50.7362C18.5362 52.3057 19.0004 53.7227 20.1391 54.8612C21.2777 56 22.6947 56.4642 24.2642 56.6752C25.7512 56.8752 27.6242 56.875 29.8705 56.875H30.1305C32.3767 56.875 34.2497 56.8752 35.7367 56.6752C37.3062 56.4642 38.723 56 39.8617 54.8612C41.0005 53.7227 41.4647 52.3057 41.6757 50.7362C41.8755 49.2492 41.8755 47.3762 41.8755 45.13V34.6475C44.3282 35.3787 46.202 37.5097 46.5145 40.1677L48.1382 53.969C48.2592 54.9975 49.191 55.7332 50.2195 55.6122C51.248 55.4912 51.9835 54.5592 51.8625 53.531L50.239 39.7295C49.628 34.5377 45.228 30.625 40.0005 30.625H20.2117C14.1031 29.191 9.29892 24.463 7.77437 18.3649L6.81945 14.5452ZM21.8754 45V34.375H38.1255V45C38.1255 47.41 38.1215 49.029 37.959 50.2365C37.804 51.3902 37.536 51.884 37.2102 52.2097C36.8842 52.5355 36.3905 52.8035 35.237 52.9587C34.0292 53.121 32.4105 53.125 30.0005 53.125C27.5905 53.125 25.9715 53.121 24.7639 52.9587C23.6103 52.8035 23.1165 52.5355 22.7907 52.2097C22.4649 51.884 22.1969 51.3902 22.0418 50.2365C21.8794 49.029 21.8754 47.41 21.8754 45Z" fill="black" stroke="black" stroke-width="3"/>
</svg>
